<svg width="114" height="114" viewBox="0 0 114 114" fill="none" xmlns="http://www.w3.org/2000/svg">
<g clip-path="url(#clip0_731_3372)">
<g filter="url(#filter0_dddd_731_3372)">
<path fill-rule="evenodd" clip-rule="evenodd" d="M91.0925 21.5515C91.0925 20.9047 90.8357 20.2848 90.3783 19.8281C89.9209 19.3707 89.3009 19.114 88.655 19.114C78.1185 19.114 36.5477 19.114 26.0112 19.114C25.3653 19.114 24.7454 19.3707 24.2879 19.8281C23.8305 20.2848 23.5737 20.9047 23.5737 21.5515V76.7161C23.5737 77.3629 23.8305 77.9828 24.2879 78.4395C24.7454 78.8969 25.3653 79.1536 26.0112 79.1536H88.655C89.3009 79.1536 89.9209 78.8969 90.3783 78.4395C90.8357 77.9828 91.0925 77.3629 91.0925 76.7161C91.0925 67.0206 91.0925 31.247 91.0925 21.5515Z" fill="#4F4F4F"/>
</g>
<path fill-rule="evenodd" clip-rule="evenodd" d="M55.965 30.1965C55.965 29.765 55.7936 29.3523 55.4889 29.0476C55.1842 28.7429 54.7706 28.5715 54.34 28.5715H34.5361C34.1055 28.5715 33.6919 28.7429 33.3873 29.0476C33.0826 29.3523 32.9111 29.765 32.9111 30.1965V50.0003C32.9111 50.431 33.0826 50.8445 33.3873 51.1492C33.6919 51.4539 34.1055 51.6253 34.5361 51.6253H54.34C54.7706 51.6253 55.1842 51.4539 55.4889 51.1492C55.7936 50.8445 55.965 50.431 55.965 50.0003V30.1965Z" fill="#E1FFEB"/>
<path fill-rule="evenodd" clip-rule="evenodd" d="M32.9111 33.7178H55.965V30.1965C55.965 29.765 55.7936 29.3523 55.4889 29.0476C55.1842 28.7429 54.7706 28.5715 54.34 28.5715H34.5361C34.1055 28.5715 33.6919 28.7429 33.3873 29.0476C33.0826 29.3523 32.9111 29.765 32.9111 30.1965V33.7178Z" fill="#05B384"/>
<path fill-rule="evenodd" clip-rule="evenodd" d="M64.4707 29.7902H70.0493C70.7221 29.7902 71.2681 29.2442 71.2681 28.5715C71.2681 27.8987 70.7221 27.3527 70.0493 27.3527H64.4707C63.798 27.3527 63.252 27.8987 63.252 28.5715C63.252 29.2442 63.798 29.7902 64.4707 29.7902Z" fill="#E1FFEB"/>
<path fill-rule="evenodd" clip-rule="evenodd" d="M64.4707 52.8441H70.0493C70.7221 52.8441 71.2681 52.2981 71.2681 51.6254C71.2681 50.9526 70.7221 50.4066 70.0493 50.4066H64.4707C63.798 50.4066 63.252 50.9526 63.252 51.6254C63.252 52.2981 63.798 52.8441 64.4707 52.8441Z" fill="#E1FFEB"/>
<path fill-rule="evenodd" clip-rule="evenodd" d="M64.4707 41.3171H70.0493C70.7221 41.3171 71.2681 40.7711 71.2681 40.0984C71.2681 39.4256 70.7221 38.8796 70.0493 38.8796H64.4707C63.798 38.8796 63.252 39.4256 63.252 40.0984C63.252 40.7711 63.798 41.3171 64.4707 41.3171Z" fill="#E1FFEB"/>
<path fill-rule="evenodd" clip-rule="evenodd" d="M76.1758 29.7902H81.7552C82.428 29.7902 82.974 29.2442 82.974 28.5715C82.974 27.8987 82.428 27.3527 81.7552 27.3527H76.1758C75.503 27.3527 74.957 27.8987 74.957 28.5715C74.957 29.2442 75.503 29.7902 76.1758 29.7902Z" fill="white"/>
<path fill-rule="evenodd" clip-rule="evenodd" d="M76.1758 52.8441H81.7552C82.428 52.8441 82.974 52.2981 82.974 51.6254C82.974 50.9526 82.428 50.4066 81.7552 50.4066H76.1758C75.503 50.4066 74.957 50.9526 74.957 51.6254C74.957 52.2981 75.503 52.8441 76.1758 52.8441Z" fill="white"/>
<path fill-rule="evenodd" clip-rule="evenodd" d="M76.1758 41.3171H81.7552C82.428 41.3171 82.974 40.7711 82.974 40.0984C82.974 39.4256 82.428 38.8796 81.7552 38.8796H76.1758C75.503 38.8796 74.957 39.4256 74.957 40.0984C74.957 40.7711 75.503 41.3171 76.1758 41.3171Z" fill="white"/>
<path fill-rule="evenodd" clip-rule="evenodd" d="M76.2966 63.9932H38.3691V91.4265C38.3691 92.7728 39.4611 93.864 40.8066 93.864H73.8591C75.2046 93.864 76.2966 92.7728 76.2966 91.4265C76.2966 84.2984 76.2966 63.9932 76.2966 63.9932Z" fill="#72A962"/>
<path fill-rule="evenodd" clip-rule="evenodd" d="M70.5191 63.9932V79.863C70.5191 80.9623 69.783 81.9259 68.7218 82.2144C66.3437 82.8189 64.4773 84.686 63.8371 87.0544C63.5527 88.0985 62.6037 88.824 61.5215 88.824C59.2002 88.8614 55.4659 88.8614 53.1446 88.8614C52.0453 88.8606 51.0825 88.1245 50.794 87.0633C50.1887 84.686 48.3224 82.8188 45.954 82.1786C44.9091 81.8942 44.1843 80.946 44.1843 79.863C44.147 75.1383 44.147 63.9932 44.147 63.9932H70.5191Z" fill="#619053"/>
<path d="M57.0504 76.8015L54.083 72.6707V72.1199H54.4284C54.9832 72.1199 55.4489 72.0782 55.8258 71.9947C56.213 71.9113 56.5166 71.7736 56.7364 71.5817C56.9562 71.3897 57.087 71.1268 57.1289 70.793H54.083V69.9919H57.1132C57.0399 69.6832 56.8934 69.4328 56.6736 69.2409C56.4538 69.0406 56.1555 68.8946 55.7787 68.8028C55.4123 68.711 54.9622 68.6651 54.4284 68.6651H54.083V67.864H60.583V68.6651H57.6156C57.8564 68.8236 58.0552 69.0114 58.2122 69.2284C58.3692 69.4453 58.4687 69.6999 58.5105 69.9919H60.583V70.793H58.5419C58.4687 71.4022 58.1756 71.8779 57.6627 72.22C57.1603 72.5538 56.4904 72.7666 55.6531 72.8584L58.6518 76.8015H57.0504Z" fill="white"/>
<path fill-rule="evenodd" clip-rule="evenodd" d="M32.9111 65.2119H81.7554C82.4281 65.2119 82.9741 64.6659 82.9741 63.9932C82.9741 63.3204 82.4281 62.7744 81.7554 62.7744H32.9111C32.2384 62.7744 31.6924 63.3204 31.6924 63.9932C31.6924 64.6659 32.2384 65.2119 32.9111 65.2119Z" fill="#3B3B3B"/>
</g>
<defs>
<filter id="filter0_dddd_731_3372" x="20.5737" y="18.114" width="79.5186" height="83.0397" filterUnits="userSpaceOnUse" color-interpolation-filters="sRGB">
<feFlood flood-opacity="0" result="BackgroundImageFix"/>
<feColorMatrix in="SourceAlpha" type="matrix" values="0 0 0 0 0 0 0 0 0 0 0 0 0 0 0 0 0 0 127 0" result="hardAlpha"/>
<feOffset dy="1"/>
<feGaussianBlur stdDeviation="1"/>
<feColorMatrix type="matrix" values="0 0 0 0 0 0 0 0 0 0 0 0 0 0 0 0 0 0 0.1 0"/>
<feBlend mode="normal" in2="BackgroundImageFix" result="effect1_dropShadow_731_3372"/>
<feColorMatrix in="SourceAlpha" type="matrix" values="0 0 0 0 0 0 0 0 0 0 0 0 0 0 0 0 0 0 127 0" result="hardAlpha"/>
<feOffset dx="1" dy="4"/>
<feGaussianBlur stdDeviation="2"/>
<feColorMatrix type="matrix" values="0 0 0 0 0 0 0 0 0 0 0 0 0 0 0 0 0 0 0.09 0"/>
<feBlend mode="normal" in2="effect1_dropShadow_731_3372" result="effect2_dropShadow_731_3372"/>
<feColorMatrix in="SourceAlpha" type="matrix" values="0 0 0 0 0 0 0 0 0 0 0 0 0 0 0 0 0 0 127 0" result="hardAlpha"/>
<feOffset dx="2" dy="9"/>
<feGaussianBlur stdDeviation="2.5"/>
<feColorMatrix type="matrix" values="0 0 0 0 0 0 0 0 0 0 0 0 0 0 0 0 0 0 0.05 0"/>
<feBlend mode="normal" in2="effect2_dropShadow_731_3372" result="effect3_dropShadow_731_3372"/>
<feColorMatrix in="SourceAlpha" type="matrix" values="0 0 0 0 0 0 0 0 0 0 0 0 0 0 0 0 0 0 127 0" result="hardAlpha"/>
<feOffset dx="3" dy="16"/>
<feGaussianBlur stdDeviation="3"/>
<feColorMatrix type="matrix" values="0 0 0 0 0 0 0 0 0 0 0 0 0 0 0 0 0 0 0.01 0"/>
<feBlend mode="normal" in2="effect3_dropShadow_731_3372" result="effect4_dropShadow_731_3372"/>
<feBlend mode="normal" in="SourceGraphic" in2="effect4_dropShadow_731_3372" result="shape"/>
</filter>
<clipPath id="clip0_731_3372">
<rect width="78" height="78" fill="white" transform="translate(18.333 17.489)"/>
</clipPath>
</defs>
</svg>
