<svg width="127" height="114" viewBox="0 0 127 114" fill="none" xmlns="http://www.w3.org/2000/svg">
<g filter="url(#filter0_dddd_731_4084)">
<g clip-path="url(#clip0_731_4084)">
<rect x="3.60156" y="35.0028" width="63.1506" height="63.1506" rx="31.5753" transform="rotate(-18.7101 3.60156 35.0028)" fill="white"/>
<g filter="url(#filter1_dd_731_4084)">
<path d="M61.3661 49.3814C60.9278 48.0873 60.3901 46.8824 59.7696 45.7611L42.5566 51.5907L44.9475 58.65L54.7834 55.3188C55.1324 57.7435 54.4993 60.1124 53.002 62.0621L54.5528 66.6411L60.4594 64.6407C62.8392 60.2931 63.2485 54.9393 61.3661 49.3814Z" fill="#4285F4"/>
</g>
<g filter="url(#filter2_dd_731_4084)">
<path d="M49.7658 73.1518C54.6802 71.4874 58.248 68.4609 60.3173 64.6591L52.8871 62.0811C51.6273 63.726 49.7612 65.0779 47.3122 65.9073C42.5716 67.5128 37.4738 65.6677 34.5844 61.8471L28.5034 63.9066L30.1017 68.6259C35.1128 73.5645 42.6507 75.5615 49.7658 73.1518Z" fill="#34A853"/>
</g>
<g filter="url(#filter3_dd_731_4084)">
<path d="M34.469 61.8348C33.728 60.8387 33.1175 59.7133 32.7013 58.4843C32.285 57.2554 32.0861 55.9906 32.0693 54.7492L30.4331 49.9181L24.3839 51.9669C23.9964 54.9945 24.3081 58.0856 25.2941 60.993C26.3131 64.0018 27.9771 66.6127 30.056 68.7146L34.469 61.8348Z" fill="#FBBC05"/>
</g>
<g filter="url(#filter4_dd_731_4084)">
<path d="M39.9471 43.6592C42.6444 42.7457 45.3774 42.8445 47.8927 44.0046L51.3928 36.9956C47.2157 35.134 42.4456 34.7376 37.4935 36.4147C30.3118 38.847 25.4811 45.033 24.4742 52.0098L32.2104 54.6503C32.197 49.8557 35.162 45.2798 39.9471 43.6592Z" fill="#EA4335"/>
</g>
</g>
</g>
<g clip-path="url(#clip1_731_4084)" filter="url(#filter5_dddd_731_4084)">
<path d="M80.2528 87.6518L79.5393 76.3536C76.585 73.7903 74.3616 70.5766 73.0851 66.8769C69.2067 55.6358 75.2647 43.1956 86.577 39.2927C97.8893 35.3898 110.472 41.3986 114.35 52.6397C118.229 63.8808 112.127 76.6548 100.814 80.5577C97.2568 81.7851 93.4491 81.825 89.8006 81.173L80.2528 87.6518Z" fill="white"/>
<path d="M89.0933 77.2771L89.8564 77.4119C93.0534 78.14 96.4564 78.0805 99.658 76.9759C108.978 73.7603 114.058 63.3297 110.793 53.8672C107.528 44.4047 97.1957 39.6099 87.8043 42.8501C78.413 46.0903 73.4022 56.2583 76.6424 65.6497C77.7716 68.9224 79.8011 71.8049 82.4414 73.9194L83.0892 74.4124L83.5148 80.9533L89.0933 77.2771Z" fill="#55CD6C"/>
<path d="M84.8797 52.1392L83.5034 52.5344C83.0764 52.6817 82.6987 52.9713 82.5123 53.3541C82.0684 54.1442 81.3694 55.5796 81.5757 57.1007C81.8142 59.407 83.4804 61.6982 86.2139 63.6213C88.9475 65.5443 93.9285 68.4435 100.803 68.062C102.991 67.9439 104.434 67.0481 105.445 65.8237C106.22 64.8397 106.516 63.6228 106.362 62.4818L106.231 61.4121C106.204 61.103 105.939 60.7963 105.606 60.7523L100.412 60.2355C100.078 60.1913 99.7467 60.3852 99.6315 60.7435L98.6383 63.6338C98.5451 63.8252 98.3562 63.97 98.1182 63.9725C96.7614 63.9629 92.117 63.6546 88.4386 60.1468C88.2938 59.9579 88.2201 59.7444 88.3134 59.553L89.3581 57.043C89.4268 56.7805 89.3997 56.4714 89.255 56.2824L85.5962 52.3697C85.4513 52.1808 85.1642 52.041 84.8797 52.1392Z" fill="#FEFEFE"/>
</g>
<path d="M85.0159 20.619C85.055 20.4811 84.8644 20.4018 84.7942 20.5267L84.205 21.5739C83.4442 22.9262 81.8558 23.581 80.3631 23.1577L79.2071 22.83C79.0692 22.7909 78.9899 22.9814 79.1148 23.0517L80.162 23.6409C81.5143 24.4017 82.169 25.99 81.7458 27.4828L81.418 28.6388C81.379 28.7766 81.5695 28.8559 81.6398 28.7311L82.229 27.6838C82.9898 26.3316 84.5781 25.6768 86.0709 26.1L87.2269 26.4278C87.3647 26.4669 87.444 26.2763 87.3192 26.2061L86.2719 25.6169C84.9197 24.8561 84.2649 23.2678 84.6881 21.775L85.0159 20.619Z" fill="#146750"/>
<path d="M15.1197 27.5733C15.0512 27.6384 15.1327 27.7475 15.2146 27.7003L15.9013 27.3038C16.788 26.7919 17.91 26.9543 18.6152 27.6966L19.1613 28.2715C19.2264 28.34 19.3355 28.2585 19.2882 28.1767L18.8918 27.49C18.3799 26.6032 18.5423 25.4813 19.2846 24.7761L19.8595 24.23C19.928 24.1649 19.8465 24.0558 19.7646 24.103L19.0779 24.4994C18.1912 25.0113 17.0693 24.8489 16.3641 24.1066L15.818 23.5317C15.7529 23.4632 15.6438 23.5447 15.691 23.6266L16.0874 24.3133C16.5993 25.2 16.4369 26.322 15.6946 27.0272L15.1197 27.5733Z" fill="#5AC6A9"/>
<path d="M66.9322 86.2238C66.8325 86.3186 66.9511 86.4773 67.0702 86.4086L68.0692 85.8318C69.3593 85.0871 70.9916 85.3234 72.0175 86.4033L72.812 87.2397C72.9067 87.3394 73.0655 87.2208 72.9967 87.1016L72.42 86.1026C71.6753 84.8126 71.9116 83.1803 72.9915 82.1544L73.8278 81.3598C73.9275 81.2651 73.8089 81.1064 73.6898 81.1751L72.6908 81.7519C71.4007 82.4966 69.7685 82.2603 68.7425 81.1804L67.948 80.344C67.8533 80.2443 67.6946 80.3629 67.7633 80.482L68.34 81.4811C69.0848 82.7711 68.8485 84.4034 67.7685 85.4293L66.9322 86.2238Z" fill="#5AC6A9"/>
<defs>
<filter id="filter0_dddd_731_4084" x="-8.39844" y="13.7454" width="94.0708" height="96.0707" filterUnits="userSpaceOnUse" color-interpolation-filters="sRGB">
<feFlood flood-opacity="0" result="BackgroundImageFix"/>
<feColorMatrix in="SourceAlpha" type="matrix" values="0 0 0 0 0 0 0 0 0 0 0 0 0 0 0 0 0 0 127 0" result="hardAlpha"/>
<feOffset dy="1"/>
<feGaussianBlur stdDeviation="1"/>
<feColorMatrix type="matrix" values="0 0 0 0 0 0 0 0 0 0 0 0 0 0 0 0 0 0 0.1 0"/>
<feBlend mode="normal" in2="BackgroundImageFix" result="effect1_dropShadow_731_4084"/>
<feColorMatrix in="SourceAlpha" type="matrix" values="0 0 0 0 0 0 0 0 0 0 0 0 0 0 0 0 0 0 127 0" result="hardAlpha"/>
<feOffset dx="-2" dy="2"/>
<feGaussianBlur stdDeviation="1.5"/>
<feColorMatrix type="matrix" values="0 0 0 0 0 0 0 0 0 0 0 0 0 0 0 0 0 0 0.09 0"/>
<feBlend mode="normal" in2="effect1_dropShadow_731_4084" result="effect2_dropShadow_731_4084"/>
<feColorMatrix in="SourceAlpha" type="matrix" values="0 0 0 0 0 0 0 0 0 0 0 0 0 0 0 0 0 0 127 0" result="hardAlpha"/>
<feOffset dx="-4" dy="5"/>
<feGaussianBlur stdDeviation="2"/>
<feColorMatrix type="matrix" values="0 0 0 0 0 0 0 0 0 0 0 0 0 0 0 0 0 0 0.05 0"/>
<feBlend mode="normal" in2="effect2_dropShadow_731_4084" result="effect3_dropShadow_731_4084"/>
<feColorMatrix in="SourceAlpha" type="matrix" values="0 0 0 0 0 0 0 0 0 0 0 0 0 0 0 0 0 0 127 0" result="hardAlpha"/>
<feOffset dx="-7" dy="10"/>
<feGaussianBlur stdDeviation="2.5"/>
<feColorMatrix type="matrix" values="0 0 0 0 0 0 0 0 0 0 0 0 0 0 0 0 0 0 0.01 0"/>
<feBlend mode="normal" in2="effect3_dropShadow_731_4084" result="effect4_dropShadow_731_4084"/>
<feBlend mode="normal" in="SourceGraphic" in2="effect4_dropShadow_731_4084" result="shape"/>
</filter>
<filter id="filter1_dd_731_4084" x="39.5032" y="44.2344" width="26.0991" height="26.9869" filterUnits="userSpaceOnUse" color-interpolation-filters="sRGB">
<feFlood flood-opacity="0" result="BackgroundImageFix"/>
<feColorMatrix in="SourceAlpha" type="matrix" values="0 0 0 0 0 0 0 0 0 0 0 0 0 0 0 0 0 0 127 0" result="hardAlpha"/>
<feOffset dy="1.52672"/>
<feGaussianBlur stdDeviation="1.52672"/>
<feColorMatrix type="matrix" values="0 0 0 0 0 0 0 0 0 0 0 0 0 0 0 0 0 0 0.06 0"/>
<feBlend mode="normal" in2="BackgroundImageFix" result="effect1_dropShadow_731_4084"/>
<feColorMatrix in="SourceAlpha" type="matrix" values="0 0 0 0 0 0 0 0 0 0 0 0 0 0 0 0 0 0 127 0" result="hardAlpha"/>
<feOffset/>
<feGaussianBlur stdDeviation="0.763359"/>
<feColorMatrix type="matrix" values="0 0 0 0 0 0 0 0 0 0 0 0 0 0 0 0 0 0 0.04 0"/>
<feBlend mode="normal" in2="effect1_dropShadow_731_4084" result="effect2_dropShadow_731_4084"/>
<feBlend mode="normal" in="SourceGraphic" in2="effect2_dropShadow_731_4084" result="shape"/>
</filter>
<filter id="filter2_dd_731_4084" x="25.45" y="60.3204" width="37.9208" height="18.4319" filterUnits="userSpaceOnUse" color-interpolation-filters="sRGB">
<feFlood flood-opacity="0" result="BackgroundImageFix"/>
<feColorMatrix in="SourceAlpha" type="matrix" values="0 0 0 0 0 0 0 0 0 0 0 0 0 0 0 0 0 0 127 0" result="hardAlpha"/>
<feOffset dy="1.52672"/>
<feGaussianBlur stdDeviation="1.52672"/>
<feColorMatrix type="matrix" values="0 0 0 0 0 0 0 0 0 0 0 0 0 0 0 0 0 0 0.06 0"/>
<feBlend mode="normal" in2="BackgroundImageFix" result="effect1_dropShadow_731_4084"/>
<feColorMatrix in="SourceAlpha" type="matrix" values="0 0 0 0 0 0 0 0 0 0 0 0 0 0 0 0 0 0 127 0" result="hardAlpha"/>
<feOffset/>
<feGaussianBlur stdDeviation="0.763359"/>
<feColorMatrix type="matrix" values="0 0 0 0 0 0 0 0 0 0 0 0 0 0 0 0 0 0 0.04 0"/>
<feBlend mode="normal" in2="effect1_dropShadow_731_4084" result="effect2_dropShadow_731_4084"/>
<feBlend mode="normal" in="SourceGraphic" in2="effect2_dropShadow_731_4084" result="shape"/>
</filter>
<filter id="filter3_dd_731_4084" x="21.1687" y="48.3914" width="16.3539" height="24.9034" filterUnits="userSpaceOnUse" color-interpolation-filters="sRGB">
<feFlood flood-opacity="0" result="BackgroundImageFix"/>
<feColorMatrix in="SourceAlpha" type="matrix" values="0 0 0 0 0 0 0 0 0 0 0 0 0 0 0 0 0 0 127 0" result="hardAlpha"/>
<feOffset dy="1.52672"/>
<feGaussianBlur stdDeviation="1.52672"/>
<feColorMatrix type="matrix" values="0 0 0 0 0 0 0 0 0 0 0 0 0 0 0 0 0 0 0.06 0"/>
<feBlend mode="normal" in2="BackgroundImageFix" result="effect1_dropShadow_731_4084"/>
<feColorMatrix in="SourceAlpha" type="matrix" values="0 0 0 0 0 0 0 0 0 0 0 0 0 0 0 0 0 0 127 0" result="hardAlpha"/>
<feOffset/>
<feGaussianBlur stdDeviation="0.763359"/>
<feColorMatrix type="matrix" values="0 0 0 0 0 0 0 0 0 0 0 0 0 0 0 0 0 0 0.04 0"/>
<feBlend mode="normal" in2="effect1_dropShadow_731_4084" result="effect2_dropShadow_731_4084"/>
<feBlend mode="normal" in="SourceGraphic" in2="effect2_dropShadow_731_4084" result="shape"/>
</filter>
<filter id="filter4_dd_731_4084" x="21.4207" y="33.8263" width="33.0253" height="25.4041" filterUnits="userSpaceOnUse" color-interpolation-filters="sRGB">
<feFlood flood-opacity="0" result="BackgroundImageFix"/>
<feColorMatrix in="SourceAlpha" type="matrix" values="0 0 0 0 0 0 0 0 0 0 0 0 0 0 0 0 0 0 127 0" result="hardAlpha"/>
<feOffset dy="1.52672"/>
<feGaussianBlur stdDeviation="1.52672"/>
<feColorMatrix type="matrix" values="0 0 0 0 0 0 0 0 0 0 0 0 0 0 0 0 0 0 0.06 0"/>
<feBlend mode="normal" in2="BackgroundImageFix" result="effect1_dropShadow_731_4084"/>
<feColorMatrix in="SourceAlpha" type="matrix" values="0 0 0 0 0 0 0 0 0 0 0 0 0 0 0 0 0 0 127 0" result="hardAlpha"/>
<feOffset/>
<feGaussianBlur stdDeviation="0.763359"/>
<feColorMatrix type="matrix" values="0 0 0 0 0 0 0 0 0 0 0 0 0 0 0 0 0 0 0.04 0"/>
<feBlend mode="normal" in2="effect1_dropShadow_731_4084" result="effect2_dropShadow_731_4084"/>
<feBlend mode="normal" in="SourceGraphic" in2="effect2_dropShadow_731_4084" result="shape"/>
</filter>
<filter id="filter5_dddd_731_4084" x="54.062" y="28.0846" width="74.2715" height="82.2714" filterUnits="userSpaceOnUse" color-interpolation-filters="sRGB">
<feFlood flood-opacity="0" result="BackgroundImageFix"/>
<feColorMatrix in="SourceAlpha" type="matrix" values="0 0 0 0 0 0 0 0 0 0 0 0 0 0 0 0 0 0 127 0" result="hardAlpha"/>
<feOffset dy="1"/>
<feGaussianBlur stdDeviation="1"/>
<feColorMatrix type="matrix" values="0 0 0 0 0 0 0 0 0 0 0 0 0 0 0 0 0 0 0.1 0"/>
<feBlend mode="normal" in2="BackgroundImageFix" result="effect1_dropShadow_731_4084"/>
<feColorMatrix in="SourceAlpha" type="matrix" values="0 0 0 0 0 0 0 0 0 0 0 0 0 0 0 0 0 0 127 0" result="hardAlpha"/>
<feOffset dx="-1" dy="3"/>
<feGaussianBlur stdDeviation="1.5"/>
<feColorMatrix type="matrix" values="0 0 0 0 0 0 0 0 0 0 0 0 0 0 0 0 0 0 0.09 0"/>
<feBlend mode="normal" in2="effect1_dropShadow_731_4084" result="effect2_dropShadow_731_4084"/>
<feColorMatrix in="SourceAlpha" type="matrix" values="0 0 0 0 0 0 0 0 0 0 0 0 0 0 0 0 0 0 127 0" result="hardAlpha"/>
<feOffset dx="-2" dy="7"/>
<feGaussianBlur stdDeviation="2"/>
<feColorMatrix type="matrix" values="0 0 0 0 0 0 0 0 0 0 0 0 0 0 0 0 0 0 0.05 0"/>
<feBlend mode="normal" in2="effect2_dropShadow_731_4084" result="effect3_dropShadow_731_4084"/>
<feColorMatrix in="SourceAlpha" type="matrix" values="0 0 0 0 0 0 0 0 0 0 0 0 0 0 0 0 0 0 127 0" result="hardAlpha"/>
<feOffset dx="-3" dy="12"/>
<feGaussianBlur stdDeviation="2.5"/>
<feColorMatrix type="matrix" values="0 0 0 0 0 0 0 0 0 0 0 0 0 0 0 0 0 0 0.01 0"/>
<feBlend mode="normal" in2="effect3_dropShadow_731_4084" result="effect4_dropShadow_731_4084"/>
<feBlend mode="normal" in="SourceGraphic" in2="effect4_dropShadow_731_4084" result="shape"/>
</filter>
<clipPath id="clip0_731_4084">
<rect x="3.60156" y="35.0028" width="63.1506" height="63.1506" rx="31.5753" transform="rotate(-18.7101 3.60156 35.0028)" fill="white"/>
</clipPath>
<clipPath id="clip1_731_4084">
<rect width="50.5489" height="50.5489" fill="white" transform="translate(62.062 45.5712) rotate(-19.0353)"/>
</clipPath>
</defs>
</svg>
