<svg width="114" height="122" viewBox="0 0 114 122" fill="none" xmlns="http://www.w3.org/2000/svg">
<g filter="url(#filter0_dddd_731_3325)">
<path d="M88.0081 29.6858V95.6939C88.0081 97.3612 87.3458 98.9601 86.1668 100.139C84.9879 101.318 83.3889 101.98 81.7216 101.98H28.2865C26.9263 101.98 25.6028 101.539 24.5146 100.723C24.0835 100.405 23.6976 100.029 23.3673 99.6072C22.485 98.4933 22.0034 97.1148 22 95.6939V29.6858C22 28.0185 22.6623 26.4195 23.8413 25.2406C25.0202 24.0616 26.6192 23.3993 28.2865 23.3993H81.7216C83.3889 23.3993 84.9879 24.0616 86.1668 25.2406C87.3458 26.4195 88.0081 28.0185 88.0081 29.6858Z" fill="#0E7156"/>
</g>
<path d="M81.7217 31.2574V83.1209H72.292C71.4591 83.1233 70.6611 83.4553 70.0722 84.0442C69.4832 84.6332 69.1513 85.4312 69.1488 86.2641V95.6938H29.8582C29.4414 95.6938 29.0417 95.5282 28.7469 95.2335C28.4522 94.9388 28.2866 94.539 28.2866 94.1222V31.2574C28.2866 30.8405 28.4522 30.4408 28.7469 30.146C29.0417 29.8513 29.4414 29.6857 29.8582 29.6857H80.1501C80.5669 29.6857 80.9667 29.8513 81.2614 30.146C81.5562 30.4408 81.7217 30.8405 81.7217 31.2574Z" fill="white"/>
<path d="M81.7214 83.1209L69.1484 95.6939V86.2641C69.1509 85.4312 69.4829 84.6332 70.0718 84.0443C70.6608 83.4553 71.4588 83.1234 72.2917 83.1209H81.7214Z" fill="#D1D3D4"/>
<path d="M81.7214 83.1209V94.1222C81.7214 94.539 81.5558 94.9388 81.2611 95.2335C80.9664 95.5283 80.5666 95.6939 80.1498 95.6939H69.1484L81.7214 83.1209Z" fill="#E6E7E8"/>
<path d="M37.7163 31.2574H72.292V35.9722H37.7163V31.2574Z" fill="#1D7B62"/>
<path d="M70.1546 23.3993C69.0085 22.3885 67.5336 21.8298 66.0055 21.8276H61.2906V17.1128C61.2906 15.4455 60.6283 13.8465 59.4494 12.6676C58.2704 11.4886 56.6714 10.8263 55.0041 10.8263C53.3369 10.8263 51.7379 11.4886 50.5589 12.6676C49.38 13.8465 48.7177 15.4455 48.7177 17.1128V21.8276H44.0028C42.3367 21.8314 40.7398 22.4949 39.5617 23.673C38.3836 24.8512 37.72 26.448 37.7163 28.1141V31.2574H72.292V28.1141C72.2925 27.2213 72.102 26.3386 71.7334 25.5255C71.3647 24.7123 70.8264 23.9873 70.1546 23.3993Z" fill="#05B384"/>
<path d="M53.4326 15.5411H56.5759V18.6844H53.4326V15.5411Z" fill="#05B384"/>
<path d="M69.2247 47.9242C68.9321 47.9242 68.6675 47.8741 68.4311 47.7739C68.1986 47.6737 68.0142 47.5294 67.8779 47.341C67.7416 47.1526 67.6715 46.9302 67.6675 46.6737H68.5693C68.5814 46.846 68.6415 46.9823 68.7497 47.0825C68.8619 47.1827 69.0143 47.2328 69.2067 47.2328C69.4031 47.2328 69.5574 47.1867 69.6696 47.0945C69.7818 46.9983 69.838 46.8741 69.838 46.7218C69.838 46.5975 69.7999 46.4953 69.7237 46.4151C69.6476 46.335 69.5514 46.2728 69.4351 46.2287C69.3229 46.1806 69.1666 46.1285 68.9662 46.0724C68.6936 45.9922 68.4711 45.9141 68.2988 45.8379C68.1304 45.7578 67.9841 45.6395 67.8599 45.4832C67.7396 45.3229 67.6795 45.1104 67.6795 44.8459C67.6795 44.5974 67.7416 44.3809 67.8659 44.1965C67.9901 44.0122 68.1645 43.8719 68.389 43.7757C68.6134 43.6755 68.87 43.6254 69.1586 43.6254C69.5915 43.6254 69.9422 43.7316 70.2107 43.944C70.4833 44.1525 70.6336 44.4451 70.6617 44.8218H69.7357C69.7277 44.6775 69.6656 44.5593 69.5494 44.4671C69.4371 44.3709 69.2868 44.3228 69.0984 44.3228C68.9341 44.3228 68.8018 44.3649 68.7016 44.4491C68.6054 44.5332 68.5573 44.6555 68.5573 44.8158C68.5573 44.9281 68.5934 45.0222 68.6655 45.0984C68.7417 45.1706 68.8339 45.2307 68.9421 45.2788C69.0543 45.3229 69.2107 45.375 69.4111 45.4351C69.6836 45.5153 69.9061 45.5954 70.0785 45.6756C70.2508 45.7558 70.3991 45.876 70.5234 46.0363C70.6476 46.1967 70.7098 46.4071 70.7098 46.6676C70.7098 46.8921 70.6516 47.1005 70.5354 47.2929C70.4192 47.4853 70.2488 47.6396 70.0243 47.7559C69.7999 47.8681 69.5333 47.9242 69.2247 47.9242Z" fill="#5E9888"/>
<path d="M67.1614 43.6855V44.3649H66.0431V47.8822H65.2013V44.3649H64.083V43.6855H67.1614Z" fill="#5E9888"/>
<path d="M63.4737 47.8822H62.6319L60.726 45.0022V47.8822H59.8843V43.6795H60.726L62.6319 46.5655V43.6795H63.4737V47.8822Z" fill="#5E9888"/>
<path d="M57.5258 44.3649V45.4171H58.9387V46.0845H57.5258V47.1968H59.1191V47.8822H56.6841V43.6795H59.1191V44.3649H57.5258Z" fill="#5E9888"/>
<path d="M55.8523 43.6855V47.8822H55.0106V45.1526L53.8862 47.8822H53.2489L52.1186 45.1526V47.8822H51.2769V43.6855H52.2328L53.5676 46.806L54.9023 43.6855H55.8523Z" fill="#5E9888"/>
<path d="M50.7911 43.6855L49.3721 46.4212V47.8822H48.5304V46.4212L47.1055 43.6855H48.0554L48.9573 45.6035L49.8531 43.6855H50.7911Z" fill="#5E9888"/>
<path d="M45.7239 47.0825H44.0525L43.7759 47.8822H42.8921L44.4012 43.6795H45.3812L46.8903 47.8822H46.0005L45.7239 47.0825ZM45.4955 46.4091L44.8882 44.6535L44.281 46.4091H45.4955Z" fill="#5E9888"/>
<path d="M42.553 44.9842C42.553 45.2087 42.4989 45.4191 42.3907 45.6155C42.2864 45.8119 42.1201 45.9703 41.8916 46.0905C41.6672 46.2108 41.3826 46.2709 41.0379 46.2709H40.3344V47.8822H39.4927V43.6855H41.0379C41.3625 43.6855 41.6391 43.7417 41.8676 43.8539C42.096 43.9661 42.2664 44.1204 42.3786 44.3168C42.4949 44.5133 42.553 44.7357 42.553 44.9842ZM41.0018 45.5915C41.2343 45.5915 41.4066 45.5394 41.5189 45.4352C41.6311 45.3269 41.6872 45.1766 41.6872 44.9842C41.6872 44.5754 41.4587 44.371 41.0018 44.371H40.3344V45.5915H41.0018Z" fill="#5E9888"/>
<rect x="36.9585" y="52.0532" width="40" height="3" rx="1" fill="#EFEFEF"/>
<rect x="36.9585" y="59.0532" width="40" height="2" rx="1" fill="#EFEFEF"/>
<rect x="36.9585" y="65.0532" width="40" height="3" rx="1" fill="#EFEFEF"/>
<rect x="36.9585" y="72.0532" width="40" height="8" rx="1" fill="#EFEFEF"/>
<rect x="32.9585" y="52.0532" width="3" height="3" rx="1" fill="#EFEFEF"/>
<rect x="32.9585" y="59.0532" width="3" height="2" rx="1" fill="#EFEFEF"/>
<rect x="32.9585" y="65.0532" width="3" height="3" rx="1" fill="#EFEFEF"/>
<path d="M97.7536 37.716V36.4448C97.7536 36.2038 97.7072 35.965 97.6169 35.7416L95.7247 31.0611C95.5983 30.7482 95.1552 30.7482 95.0288 31.0611L93.1367 35.7415C93.0463 35.9649 93 36.2037 93 36.4447V37.7159L97.7536 37.716Z" fill="#9FACBA"/>
<path d="M97.6172 35.7415L95.725 31.0609C95.5986 30.7481 95.1556 30.7481 95.0291 31.0609L94.2681 32.9436L95.3992 35.7415C95.4895 35.9649 95.5359 36.2037 95.5359 36.4448V37.716H97.754V36.4448C97.754 36.2038 97.7075 35.9649 97.6172 35.7415Z" fill="#8D9CA8"/>
<path d="M97.7538 63.9886V37.5885H93V58.4115C95.048 59.7991 96.7008 61.7271 97.7538 63.9886Z" fill="#FFE177"/>
<path d="M95.5356 37.5885V60.6297C96.43 61.6289 97.1811 62.7589 97.7537 63.9885V37.5885H95.5356Z" fill="#FFD15B"/>
<path d="M97.1984 78.22C102.589 72.8298 102.589 64.0904 97.1983 58.7001C91.8081 53.3098 83.0687 53.3098 77.6784 58.7001C72.2881 64.0904 72.2881 72.8298 77.6784 78.22C83.0687 83.6103 91.8081 83.6103 97.1984 78.22Z" fill="#FE646F"/>
<path d="M92.8204 55.8263C94.6187 58.129 95.6915 61.0338 95.6915 64.1912C95.6915 71.6679 89.6762 77.729 82.2559 77.729C80.3905 77.729 78.6141 77.3457 76.9995 76.6534C79.4596 79.8035 83.2773 81.8263 87.564 81.8263C94.9842 81.8263 101 75.7652 101 68.2885C101 62.6913 97.6283 57.8878 92.8204 55.8263Z" fill="#FD4755"/>
<path d="M94.7553 75.777C98.7964 71.736 98.7963 65.1842 94.7553 61.1432C90.7143 57.1022 84.1626 57.1022 80.1216 61.1432C76.0806 65.1842 76.0806 71.736 80.1216 75.777C84.1626 79.818 90.7143 79.818 94.7553 75.777Z" fill="white"/>
<path d="M87.218 75.4624L83.2251 69.904V69.1629H83.6899C84.4364 69.1629 85.0631 69.1068 85.5702 68.9945C86.0913 68.8822 86.4997 68.6969 86.7955 68.4386C87.0913 68.1804 87.2673 67.8267 87.3237 67.3775H83.2251V66.2995H87.3025C87.2039 65.884 87.0068 65.5472 86.711 65.2889C86.4152 65.0194 86.0138 64.8229 85.5068 64.6994C85.0138 64.5758 84.4082 64.5141 83.6899 64.5141H83.2251V63.4361H91.9715V64.5141H87.9786C88.3025 64.7274 88.5701 64.9801 88.7814 65.272C88.9927 65.564 89.1265 65.9065 89.1828 66.2995H91.9715V67.3775H89.2251C89.1265 68.1972 88.7321 68.8373 88.042 69.2977C87.3659 69.7468 86.4645 70.0332 85.3378 70.1567L89.3729 75.4624H87.218Z" fill="#404040"/>
<path d="M95.8454 62.9669C95.9493 63.6299 96.0038 64.3091 96.0038 65.0011C96.0038 71.7353 90.8978 77.2765 84.3462 77.9656C85.5067 78.4514 86.7804 78.7206 88.1173 78.7206C93.5152 78.7206 97.891 74.3447 97.891 68.9469C97.8911 66.6936 97.1265 64.6201 95.8454 62.9669Z" fill="#F5F8F9"/>
<defs>
<filter id="filter0_dddd_731_3325" x="17" y="22.3993" width="78.0083" height="99.5811" filterUnits="userSpaceOnUse" color-interpolation-filters="sRGB">
<feFlood flood-opacity="0" result="BackgroundImageFix"/>
<feColorMatrix in="SourceAlpha" type="matrix" values="0 0 0 0 0 0 0 0 0 0 0 0 0 0 0 0 0 0 127 0" result="hardAlpha"/>
<feOffset dy="1"/>
<feGaussianBlur stdDeviation="1"/>
<feColorMatrix type="matrix" values="0 0 0 0 0 0 0 0 0 0 0 0 0 0 0 0 0 0 0.1 0"/>
<feBlend mode="normal" in2="BackgroundImageFix" result="effect1_dropShadow_731_3325"/>
<feColorMatrix in="SourceAlpha" type="matrix" values="0 0 0 0 0 0 0 0 0 0 0 0 0 0 0 0 0 0 127 0" result="hardAlpha"/>
<feOffset dy="4"/>
<feGaussianBlur stdDeviation="2"/>
<feColorMatrix type="matrix" values="0 0 0 0 0 0 0 0 0 0 0 0 0 0 0 0 0 0 0.09 0"/>
<feBlend mode="normal" in2="effect1_dropShadow_731_3325" result="effect2_dropShadow_731_3325"/>
<feColorMatrix in="SourceAlpha" type="matrix" values="0 0 0 0 0 0 0 0 0 0 0 0 0 0 0 0 0 0 127 0" result="hardAlpha"/>
<feOffset dx="1" dy="8"/>
<feGaussianBlur stdDeviation="2.5"/>
<feColorMatrix type="matrix" values="0 0 0 0 0 0 0 0 0 0 0 0 0 0 0 0 0 0 0.05 0"/>
<feBlend mode="normal" in2="effect2_dropShadow_731_3325" result="effect3_dropShadow_731_3325"/>
<feColorMatrix in="SourceAlpha" type="matrix" values="0 0 0 0 0 0 0 0 0 0 0 0 0 0 0 0 0 0 127 0" result="hardAlpha"/>
<feOffset dx="1" dy="14"/>
<feGaussianBlur stdDeviation="3"/>
<feColorMatrix type="matrix" values="0 0 0 0 0 0 0 0 0 0 0 0 0 0 0 0 0 0 0.01 0"/>
<feBlend mode="normal" in2="effect3_dropShadow_731_3325" result="effect4_dropShadow_731_3325"/>
<feBlend mode="normal" in="SourceGraphic" in2="effect4_dropShadow_731_3325" result="shape"/>
</filter>
</defs>
</svg>
