<svg width="102" height="102" viewBox="0 0 102 102" fill="none" xmlns="http://www.w3.org/2000/svg">
<g clip-path="url(#clip0_392_5478)">
<path d="M81.7255 90.8474H18.7255C15.6329 90.8474 13.1255 88.34 13.1255 85.2474V36.2474H81.7255V90.8474Z" fill="#ADFFDA"/>
<path d="M24.3255 82.4474V36.2474H21.5255V79.6474H18.7255C15.6329 79.6474 13.1255 82.1549 13.1255 85.2474C13.1296 85.9242 13.2574 86.5948 13.5035 87.2257C14.3614 84.3082 17.0862 82.3422 20.1255 82.4474H24.3255Z" fill="#6EC4AD"/>
<path d="M81.7254 39.0475L29.9254 90.8475H81.7254V39.0475Z" fill="#92E8C1"/>
<path d="M21.5255 79.6475H18.7255C15.6329 79.6475 13.1255 82.1549 13.1255 85.2475V30.6475C13.1255 27.5549 15.6329 25.0475 18.7255 25.0475H21.5255V79.6475Z" fill="#10795C"/>
<path d="M27.1255 43.2474H43.9255V54.4474H27.1255V43.2474Z" fill="#8EFFE0"/>
<path d="M27.1255 68.4474H43.9255V79.6474H27.1255V68.4474Z" fill="#8EFFE0"/>
<path d="M57.9255 43.2474H74.7255V54.4474H57.9255V43.2474Z" fill="#8EFFE0"/>
<path d="M57.9255 68.4474H74.7255V79.6474H57.9255V68.4474Z" fill="#8EFFE0"/>
<path d="M43.9254 47.4474H57.9254V50.2474H43.9254V47.4474Z" fill="#202020"/>
<path d="M64.9254 54.4474H67.7254V68.4474H64.9254V54.4474Z" fill="#202020"/>
<path d="M43.9254 72.6475H57.9254V75.4475H43.9254V72.6475Z" fill="#48ADD9"/>
<path d="M94.3255 36.2475V27.8475H88.1793C87.7808 26.3313 87.1779 24.8759 86.3876 23.5217L90.7414 19.1815L84.7914 13.2315L80.4513 17.5854C79.0971 16.7951 77.6417 16.1922 76.1255 15.7937V9.64746H67.7255V15.7937C66.2093 16.1922 64.7539 16.7951 63.3997 17.5854L59.0596 13.2315L53.1096 19.1815L57.4634 23.5217C56.6732 24.8759 56.0702 26.3313 55.6717 27.8475H49.5255V36.2475H55.6717C56.0702 37.7637 56.6732 39.219 57.4634 40.5732L53.1096 44.9134L57.0573 48.8475L59.0596 50.8497L63.3997 46.5096C64.7539 47.2998 66.2093 47.9027 67.7255 48.3013V54.4475H76.1255V48.3013C77.6417 47.9027 79.0971 47.2998 80.4513 46.5096L84.7914 50.8497L90.7414 44.9134L86.3876 40.5732C87.1779 39.219 87.7808 37.7637 88.1793 36.2475H94.3255ZM67.7255 32.0475C67.7255 29.728 69.6061 27.8475 71.9255 27.8475C74.2449 27.8475 76.1255 29.728 76.1255 32.0475C76.1255 34.3669 74.2449 36.2475 71.9255 36.2475C69.6061 36.2475 67.7255 34.3669 67.7255 32.0475Z" fill="#319668"/>
<path d="M71.9254 44.6474C64.9665 44.6474 59.3254 39.0064 59.3254 32.0474C59.3254 25.0884 64.9665 19.4474 71.9254 19.4474C78.8844 19.4474 84.5254 25.0884 84.5254 32.0474C84.5179 39.003 78.881 44.6399 71.9254 44.6474ZM71.9254 22.2474C66.5127 22.2474 62.1254 26.6347 62.1254 32.0474C62.1254 37.4601 66.5127 41.8474 71.9254 41.8474C77.3381 41.8474 81.7254 37.4601 81.7254 32.0474C81.7193 26.6374 77.3354 22.2535 71.9254 22.2474Z" fill="#F7A116"/>
<path d="M18.7255 92.2475H81.7255C82.4986 92.2475 83.1255 91.6206 83.1255 90.8475V54.4475H80.3255V89.4475H18.7255C16.406 89.4475 14.5255 87.5669 14.5255 85.2475C14.5255 82.928 16.406 81.0475 18.7255 81.0475H21.5255C22.2986 81.0475 22.9255 80.4206 22.9255 79.6475V37.6475H45.3255V34.8475H22.9255V25.0475C22.9255 24.2743 22.2986 23.6475 21.5255 23.6475H18.7255C14.8611 23.6522 11.7302 26.7831 11.7255 30.6475V85.2475C11.7302 89.1118 14.8611 92.2427 18.7255 92.2475ZM14.5255 36.2475V30.6475C14.5255 28.328 16.406 26.4475 18.7255 26.4475H20.1255V78.2475H18.7255C17.2106 78.2454 15.7361 78.7369 14.5255 79.6475V36.2475Z" fill="#10412B"/>
<path d="M43.9255 41.8474H27.1255C26.3523 41.8474 25.7255 42.4743 25.7255 43.2474V54.4474C25.7255 55.2206 26.3523 55.8474 27.1255 55.8474H43.9255C44.6986 55.8474 45.3255 55.2206 45.3255 54.4474V50.2474H50.9255V47.4474H45.3255V43.2474C45.3255 42.4743 44.6986 41.8474 43.9255 41.8474ZM42.5255 53.0474H28.5255V44.6474H42.5255V53.0474Z" fill="#10412B"/>
<path d="M57.9255 81.0475H74.7255C75.4986 81.0475 76.1255 80.4206 76.1255 79.6475V68.4475C76.1255 67.6743 75.4986 67.0475 74.7255 67.0475H67.7255V58.6475H64.9255V67.0475H57.9255C57.1523 67.0475 56.5255 67.6743 56.5255 68.4475V72.6475H45.3255V68.4475C45.3255 67.6743 44.6986 67.0475 43.9255 67.0475H27.1255C26.3523 67.0475 25.7255 67.6743 25.7255 68.4475V79.6475C25.7255 80.4206 26.3523 81.0475 27.1255 81.0475H43.9255C44.6986 81.0475 45.3255 80.4206 45.3255 79.6475V75.4475H56.5255V79.6475C56.5255 80.4206 57.1523 81.0475 57.9255 81.0475ZM59.3255 69.8475H73.3255V78.2475H59.3255V69.8475ZM42.5255 78.2475H28.5255V69.8475H42.5255V78.2475Z" fill="#10412B"/>
<path d="M71.9254 19.4474C64.9665 19.4474 59.3254 25.0884 59.3254 32.0474C59.3254 39.0064 64.9665 44.6474 71.9254 44.6474C78.8844 44.6474 84.5254 39.0064 84.5254 32.0474C84.5179 25.0918 78.881 19.4549 71.9254 19.4474ZM71.9254 41.8474C66.5127 41.8474 62.1254 37.4601 62.1254 32.0474C62.1254 26.6347 66.5127 22.2474 71.9254 22.2474C77.3381 22.2474 81.7254 26.6347 81.7254 32.0474C81.7193 37.4573 77.3354 41.8412 71.9254 41.8474Z" fill="#4BB886"/>
<path d="M94.3255 37.6474C95.0986 37.6474 95.7255 37.0206 95.7255 36.2474V27.8474C95.7255 27.0743 95.0986 26.4474 94.3255 26.4474H89.2252C88.9265 25.5287 88.556 24.6345 88.1178 23.7732L91.7299 20.1741C91.9931 19.9116 92.1414 19.5548 92.1414 19.1829C92.1414 18.811 91.9931 18.4542 91.7299 18.1917L85.7854 12.2417C85.5229 11.9792 85.1667 11.8315 84.7955 11.8315C84.4243 11.8322 84.0682 11.9799 83.8057 12.243L80.1997 15.8552C79.3384 15.417 78.4442 15.0471 77.5255 14.7477V9.64744C77.5255 8.87429 76.8986 8.24744 76.1255 8.24744H67.7255C66.9523 8.24744 66.3255 8.87429 66.3255 9.64744V14.7477C65.4067 15.0471 64.5126 15.417 63.6513 15.8552L60.0508 12.243C59.7883 11.9799 59.4321 11.8322 59.0609 11.8315C58.6897 11.8315 58.3336 11.9792 58.0711 12.2417L52.1197 18.1876C51.8565 18.4501 51.7082 18.8069 51.7082 19.1788C51.7082 19.5507 51.8565 19.9075 52.1197 20.17L55.7318 23.7691C55.2937 24.6318 54.9238 25.5273 54.6258 26.4474H49.5255C48.7523 26.4474 48.1255 27.0743 48.1255 27.8474V36.2474C48.1255 37.0206 48.7523 37.6474 49.5255 37.6474H54.6258C54.9245 38.5662 55.295 39.4603 55.7332 40.3217L52.1211 43.9208C51.8572 44.1833 51.7089 44.5408 51.7089 44.9127C51.7089 45.2852 51.8572 45.6421 52.1211 45.9046L58.0656 51.8395C58.6125 52.3857 59.4984 52.3857 60.0453 51.8395L63.6458 48.2397C64.5092 48.6779 65.4054 49.0477 66.3255 49.3471V54.4474C66.3255 55.2206 66.9523 55.8474 67.7255 55.8474H76.1255C76.8986 55.8474 77.5255 55.2206 77.5255 54.4474V49.3471C78.4449 49.0477 79.3391 48.6779 80.2011 48.2397L83.8016 51.8395C84.3484 52.385 85.233 52.385 85.7799 51.8395L91.7299 45.9032C91.9938 45.6407 92.1421 45.2839 92.1421 44.9113C92.1421 44.5387 91.9938 44.1819 91.7299 43.9194L88.1178 40.3203C88.556 39.4596 88.9265 38.5655 89.2252 37.6474H94.3255ZM86.8272 35.8906C86.4587 37.2845 85.9043 38.6222 85.1776 39.8678C84.857 40.418 84.948 41.1153 85.3991 41.5644L88.759 44.9134L84.7928 48.8714L81.4452 45.5197C80.9961 45.0699 80.2995 44.9797 79.7499 45.2996C78.5051 46.0262 77.1666 46.5806 75.7728 46.9477C75.1562 47.1084 74.7262 47.6648 74.7255 48.3012V53.0474H69.1255V48.3012C69.1255 47.6655 68.6969 47.1097 68.0823 46.9477C66.6885 46.5806 65.35 46.0262 64.1052 45.2996C63.5556 44.9797 62.859 45.0699 62.4099 45.5197L59.0596 48.87L55.0934 44.9134L58.4532 41.5644C58.9044 41.1153 58.9953 40.418 58.6747 39.8678C57.948 38.6222 57.3937 37.2845 57.0252 35.8906C56.8632 35.2761 56.3074 34.8474 55.6717 34.8474H50.9255V29.2474H55.6717C56.3067 29.2468 56.8618 28.8188 57.0238 28.2043C57.3923 26.8104 57.9467 25.4726 58.6733 24.2271C58.9939 23.6768 58.903 22.9796 58.4519 22.5304L55.092 19.1802L59.0596 15.2126L62.4099 18.5724C62.859 19.0236 63.5563 19.1145 64.1065 18.7939C65.3514 18.0673 66.6898 17.5129 68.0837 17.1458C68.6976 16.9831 69.1248 16.428 69.1255 15.7936V11.0474H74.7255V15.7936C74.7255 16.4294 75.1541 16.9851 75.7687 17.1471C77.1625 17.5142 78.501 18.0686 79.7458 18.7953C80.2968 19.1173 80.9954 19.0263 81.4452 18.5738L84.7955 15.2139L88.7631 19.1815L85.4032 22.5318C84.9521 22.9809 84.8611 23.6782 85.1824 24.2285C85.9084 25.474 86.4628 26.8118 86.8313 28.2056C86.9933 28.8181 87.5463 29.2454 88.1793 29.2474H92.9255V34.8474H88.1793C87.5442 34.8481 86.9892 35.2761 86.8272 35.8906Z" fill="#10412B"/>
<path d="M71.9254 26.4474C68.8329 26.4474 66.3254 28.9548 66.3254 32.0474C66.3254 35.14 68.8329 37.6474 71.9254 37.6474C75.018 37.6474 77.5254 35.14 77.5254 32.0474C77.5254 28.9548 75.018 26.4474 71.9254 26.4474ZM71.9254 34.8474C70.3792 34.8474 69.1254 33.5937 69.1254 32.0474C69.1254 30.5011 70.3792 29.2474 71.9254 29.2474C73.4717 29.2474 74.7254 30.5011 74.7254 32.0474C74.7254 33.5937 73.4717 34.8474 71.9254 34.8474Z" fill="#10412B"/>
<rect x="61.9143" y="28.9641" width="15.0551" height="15.055" rx="7.52748" transform="rotate(-30 61.9143 28.9641)" fill="white"/>
<path fill-rule="evenodd" clip-rule="evenodd" d="M74.0448 27.4264C74.0534 27.4163 74.0618 27.4061 74.07 27.3956C74.4103 26.963 74.3321 26.3408 73.8953 26.0059C73.4638 25.675 72.8437 25.7483 72.5007 26.1673L72.4996 26.1665L69.427 30.0631C69.0696 30.3606 68.6593 30.3327 68.3363 30.2141L70.3796 31.7811C70.6222 31.7368 70.9099 31.4228 71.0402 31.2457L74.0448 27.4264ZM67.9336 29.9968L67.934 29.9963L67.8917 29.9638C67.9048 29.9746 67.9188 29.9856 67.9336 29.9968Z" fill="url(#paint0_linear_392_5478)"/>
<path fill-rule="evenodd" clip-rule="evenodd" d="M76.4746 33.5474C76.4819 33.5533 76.4892 33.559 76.4966 33.5647C76.9334 33.8997 77.5633 33.8205 77.9036 33.3879C78.2399 32.9604 78.1675 32.3476 77.744 32.01L77.7446 32.0093L73.8105 28.9852C73.5104 28.6329 73.54 28.2274 73.6609 27.9079L72.0688 29.9317C72.1128 30.1713 72.4297 30.4546 72.6087 30.5828L76.4746 33.5474ZM73.8821 27.5094L73.8826 27.5098L73.9156 27.4678C73.9046 27.4808 73.8934 27.4946 73.8821 27.5094Z" fill="url(#paint1_linear_392_5478)"/>
<path fill-rule="evenodd" clip-rule="evenodd" d="M67.9292 29.9005C67.9191 29.892 67.9087 29.8838 67.8981 29.8757C67.4614 29.5407 66.8314 29.6199 66.4911 30.0525C66.1549 30.4799 66.2272 31.0925 66.6504 31.4301L66.6495 31.4312L70.5837 34.4553C70.8838 34.8075 70.8542 35.2131 70.7333 35.5326L72.3253 33.5088C72.2813 33.2692 71.9644 32.9859 71.7855 32.8577L67.9292 29.9005ZM70.5121 35.9311L70.5116 35.9307L70.4786 35.9726C70.4896 35.9597 70.5007 35.9458 70.5121 35.9311Z" fill="url(#paint2_linear_392_5478)"/>
<path fill-rule="evenodd" clip-rule="evenodd" d="M70.3645 35.9994C70.3521 36.0134 70.3401 36.0279 70.3284 36.0427C69.9881 36.4753 70.0663 37.0975 70.5031 37.4324C70.9347 37.7634 71.555 37.69 71.8979 37.2707L71.8996 37.272L74.9722 33.3754C75.3296 33.0779 75.74 33.1058 76.063 33.2244L74.0197 31.6574C73.777 31.7016 73.4893 32.0156 73.3591 32.1928L70.3645 35.9994ZM76.4656 33.4417L76.4652 33.4422L76.5075 33.4746C76.4945 33.4639 76.4805 33.4528 76.4656 33.4417Z" fill="url(#paint3_linear_392_5478)"/>
</g>
<defs>
<linearGradient id="paint0_linear_392_5478" x1="73.3895" y1="25.618" x2="69.2547" y2="31.0099" gradientUnits="userSpaceOnUse">
<stop stop-color="#78DBF8"/>
<stop offset="0.690625" stop-color="#50BEF2"/>
<stop offset="1" stop-color="#42B4F0"/>
</linearGradient>
<linearGradient id="paint1_linear_392_5478" x1="78.2975" y1="32.8873" x2="72.9566" y2="28.6857" gradientUnits="userSpaceOnUse">
<stop stop-color="#FAE267"/>
<stop offset="0.651042" stop-color="#F7D14E"/>
<stop offset="1" stop-color="#F6C841"/>
</linearGradient>
<linearGradient id="paint2_linear_392_5478" x1="66.097" y1="30.5534" x2="71.4376" y2="34.7548" gradientUnits="userSpaceOnUse">
<stop stop-color="#3FB3B7"/>
<stop offset="0.690625" stop-color="#309599"/>
<stop offset="1" stop-color="#278589"/>
</linearGradient>
<linearGradient id="paint3_linear_392_5478" x1="71.0092" y1="37.8206" x2="75.1443" y2="32.4283" gradientUnits="userSpaceOnUse">
<stop stop-color="#E95F45"/>
<stop offset="0.739583" stop-color="#D83F2E"/>
<stop offset="1" stop-color="#D23426"/>
</linearGradient>
<clipPath id="clip0_392_5478">
<rect width="84" height="84" fill="white" transform="translate(11.7255 8.24744)"/>
</clipPath>
</defs>
</svg>
