<svg width="114" height="114" viewBox="0 0 114 114" fill="none" xmlns="http://www.w3.org/2000/svg">
<path d="M93.6352 67.2947C93.4874 67.3236 93.3412 67.3373 93.1949 67.3373C92.1239 67.3373 91.1687 66.5802 90.9554 65.4894C90.1297 61.2603 86.3958 58.1906 82.0769 58.1906H62.1274C60.866 58.1906 59.8423 57.1669 59.8423 55.9055C59.8423 54.6441 60.866 53.6203 62.1274 53.6203H82.0769C88.5774 53.6203 94.1973 58.2439 95.4404 64.615C95.6827 65.8534 94.8737 67.0523 93.6352 67.2947Z" fill="#F0FFED"/>
<path d="M93.635 67.2947C93.4872 67.3236 93.341 67.3373 93.1947 67.3373C92.1238 67.3373 91.1686 66.5802 90.9553 65.4894C90.1296 61.2603 86.3956 58.1906 82.0767 58.1906H67.6665V53.6203H82.0767C88.5772 53.6203 94.1972 58.2439 95.4403 64.615C95.6825 65.8534 94.8736 67.0523 93.635 67.2947Z" fill="#05B384" fill-opacity="0.4"/>
<path d="M101.134 22.2771L103.965 18.3163C104.359 17.7655 104.412 17.0411 104.102 16.4384C103.793 15.8358 103.172 15.4573 102.494 15.4573H89.8343L88.9766 17.8418V28.7763H102.494C103.185 28.7763 103.816 28.3834 104.119 27.7626C104.422 27.1419 104.346 26.403 103.922 25.8582L101.134 22.2771Z" fill="#05B384"/>
<path d="M63.0962 85.6124H55.5415C54.2795 85.6124 53.2563 84.5893 53.2563 83.3273C53.2563 82.0653 54.2795 81.0421 55.5415 81.0421H63.0962C64.3582 81.0421 65.3814 82.0653 65.3814 83.3273C65.3814 84.5893 64.3582 85.6124 63.0962 85.6124Z" fill="#05B384" fill-opacity="0.4"/>
<path d="M82.0767 85.6125H72.2368C70.9748 85.6125 69.9517 84.5893 69.9517 83.3273C69.9517 82.0653 70.9748 81.0421 72.2368 81.0421H82.0767C86.3956 81.0421 90.1293 77.9723 90.955 73.7428C91.1968 72.504 92.3965 71.6957 93.6356 71.9376C94.8743 72.1794 95.6825 73.3796 95.4406 74.6183C94.197 80.9888 88.5767 85.6125 82.0767 85.6125Z" fill="#05B384" fill-opacity="0.4"/>
<path d="M77.4333 30.6531H72.2368C70.9748 30.6531 69.9517 29.6299 69.9517 28.3679C69.9517 27.1059 70.9748 26.0828 72.2368 26.0828H77.4333C78.6953 26.0828 79.7184 27.1059 79.7184 28.3679C79.7184 29.6299 78.6953 30.6531 77.4333 30.6531Z" fill="white"/>
<path d="M52.9897 58.1907H51.4282C43.9192 58.1907 37.8101 52.0817 37.8101 44.5727V39.7008C37.8101 32.1917 43.9192 26.0828 51.4282 26.0828H63.0962C64.3582 26.0828 65.3814 27.1059 65.3814 28.3679C65.3814 29.6299 64.3582 30.6531 63.0962 30.6531H51.4282C46.4393 30.6531 42.3804 34.7118 42.3804 39.7008V44.5727C42.3804 49.5617 46.4393 53.6204 51.4282 53.6204H52.9897C54.2518 53.6204 55.2749 54.6436 55.2749 55.9056C55.2749 57.1676 54.2518 58.1907 52.9897 58.1907Z" fill="#F0FFED"/>
<path d="M56.4393 61.4637C59.3764 61.4637 61.7575 59.0827 61.7575 56.1455C61.7575 53.2084 59.3764 50.8273 56.4393 50.8273C53.5021 50.8273 51.1211 53.2084 51.1211 56.1455C51.1211 59.0827 53.5021 61.4637 56.4393 61.4637Z" fill="#05B384"/>
<path d="M61.7576 56.1455C61.7576 59.0788 59.3715 61.4637 56.4395 61.4637V50.8273C59.3715 50.8273 61.7576 53.2134 61.7576 56.1455Z" fill="#289175"/>
<path d="M94.2576 74.4637C97.1948 74.4637 99.5758 72.0827 99.5758 69.1455C99.5758 66.2084 97.1948 63.8273 94.2576 63.8273C91.3205 63.8273 88.9395 66.2084 88.9395 69.1455C88.9395 72.0827 91.3205 74.4637 94.2576 74.4637Z" fill="#05B384"/>
<path d="M99.5755 69.1455C99.5755 72.0788 97.1894 74.4637 94.2573 74.4637V63.8273C97.1894 63.8273 99.5755 66.2134 99.5755 69.1455Z" fill="#289175"/>
<path d="M68.2576 33.1001C71.1948 33.1001 73.5758 30.7191 73.5758 27.7819C73.5758 24.8448 71.1948 22.4637 68.2576 22.4637C65.3205 22.4637 62.9395 24.8448 62.9395 27.7819C62.9395 30.7191 65.3205 33.1001 68.2576 33.1001Z" fill="#05B384"/>
<path d="M73.5755 27.7819C73.5755 30.7152 71.1894 33.1001 68.2573 33.1001V22.4637C71.1894 22.4637 73.5755 24.8498 73.5755 27.7819Z" fill="#289175"/>
<path d="M91.2152 36.9073H89.8348V15.4573H88.0268C87.0283 15.4573 86.2188 16.2668 86.2188 17.2653V36.9073H84.8383C83.8398 36.9073 83.0303 37.7168 83.0303 38.7153C83.0303 39.7138 83.8398 40.5234 84.8383 40.5234H91.2152C92.2137 40.5234 93.0232 39.7138 93.0232 38.7153C93.0232 37.7168 92.2137 36.9073 91.2152 36.9073Z" fill="#0A3C25"/>
<path d="M67.0755 88.6455C70.0127 88.6455 72.3937 86.2645 72.3937 83.3273C72.3937 80.3902 70.0127 78.0092 67.0755 78.0092C64.1384 78.0092 61.7573 80.3902 61.7573 83.3273C61.7573 86.2645 64.1384 88.6455 67.0755 88.6455Z" fill="#05B384"/>
<path d="M72.3939 83.3273C72.3939 86.2606 70.0078 88.6455 67.0757 88.6455V78.0092C70.0078 78.0092 72.3939 80.3952 72.3939 83.3273Z" fill="#289175"/>
<g filter="url(#filter0_dddd_731_5373)">
<path d="M43.4857 60.9594H41.8656C41.8656 60.3607 41.3803 59.8751 40.7813 59.8751H21.9217C21.3229 59.8751 20.8374 60.3605 20.8374 60.9594V89.7778C20.8374 90.3767 21.3229 90.8621 21.9217 90.8621C42.4799 90.8621 40.8776 90.9254 41.2316 90.7633C41.506 90.6377 41.7187 90.4012 41.8126 90.1112H43.4857C43.4857 89.9031 43.4857 61.3658 43.4857 60.9594Z" fill="#0EAD82"/>
<path d="M43.0354 59.8751H40.7812C41.3801 59.8751 41.8656 60.3605 41.8656 60.9594V89.7778C41.8656 90.3767 41.3801 90.8621 40.7812 90.8621H43.0354C43.6342 90.8621 44.1197 90.3767 44.1197 89.7778V60.9594C44.1197 60.3605 43.6342 59.8751 43.0354 59.8751Z" fill="#0C7256"/>
<path d="M44.1192 67.3032L39.1108 62.2948H24.0325C23.2048 62.2948 22.5337 62.9659 22.5337 63.7936V90.5929C22.5337 90.685 22.5432 90.7747 22.5591 90.8622H43.0349C43.6338 90.8622 44.1192 90.3767 44.1192 89.7779V67.3032Z" fill="#088966"/>
<path d="M45.8956 67.5823L43.3543 65.9955L41.1602 62.2948H26.0818C25.2541 62.2948 24.583 62.9659 24.583 63.7936V90.5929C24.583 91.4206 25.2541 92.0917 26.0818 92.0917H45.8665C45.8764 92.0917 45.8859 92.0904 45.8956 92.0902V67.5823Z" fill="#B4FFDB"/>
<path d="M47.3657 68.5L45.1116 67.0926V90.5929C45.1116 91.4207 44.4405 92.0918 43.6128 92.0918H45.8669C46.6946 92.0918 47.3657 91.4207 47.3657 90.5929V68.5H47.3657Z" fill="#86FFC5"/>
<path d="M42.659 68.5H47.3654L41.1602 62.2948V67.0012C41.1602 67.8289 41.8312 68.5 42.659 68.5Z" fill="#27D6A6"/>
<path d="M42.7966 69.9053H27.2087C26.9092 69.9053 26.6665 69.6625 26.6665 69.3631C26.6665 69.0637 26.9092 68.821 27.2087 68.821H42.7966C43.0961 68.821 43.3388 69.0637 43.3388 69.3631C43.3388 69.6625 43.0961 69.9053 42.7966 69.9053Z" fill="#27D6A6" fill-opacity="0.17"/>
<path d="M42.7966 73.4923H27.2087C26.9092 73.4923 26.6665 73.2496 26.6665 72.9502C26.6665 72.6508 26.9092 72.408 27.2087 72.408H42.7966C43.0961 72.408 43.3388 72.6508 43.3388 72.9502C43.3388 73.2496 43.0961 73.4923 42.7966 73.4923Z" fill="#27D6A6" fill-opacity="0.17"/>
<path d="M49.6762 77.8209H48.5012C48.2496 77.3859 47.7793 77.0943 47.2491 77.0943C46.5054 77.0943 30.094 77.0943 29.0478 77.0943L27.1445 73.9452H25.9908C25.7881 73.6743 25.468 73.5102 25.1229 73.5102H18.7801C18.1813 73.5102 17.6958 73.9957 17.6958 74.5945V94.321C17.6958 95.1195 18.3431 95.7667 19.1416 95.7667H47.2491C47.4879 95.7667 47.7306 95.7049 47.9453 95.5862H47.9481C48.1303 95.4853 48.2879 95.3458 48.4112 95.1794H49.6761L49.6762 77.8209Z" fill="#208368"/>
<path d="M26.0838 74.0918L27.6548 77.0943H29.9089L28.3379 74.0918C28.1508 73.7342 27.7807 73.5102 27.3771 73.5102H25.123C25.5265 73.5102 25.8967 73.7342 26.0838 74.0918Z" fill="#0EAD82"/>
<path d="M49.5035 77.0942H47.2495C48.048 77.0942 48.6953 77.7416 48.6953 78.54V94.321C48.6953 95.1195 48.048 95.7667 47.2495 95.7667H49.5035C50.3021 95.7667 50.9493 95.1194 50.9493 94.321V78.5401C50.9493 77.7416 50.302 77.0942 49.5035 77.0942Z" fill="#0A6149"/>
</g>
<defs>
<filter id="filter0_dddd_731_5373" x="16.6958" y="58.8751" width="41.2534" height="45.8917" filterUnits="userSpaceOnUse" color-interpolation-filters="sRGB">
<feFlood flood-opacity="0" result="BackgroundImageFix"/>
<feColorMatrix in="SourceAlpha" type="matrix" values="0 0 0 0 0 0 0 0 0 0 0 0 0 0 0 0 0 0 127 0" result="hardAlpha"/>
<feOffset/>
<feGaussianBlur stdDeviation="0.5"/>
<feColorMatrix type="matrix" values="0 0 0 0 0 0 0 0 0 0.180392 0 0 0 0 0.0941176 0 0 0 0.1 0"/>
<feBlend mode="normal" in2="BackgroundImageFix" result="effect1_dropShadow_731_5373"/>
<feColorMatrix in="SourceAlpha" type="matrix" values="0 0 0 0 0 0 0 0 0 0 0 0 0 0 0 0 0 0 127 0" result="hardAlpha"/>
<feOffset dx="1" dy="2"/>
<feGaussianBlur stdDeviation="1"/>
<feColorMatrix type="matrix" values="0 0 0 0 0 0 0 0 0 0.180392 0 0 0 0 0.0941176 0 0 0 0.09 0"/>
<feBlend mode="normal" in2="effect1_dropShadow_731_5373" result="effect2_dropShadow_731_5373"/>
<feColorMatrix in="SourceAlpha" type="matrix" values="0 0 0 0 0 0 0 0 0 0 0 0 0 0 0 0 0 0 127 0" result="hardAlpha"/>
<feOffset dx="2" dy="3"/>
<feGaussianBlur stdDeviation="1.5"/>
<feColorMatrix type="matrix" values="0 0 0 0 0 0 0 0 0 0.180392 0 0 0 0 0.0941176 0 0 0 0.05 0"/>
<feBlend mode="normal" in2="effect2_dropShadow_731_5373" result="effect3_dropShadow_731_5373"/>
<feColorMatrix in="SourceAlpha" type="matrix" values="0 0 0 0 0 0 0 0 0 0 0 0 0 0 0 0 0 0 127 0" result="hardAlpha"/>
<feOffset dx="4" dy="6"/>
<feGaussianBlur stdDeviation="1.5"/>
<feColorMatrix type="matrix" values="0 0 0 0 0 0 0 0 0 0.180392 0 0 0 0 0.0941176 0 0 0 0.01 0"/>
<feBlend mode="normal" in2="effect3_dropShadow_731_5373" result="effect4_dropShadow_731_5373"/>
<feBlend mode="normal" in="SourceGraphic" in2="effect4_dropShadow_731_5373" result="shape"/>
</filter>
</defs>
</svg>
