<svg width="113" height="114" viewBox="0 0 113 114" fill="none" xmlns="http://www.w3.org/2000/svg">
<g clip-path="url(#clip0_731_5433)" filter="url(#filter0_dddd_731_5433)">
<path d="M49.8226 17.1819C49.6733 19.7215 49.5017 22.6357 49.3524 25.1753C45.7494 26.0052 42.2753 27.4449 39.1387 29.4069C37.2372 27.7167 35.0548 25.7766 33.1534 24.0866C31.9547 25.2852 24.4449 32.7952 23.2382 34.0018C24.9284 35.9032 26.8683 38.0856 28.5585 39.987C26.5976 43.1216 25.1573 46.5955 24.3269 50.2008C21.7873 50.3503 18.8732 50.5216 16.3335 50.6709V64.693C18.8731 64.8423 21.7872 65.014 24.3269 65.1633C25.1568 68.7663 26.5967 72.2404 28.5585 75.3769C26.8683 77.2783 24.9282 79.4609 23.2382 81.3623C24.4368 82.561 31.9468 90.0709 33.1534 91.2775C35.0548 89.5873 37.2374 87.6473 39.1388 85.9572C42.2733 87.9181 45.7478 89.3586 49.3524 90.1888C49.5017 92.7284 49.6733 95.6426 49.8226 98.1822H56.8337L59.216 57.6822L56.8337 17.1819C51.5302 17.1819 55.126 17.1819 49.8226 17.1819Z" fill="#0A617D"/>
<path d="M64.3147 90.1885C67.9175 89.3586 71.3922 87.9187 74.5283 85.9569C76.4298 87.6471 78.6123 89.5872 80.5138 91.2772C81.7124 90.0786 89.2222 82.5686 90.429 81.362C88.7388 79.4606 86.7987 77.278 85.1087 75.3766C87.0694 72.2422 88.5099 68.7678 89.3402 65.163C91.8798 65.0137 94.7941 64.8421 97.3337 64.6927C97.3337 62.9974 97.3337 52.377 97.3337 50.6706C94.7941 50.5213 91.8798 50.3498 89.3402 50.2005C88.5104 46.5976 87.0705 43.1229 85.1087 39.9867C86.7989 38.0853 88.7388 35.9029 90.429 34.0015C89.2303 32.8028 81.7204 25.293 80.5138 24.0863C78.6123 25.7765 76.4298 27.7165 74.5283 29.4065C71.3938 27.4459 67.92 26.0053 64.3147 25.175C64.1653 22.6354 63.9939 19.7213 63.8444 17.1816C58.5412 17.1819 62.1369 17.1819 56.8335 17.1819V98.1819H63.8446C63.9939 95.6423 64.1654 92.7281 64.3147 90.1885Z" fill="#08475E"/>
<path d="M33.0103 57.6819C33.0103 70.8177 43.697 81.5055 56.8338 81.5055L59.2161 57.6819L56.8338 33.8584C43.6978 33.8584 33.0103 44.5452 33.0103 57.6819Z" fill="#42E0B6"/>
<path d="M80.657 57.6819C80.657 44.546 69.9703 33.8584 56.8335 33.8584V81.5055C69.9693 81.5055 80.657 70.8185 80.657 57.6819Z" fill="#05B384"/>
</g>
<g clip-path="url(#clip1_731_5433)">
<path fill-rule="evenodd" clip-rule="evenodd" d="M56.8333 51.8726L69.2453 56.6987V71.0308L56.8333 75.8569L44.4214 71.0308V56.6987L56.8333 51.8726Z" fill="#D18242"/>
<path fill-rule="evenodd" clip-rule="evenodd" d="M56.8335 51.8726L69.2455 56.6987V71.0308L56.8335 75.8569V51.8726Z" fill="#E8A477"/>
<path fill-rule="evenodd" clip-rule="evenodd" d="M56.8335 61.5098L54.0105 66.3994C54.0105 66.3994 49.8688 64.789 41.5854 61.5682L44.4084 56.6785L56.8335 61.5098Z" fill="#FFC08F"/>
<path fill-rule="evenodd" clip-rule="evenodd" d="M56.8335 61.5098L59.6565 66.3994C59.6565 66.3994 63.7982 64.789 72.0815 61.5682L69.2586 56.6785L56.8335 61.5098Z" fill="#FFC08F"/>
<path fill-rule="evenodd" clip-rule="evenodd" d="M69.226 56.6911L56.8335 51.8726L44.4409 56.6911L56.8335 61.5098L69.226 56.6911Z" fill="#9B5D2B"/>
<path fill-rule="evenodd" clip-rule="evenodd" d="M69.226 56.6911L56.8335 51.8726V61.5098L69.226 56.6911Z" fill="#824E2B"/>
<path fill-rule="evenodd" clip-rule="evenodd" d="M56.8323 58.2481C60.3429 58.2481 63.2062 55.3848 63.2062 51.8742C63.2062 48.3637 60.3429 45.5004 56.8323 45.5004C53.3217 45.5004 50.4585 48.3637 50.4585 51.8742C50.4585 55.3848 53.3217 58.2481 56.8323 58.2481Z" fill="white"/>
<path fill-rule="evenodd" clip-rule="evenodd" d="M59.2458 48.9676C59.6067 48.6068 60.1916 48.6068 60.5525 48.9676C60.9133 49.3283 60.9133 49.9134 60.5525 50.2741L56.0457 54.781C55.6371 55.1896 54.962 55.1253 54.6341 54.6557L52.738 52.2695C52.421 51.8708 52.4873 51.2906 52.8859 50.9737C53.2847 50.6567 53.8648 50.723 54.1818 51.1217L55.4703 52.7432L59.2458 48.9676Z" fill="#00A578"/>
<path fill-rule="evenodd" clip-rule="evenodd" d="M68.4697 51.4482C68.7889 51.4482 69.0478 51.707 69.0478 52.0264C69.0478 52.3456 68.7889 52.6044 68.4697 52.6044H65.7619C65.4427 52.6044 65.1838 52.3456 65.1838 52.0264C65.1838 51.707 65.4427 51.4482 65.7619 51.4482H68.4697ZM56.2543 40.085C56.2543 39.7657 56.5132 39.5068 56.8324 39.5068C57.1518 39.5068 57.4106 39.7657 57.4106 40.085V42.7927C57.4106 43.112 57.1518 43.3708 56.8324 43.3708C56.5132 43.3708 56.2543 43.112 56.2543 42.7927V40.085ZM50.4185 41.8753C50.2601 41.5996 50.3551 41.2477 50.6308 41.0894C50.9064 40.931 51.2584 41.026 51.4167 41.3017L52.7705 43.6466C52.9289 43.9221 52.8338 44.2741 52.5582 44.4325C52.2826 44.5909 51.9307 44.4958 51.7723 44.2201L50.4185 41.8753ZM46.2577 46.3469C45.982 46.1873 45.8879 45.8344 46.0477 45.5588C46.2072 45.2832 46.5602 45.1892 46.8357 45.3488L49.1806 46.7026C49.4562 46.8622 49.5503 47.2151 49.3907 47.4907C49.231 47.7664 48.8781 47.8604 48.6025 47.7007L46.2577 46.3469ZM44.8911 52.3002C44.5718 52.3002 44.313 52.0414 44.313 51.722C44.313 51.4028 44.5718 51.144 44.8911 51.144H47.5988C47.9181 51.144 48.177 51.4028 48.177 51.722C48.177 52.0414 47.9181 52.3002 47.5988 52.3002H44.8911ZM62.2076 41.4537C62.366 41.1781 62.7179 41.083 62.9935 41.2414C63.2691 41.3998 63.3642 41.7518 63.2058 42.0274L61.852 44.3723C61.6937 44.6478 61.3417 44.7429 61.0661 44.5846C60.7906 44.4262 60.6955 44.0742 60.8538 43.7986L62.2076 41.4537ZM66.6771 45.6123C66.9527 45.4526 67.3056 45.5467 67.4653 45.8223C67.6249 46.0979 67.5308 46.4508 67.2552 46.6104L64.9104 47.9642C64.6348 48.1239 64.2819 48.0298 64.1222 47.7542C63.9625 47.4786 64.0567 47.1257 64.3322 46.9661L66.6771 45.6123Z" fill="white"/>
</g>
<defs>
<filter id="filter0_dddd_731_5433" x="14.3335" y="16.1819" width="91" height="96" filterUnits="userSpaceOnUse" color-interpolation-filters="sRGB">
<feFlood flood-opacity="0" result="BackgroundImageFix"/>
<feColorMatrix in="SourceAlpha" type="matrix" values="0 0 0 0 0 0 0 0 0 0 0 0 0 0 0 0 0 0 127 0" result="hardAlpha"/>
<feOffset dy="1"/>
<feGaussianBlur stdDeviation="0.5"/>
<feColorMatrix type="matrix" values="0 0 0 0 0 0 0 0 0 0 0 0 0 0 0 0 0 0 0.1 0"/>
<feBlend mode="normal" in2="BackgroundImageFix" result="effect1_dropShadow_731_5433"/>
<feColorMatrix in="SourceAlpha" type="matrix" values="0 0 0 0 0 0 0 0 0 0 0 0 0 0 0 0 0 0 127 0" result="hardAlpha"/>
<feOffset dx="1" dy="2"/>
<feGaussianBlur stdDeviation="1.5"/>
<feColorMatrix type="matrix" values="0 0 0 0 0 0 0 0 0 0 0 0 0 0 0 0 0 0 0.09 0"/>
<feBlend mode="normal" in2="effect1_dropShadow_731_5433" result="effect2_dropShadow_731_5433"/>
<feColorMatrix in="SourceAlpha" type="matrix" values="0 0 0 0 0 0 0 0 0 0 0 0 0 0 0 0 0 0 127 0" result="hardAlpha"/>
<feOffset dx="2" dy="6"/>
<feGaussianBlur stdDeviation="2"/>
<feColorMatrix type="matrix" values="0 0 0 0 0 0 0 0 0 0 0 0 0 0 0 0 0 0 0.05 0"/>
<feBlend mode="normal" in2="effect2_dropShadow_731_5433" result="effect3_dropShadow_731_5433"/>
<feColorMatrix in="SourceAlpha" type="matrix" values="0 0 0 0 0 0 0 0 0 0 0 0 0 0 0 0 0 0 127 0" result="hardAlpha"/>
<feOffset dx="4" dy="10"/>
<feGaussianBlur stdDeviation="2"/>
<feColorMatrix type="matrix" values="0 0 0 0 0 0 0 0 0 0 0 0 0 0 0 0 0 0 0.01 0"/>
<feBlend mode="normal" in2="effect3_dropShadow_731_5433" result="effect4_dropShadow_731_5433"/>
<feBlend mode="normal" in="SourceGraphic" in2="effect4_dropShadow_731_5433" result="shape"/>
</filter>
<clipPath id="clip0_731_5433">
<rect width="81" height="81" fill="white" transform="translate(16.3335 17.1819)"/>
</clipPath>
<clipPath id="clip1_731_5433">
<rect width="37" height="37" fill="white" transform="translate(38.3335 39.1819)"/>
</clipPath>
</defs>
</svg>
