<svg width="114" height="114" viewBox="0 0 114 114" fill="none" xmlns="http://www.w3.org/2000/svg">
<g clip-path="url(#clip0_731_3562)">
<path d="M83.3854 63.4288C82.7244 63.4288 82.188 62.8984 82.188 62.2374V62.2254C82.188 61.5645 82.7244 61.0281 83.3854 61.0281C84.0463 61.0281 84.5827 61.5645 84.5827 62.2254C84.5827 62.8864 84.0463 63.4288 83.3854 63.4288Z" fill="black"/>
<path d="M84.5825 92.2673C84.5825 93.5844 83.5049 94.662 82.1878 94.662H27.1091C25.792 94.662 24.7144 93.5844 24.7144 92.2673V20.4255C24.7144 19.1084 25.792 18.0307 27.1091 18.0307H73.8063L75.0036 19.2281V27.6097H83.3852L84.5825 28.807V92.2673Z" fill="#239D7C"/>
<path d="M84.5829 28.807H76.2014C74.8843 28.807 73.8066 27.7294 73.8066 26.4123V18.0307L84.5829 28.807Z" fill="#0E8565"/>
<path d="M54.6488 39.5833H33.0963C32.4353 39.5833 31.8989 39.0469 31.8989 38.3859C31.8989 37.725 32.4353 37.1886 33.0963 37.1886H54.6488C55.3098 37.1886 55.8462 37.725 55.8462 38.3859C55.8462 39.0469 55.3098 39.5833 54.6488 39.5833Z" fill="#7DEDCF"/>
<path d="M42.6752 44.3727H33.0963C32.4353 44.3727 31.8989 43.8363 31.8989 43.1754C31.8989 42.5144 32.4353 41.978 33.0963 41.978H42.6752C43.3361 41.978 43.8726 42.5144 43.8726 43.1754C43.8726 43.8363 43.3361 44.3727 42.6752 44.3727Z" fill="#7DEDCF"/>
<path d="M75.0041 71.9121H67.8199C67.159 71.9121 66.6226 71.3757 66.6226 70.7147C66.6226 70.0538 67.159 69.5174 67.8199 69.5174H75.0041C75.665 69.5174 76.2015 70.0538 76.2015 70.7147C76.2015 71.3757 75.665 71.9121 75.0041 71.9121Z" fill="#7DEDCF"/>
<path d="M75.004 76.7015H63.0304C62.3694 76.7015 61.833 76.1651 61.833 75.5042C61.833 74.8432 62.3694 74.3068 63.0304 74.3068H75.004C75.665 74.3068 76.2014 74.8432 76.2014 75.5042C76.2014 76.1651 75.665 76.7015 75.004 76.7015Z" fill="#7DEDCF"/>
<path d="M75.004 81.491H63.0304C62.3694 81.491 61.833 80.9546 61.833 80.2936C61.833 79.6327 62.3694 79.0963 63.0304 79.0963H75.004C75.665 79.0963 76.2014 79.6327 76.2014 80.2936C76.2014 80.9546 75.665 81.491 75.004 81.491Z" fill="#7DEDCF"/>
<path d="M67.8198 86.2804H63.0304C62.3694 86.2804 61.833 85.744 61.833 85.0831C61.833 84.4221 62.3694 83.8857 63.0304 83.8857H67.8198C68.4808 83.8857 69.0172 84.4221 69.0172 85.0831C69.0172 85.744 68.4808 86.2804 67.8198 86.2804Z" fill="#7DEDCF"/>
<path d="M54.6489 51.5569H37.8858C37.2249 51.5569 36.6885 51.0205 36.6885 50.3595C36.6885 49.6986 37.2249 49.1622 37.8858 49.1622H54.6489C55.3099 49.1622 55.8463 49.6986 55.8463 50.3595C55.8463 51.0205 55.3099 51.5569 54.6489 51.5569Z" fill="#7DEDCF"/>
<path d="M42.6752 56.3464H33.0963C32.4353 56.3464 31.8989 55.8099 31.8989 55.149C31.8989 54.488 32.4353 53.9516 33.0963 53.9516H42.6752C43.3361 53.9516 43.8726 54.488 43.8726 55.149C43.8726 55.8099 43.3361 56.3464 42.6752 56.3464Z" fill="#7DEDCF"/>
<path d="M47.4649 44.3727C48.1262 44.3727 48.6623 43.8366 48.6623 43.1754C48.6623 42.5141 48.1262 41.978 47.4649 41.978C46.8037 41.978 46.2676 42.5141 46.2676 43.1754C46.2676 43.8366 46.8037 44.3727 47.4649 44.3727Z" fill="#7DEDCF"/>
<path d="M47.4649 56.3464C48.1262 56.3464 48.6623 55.8103 48.6623 55.149C48.6623 54.4877 48.1262 53.9516 47.4649 53.9516C46.8037 53.9516 46.2676 54.4877 46.2676 55.149C46.2676 55.8103 46.8037 56.3464 47.4649 56.3464Z" fill="#7DEDCF"/>
<path d="M72.6095 86.2804C73.2708 86.2804 73.8068 85.7444 73.8068 85.0831C73.8068 84.4218 73.2708 83.8857 72.6095 83.8857C71.9482 83.8857 71.4121 84.4218 71.4121 85.0831C71.4121 85.7444 71.9482 86.2804 72.6095 86.2804Z" fill="#7DEDCF"/>
<g filter="url(#filter0_dddd_731_3562)">
<path d="M22.3198 86.2805V74.3068C22.3198 73.6471 22.8574 73.1095 23.5172 73.1095H28.3066C28.9664 73.1095 29.504 73.6471 29.504 74.3068V86.2805H22.3198Z" fill="#25BEFF"/>
<path d="M29.5039 86.2805V69.5174C29.5039 68.8576 30.0415 68.32 30.7013 68.32H35.4907C36.1505 68.32 36.6881 68.8576 36.6881 69.5174V86.2805H29.5039Z" fill="#A180FF"/>
<path d="M36.688 86.2805V71.9121C36.688 71.2524 37.2256 70.7147 37.8854 70.7147H42.6748C43.3346 70.7147 43.8722 71.2524 43.8722 71.9121V86.2805H36.688Z" fill="#FF2929"/>
<path d="M43.8726 86.2805V63.5306C43.8726 62.8708 44.4102 62.3332 45.0699 62.3332H49.8594C50.5191 62.3332 51.0567 62.8708 51.0567 63.5306V86.2805H43.8726Z" fill="white"/>
</g>
<path d="M55.846 87.4778H17.5304C16.8694 87.4778 16.333 86.9414 16.333 86.2805C16.333 85.6195 16.8694 85.0831 17.5304 85.0831H55.846C56.507 85.0831 57.0434 85.6195 57.0434 86.2805C57.0434 86.9414 56.507 87.4778 55.846 87.4778Z" fill="#0E8565"/>
<path d="M34.6802 30.9606L33.3842 28.6715H32.8287V30.9606H31.6505V25.0863H33.8554C34.3099 25.0863 34.697 25.1677 35.0168 25.3304C35.3366 25.4875 35.5751 25.7035 35.7322 25.9784C35.8949 26.2477 35.9762 26.5507 35.9762 26.8873C35.9762 27.2744 35.864 27.6251 35.6396 27.9393C35.4152 28.2479 35.0813 28.4611 34.6381 28.5789L36.0436 30.9606H34.6802ZM32.8287 27.7878H33.8134C34.1332 27.7878 34.3716 27.7121 34.5287 27.5606C34.6858 27.4035 34.7644 27.1875 34.7644 26.9126C34.7644 26.6433 34.6858 26.4357 34.5287 26.2898C34.3716 26.1383 34.1332 26.0626 33.8134 26.0626H32.8287V27.7878ZM38.2201 26.0373V27.5101H40.1978V28.4442H38.2201V30.0012H40.4503V30.9606H37.0419V25.0779H40.4503V26.0373H38.2201ZM45.8046 26.9041C45.8046 27.2183 45.7289 27.5129 45.5774 27.7878C45.4315 28.0627 45.1987 28.2843 44.8789 28.4527C44.5647 28.621 44.1663 28.7051 43.6838 28.7051H42.6992V30.9606H41.521V25.0863H43.6838C44.1383 25.0863 44.5254 25.1649 44.8452 25.322C45.165 25.4791 45.4035 25.6951 45.5606 25.97C45.7233 26.2449 45.8046 26.5563 45.8046 26.9041ZM43.6333 27.7541C43.9587 27.7541 44.2 27.6812 44.3571 27.5353C44.5142 27.3838 44.5927 27.1735 44.5927 26.9041C44.5927 26.3319 44.2729 26.0457 43.6333 26.0457H42.6992V27.7541H43.6333ZM49.3678 31.0195C48.818 31.0195 48.3131 30.8904 47.853 30.6323C47.3929 30.3743 47.0282 30.018 46.7589 29.5635C46.4896 29.1035 46.355 28.5845 46.355 28.0066C46.355 27.4343 46.4896 26.921 46.7589 26.4665C47.0282 26.0065 47.3929 25.6474 47.853 25.3893C48.3131 25.1312 48.818 25.0022 49.3678 25.0022C49.9233 25.0022 50.4282 25.1312 50.8827 25.3893C51.3427 25.6474 51.7046 26.0065 51.9683 26.4665C52.2376 26.921 52.3723 27.4343 52.3723 28.0066C52.3723 28.5845 52.2376 29.1035 51.9683 29.5635C51.7046 30.018 51.3427 30.3743 50.8827 30.6323C50.4226 30.8904 49.9177 31.0195 49.3678 31.0195ZM49.3678 29.9675C49.7213 29.9675 50.0327 29.8889 50.302 29.7319C50.5713 29.5691 50.7817 29.3391 50.9332 29.0418C51.0847 28.7444 51.1604 28.3994 51.1604 28.0066C51.1604 27.6139 51.0847 27.2716 50.9332 26.9799C50.7817 26.6825 50.5713 26.4553 50.302 26.2982C50.0327 26.1411 49.7213 26.0626 49.3678 26.0626C49.0144 26.0626 48.7002 26.1411 48.4253 26.2982C48.156 26.4553 47.9456 26.6825 47.7941 26.9799C47.6426 27.2716 47.5669 27.6139 47.5669 28.0066C47.5669 28.3994 47.6426 28.7444 47.7941 29.0418C47.9456 29.3391 48.156 29.5691 48.4253 29.7319C48.7002 29.8889 49.0144 29.9675 49.3678 29.9675ZM56.2785 30.9606L54.9825 28.6715H54.427V30.9606H53.2488V25.0863H55.4538C55.9082 25.0863 56.2953 25.1677 56.6151 25.3304C56.9349 25.4875 57.1734 25.7035 57.3305 25.9784C57.4932 26.2477 57.5745 26.5507 57.5745 26.8873C57.5745 27.2744 57.4623 27.6251 57.2379 27.9393C57.0135 28.2479 56.6797 28.4611 56.2364 28.5789L57.6419 30.9606H56.2785ZM54.427 27.7878H55.4117C55.7315 27.7878 55.9699 27.7121 56.127 27.5606C56.2841 27.4035 56.3627 27.1875 56.3627 26.9126C56.3627 26.6433 56.2841 26.4357 56.127 26.2898C55.9699 26.1383 55.7315 26.0626 55.4117 26.0626H54.427V27.7878ZM62.6377 25.0863V26.0373H61.0723V30.9606H59.8941V26.0373H58.3288V25.0863H62.6377ZM65.5255 31.0195C65.116 31.0195 64.7457 30.9493 64.4147 30.8091C64.0893 30.6688 63.8312 30.4668 63.6404 30.2031C63.4497 29.9394 63.3515 29.6281 63.3459 29.269H64.6082C64.6251 29.5102 64.7092 29.701 64.8607 29.8413C65.0178 29.9815 65.231 30.0517 65.5003 30.0517C65.7752 30.0517 65.9912 29.9871 66.1483 29.8581C66.3054 29.7234 66.384 29.5495 66.384 29.3363C66.384 29.1624 66.3307 29.0193 66.2241 28.9071C66.1175 28.7949 65.9828 28.7079 65.8201 28.6462C65.663 28.5789 65.4442 28.506 65.1637 28.4274C64.7822 28.3152 64.4708 28.2058 64.2295 28.0992C63.9939 27.987 63.7891 27.8215 63.6152 27.6027C63.4468 27.3782 63.3627 27.0809 63.3627 26.7106C63.3627 26.3627 63.4497 26.0598 63.6236 25.8017C63.7975 25.5436 64.0416 25.3472 64.3558 25.2126C64.6699 25.0723 65.029 25.0022 65.433 25.0022C66.0389 25.0022 66.5298 25.1509 66.9057 25.4482C67.2872 25.74 67.4976 26.1495 67.5369 26.6769H66.2409C66.2297 26.4749 66.1427 26.3094 65.98 26.1804C65.8229 26.0457 65.6125 25.9784 65.3488 25.9784C65.1188 25.9784 64.9336 26.0373 64.7934 26.1551C64.6587 26.273 64.5914 26.4441 64.5914 26.6685C64.5914 26.8256 64.6419 26.9574 64.7429 27.064C64.8495 27.165 64.9785 27.2492 65.13 27.3165C65.2871 27.3782 65.5059 27.4512 65.7864 27.5353C66.1679 27.6475 66.4793 27.7598 66.7206 27.872C66.9618 27.9842 67.1694 28.1525 67.3434 28.3769C67.5173 28.6013 67.6042 28.8959 67.6042 29.2606C67.6042 29.5748 67.5229 29.8665 67.3602 30.1358C67.1975 30.4051 66.959 30.6211 66.6448 30.7838C66.3307 30.9409 65.9576 31.0195 65.5255 31.0195Z" fill="#E6FFF8"/>
</g>
<g filter="url(#filter1_dddd_731_3562)">
<circle cx="83.0049" cy="46.3872" r="14.6021" fill="white"/>
<circle cx="83.0049" cy="46.3872" r="13.977" stroke="#E8E8E8" stroke-width="1.25024"/>
</g>
<path d="M79.6444 46.0559C78.2773 45.3379 77.5937 44.2264 77.5937 42.7215C77.5937 41.9759 77.7783 41.2994 78.1474 40.6919C78.5302 40.0705 79.0975 39.5804 79.8495 39.2214C80.615 38.8486 81.5447 38.6622 82.6384 38.6622C83.732 38.6622 84.6548 38.8486 85.4067 39.2214C86.1723 39.5804 86.7397 40.0705 87.1088 40.6919C87.4916 41.2994 87.683 41.9759 87.683 42.7215C87.683 43.4809 87.4984 44.1505 87.1293 44.7304C86.7602 45.2965 86.268 45.7383 85.6528 46.0559C86.4047 46.3872 86.9926 46.8705 87.4164 47.5056C87.8402 48.1407 88.0521 48.8932 88.0521 49.763C88.0521 50.7019 87.8128 51.5234 87.3344 52.2276C86.8695 52.9179 86.227 53.4495 85.4067 53.8223C84.5865 54.1951 83.6637 54.3815 82.6384 54.3815C81.613 54.3815 80.6902 54.1951 79.87 53.8223C79.0634 53.4495 78.4208 52.9179 77.9423 52.2276C77.4775 51.5234 77.2451 50.7019 77.2451 49.763C77.2451 48.8932 77.457 48.1407 77.8808 47.5056C78.3046 46.8567 78.8925 46.3734 79.6444 46.0559ZM84.8941 43.1357C84.8941 42.4591 84.689 41.9345 84.2789 41.5617C83.8824 41.1889 83.3356 41.0025 82.6384 41.0025C81.9548 41.0025 81.408 41.1889 80.9978 41.5617C80.6014 41.9345 80.4031 42.4661 80.4031 43.1564C80.4031 43.7777 80.6082 44.2748 81.0183 44.6476C81.4421 45.0203 81.9821 45.2067 82.6384 45.2067C83.2946 45.2067 83.8346 45.0203 84.2584 44.6476C84.6822 44.261 84.8941 43.757 84.8941 43.1357ZM82.6384 47.3192C81.8591 47.3192 81.2234 47.5194 80.7312 47.9198C80.2528 48.3202 80.0135 48.8932 80.0135 49.6388C80.0135 50.3291 80.2459 50.8952 80.7107 51.337C81.1892 51.765 81.8318 51.9791 82.6384 51.9791C83.4449 51.9791 84.0806 51.7581 84.5455 51.3163C85.0103 50.8745 85.2427 50.3153 85.2427 49.6388C85.2427 48.907 85.0034 48.3409 84.525 47.9405C84.0465 47.5263 83.4176 47.3192 82.6384 47.3192Z" fill="#0E5441"/>
<defs>
<filter id="filter0_dddd_731_3562" x="21.3374" y="46.614" width="47.4034" height="40.649" filterUnits="userSpaceOnUse" color-interpolation-filters="sRGB">
<feFlood flood-opacity="0" result="BackgroundImageFix"/>
<feColorMatrix in="SourceAlpha" type="matrix" values="0 0 0 0 0 0 0 0 0 0 0 0 0 0 0 0 0 0 127 0" result="hardAlpha"/>
<feOffset dx="0.982452" dy="-0.982452"/>
<feGaussianBlur stdDeviation="0.982452"/>
<feColorMatrix type="matrix" values="0 0 0 0 0 0 0 0 0 0 0 0 0 0 0 0 0 0 0.1 0"/>
<feBlend mode="normal" in2="BackgroundImageFix" result="effect1_dropShadow_731_3562"/>
<feColorMatrix in="SourceAlpha" type="matrix" values="0 0 0 0 0 0 0 0 0 0 0 0 0 0 0 0 0 0 127 0" result="hardAlpha"/>
<feOffset dx="2.94736" dy="-2.94736"/>
<feGaussianBlur stdDeviation="1.9649"/>
<feColorMatrix type="matrix" values="0 0 0 0 0 0 0 0 0 0 0 0 0 0 0 0 0 0 0.09 0"/>
<feBlend mode="normal" in2="effect1_dropShadow_731_3562" result="effect2_dropShadow_731_3562"/>
<feColorMatrix in="SourceAlpha" type="matrix" values="0 0 0 0 0 0 0 0 0 0 0 0 0 0 0 0 0 0 127 0" result="hardAlpha"/>
<feOffset dx="6.87716" dy="-5.89471"/>
<feGaussianBlur stdDeviation="2.45613"/>
<feColorMatrix type="matrix" values="0 0 0 0 0 0 0 0 0 0 0 0 0 0 0 0 0 0 0.05 0"/>
<feBlend mode="normal" in2="effect2_dropShadow_731_3562" result="effect3_dropShadow_731_3562"/>
<feColorMatrix in="SourceAlpha" type="matrix" values="0 0 0 0 0 0 0 0 0 0 0 0 0 0 0 0 0 0 127 0" result="hardAlpha"/>
<feOffset dx="11.7894" dy="-9.82452"/>
<feGaussianBlur stdDeviation="2.94736"/>
<feColorMatrix type="matrix" values="0 0 0 0 0 0 0 0 0 0 0 0 0 0 0 0 0 0 0.01 0"/>
<feBlend mode="normal" in2="effect3_dropShadow_731_3562" result="effect4_dropShadow_731_3562"/>
<feBlend mode="normal" in="SourceGraphic" in2="effect4_dropShadow_731_3562" result="shape"/>
</filter>
<filter id="filter1_dddd_731_3562" x="50.7187" y="30.8026" width="47.8707" height="48.8533" filterUnits="userSpaceOnUse" color-interpolation-filters="sRGB">
<feFlood flood-opacity="0" result="BackgroundImageFix"/>
<feColorMatrix in="SourceAlpha" type="matrix" values="0 0 0 0 0 0 0 0 0 0 0 0 0 0 0 0 0 0 127 0" result="hardAlpha"/>
<feOffset dx="-0.982452" dy="0.982452"/>
<feGaussianBlur stdDeviation="0.982452"/>
<feColorMatrix type="matrix" values="0 0 0 0 0 0 0 0 0 0 0 0 0 0 0 0 0 0 0.1 0"/>
<feBlend mode="normal" in2="BackgroundImageFix" result="effect1_dropShadow_731_3562"/>
<feColorMatrix in="SourceAlpha" type="matrix" values="0 0 0 0 0 0 0 0 0 0 0 0 0 0 0 0 0 0 127 0" result="hardAlpha"/>
<feOffset dx="-2.94736" dy="2.94736"/>
<feGaussianBlur stdDeviation="1.9649"/>
<feColorMatrix type="matrix" values="0 0 0 0 0 0 0 0 0 0 0 0 0 0 0 0 0 0 0.09 0"/>
<feBlend mode="normal" in2="effect1_dropShadow_731_3562" result="effect2_dropShadow_731_3562"/>
<feColorMatrix in="SourceAlpha" type="matrix" values="0 0 0 0 0 0 0 0 0 0 0 0 0 0 0 0 0 0 127 0" result="hardAlpha"/>
<feOffset dx="-5.89471" dy="6.87716"/>
<feGaussianBlur stdDeviation="2.45613"/>
<feColorMatrix type="matrix" values="0 0 0 0 0 0 0 0 0 0 0 0 0 0 0 0 0 0 0.05 0"/>
<feBlend mode="normal" in2="effect2_dropShadow_731_3562" result="effect3_dropShadow_731_3562"/>
<feColorMatrix in="SourceAlpha" type="matrix" values="0 0 0 0 0 0 0 0 0 0 0 0 0 0 0 0 0 0 127 0" result="hardAlpha"/>
<feOffset dx="-10.807" dy="11.7894"/>
<feGaussianBlur stdDeviation="3.43858"/>
<feColorMatrix type="matrix" values="0 0 0 0 0 0 0 0 0 0 0 0 0 0 0 0 0 0 0.01 0"/>
<feBlend mode="normal" in2="effect3_dropShadow_731_3562" result="effect4_dropShadow_731_3562"/>
<feBlend mode="normal" in="SourceGraphic" in2="effect4_dropShadow_731_3562" result="shape"/>
</filter>
<clipPath id="clip0_731_3562">
<rect width="76.6313" height="76.6313" fill="white" transform="translate(16.333 18.0307)"/>
</clipPath>
</defs>
</svg>
