<svg width="115" height="116" viewBox="0 0 115 116" fill="none" xmlns="http://www.w3.org/2000/svg">
<g filter="url(#filter0_dddd_731_5673)">
<path d="M91.7085 31.7605V92.7917C91.7085 94.3333 91.0961 95.8117 90.0061 96.9018C88.916 97.9919 87.4376 98.6042 85.896 98.6042H36.4897C35.2321 98.6042 34.0084 98.1963 33.0022 97.4417C32.6037 97.1473 32.2468 96.8003 31.9415 96.41C31.1257 95.3801 30.6804 94.1056 30.6772 92.7917V31.7605C30.6772 30.2189 31.2896 28.7405 32.3797 27.6504C33.4697 26.5604 34.9482 25.948 36.4897 25.948H85.896C87.4376 25.948 88.916 26.5604 90.0061 27.6504C91.0961 28.7405 91.7085 30.2189 91.7085 31.7605Z" fill="#0E7156"/>
<path d="M85.896 33.2136V81.1667H77.1772C76.4072 81.169 75.6693 81.476 75.1248 82.0205C74.5802 82.565 74.2733 83.3029 74.271 84.073V92.7917H37.9429C37.5575 92.7917 37.1879 92.6387 36.9154 92.3661C36.6428 92.0936 36.4897 91.724 36.4897 91.3386V33.2136C36.4897 32.8282 36.6428 32.4586 36.9154 32.1861C37.1879 31.9136 37.5575 31.7605 37.9429 31.7605H84.4429C84.8283 31.7605 85.1979 31.9136 85.4704 32.1861C85.7429 32.4586 85.896 32.8282 85.896 33.2136Z" fill="white"/>
<path d="M66.7584 73.1892L65.7267 78.3332L62.6461 81.4138C62.106 81.9619 61.8032 82.7005 61.8032 83.47C61.8032 84.2395 62.106 84.9781 62.6461 85.5262C62.916 85.7964 63.2365 86.0108 63.5893 86.157C63.9421 86.3033 64.3203 86.3786 64.7022 86.3786C65.0842 86.3786 65.4623 86.3033 65.8152 86.157C66.168 86.0108 66.4885 85.7964 66.7584 85.5262L69.839 82.4456L74.9831 81.4138L76.0003 80.3821L85.8961 70.4864V54.066L66.7584 73.1892Z" fill="#D8D7DA"/>
<path d="M91.7085 48.2535L85.896 54.0631V70.4864L91.7085 64.6739V48.2535Z" fill="#05503C"/>
<path d="M50.556 86.2091C50.2155 87.5483 49.682 88.8308 48.9721 90.0163L51.0501 92.7917H37.9429C37.5575 92.7917 37.1879 92.6387 36.9154 92.3661C36.6428 92.0936 36.4897 91.724 36.4897 91.3386V63.7292H39.396L40.079 68.5536C41.4181 68.8941 42.7007 69.4276 43.8862 70.1375L47.7951 67.2022L51.9074 71.3146L48.9721 75.2235C49.682 76.409 50.2155 77.6915 50.556 79.0307L55.3804 79.7136V85.5261L50.556 86.2091Z" fill="#D8D7DA"/>
<path d="M97.7536 44.6061C97.217 44.0647 96.5788 43.6345 95.8756 43.3403C95.1724 43.046 94.418 42.8935 93.6558 42.8914C92.9911 42.8902 92.3316 43.0084 91.7086 43.2401C90.8927 43.5254 90.1523 43.9925 89.5434 44.6061L87.48 46.655L91.7086 50.8836L95.7047 54.8796L97.7536 52.8162C98.2956 52.2788 98.7259 51.6394 99.0195 50.9348C99.3132 50.2302 99.4644 49.4744 99.4644 48.7111C99.4644 47.9478 99.3132 47.1921 99.0195 46.4875C98.7259 45.7829 98.2956 45.1435 97.7536 44.6061Z" fill="#E6E7E8"/>
<path d="M91.7086 50.8836L87.48 46.655L85.8961 48.2389V48.2535L84.3994 49.7357L85.8961 51.2324L88.5118 53.848L91.7086 57.0449L92.6241 57.9603L95.7047 54.8797L91.7086 50.8836Z" fill="#1D7B62"/>
<path d="M85.896 81.1667L74.271 92.7917V84.073C74.2733 83.3029 74.5802 82.565 75.1248 82.0205C75.6693 81.476 76.4072 81.169 77.1772 81.1667H85.896Z" fill="#D1D3D4"/>
<path d="M85.896 81.1667V91.3386C85.896 91.724 85.7429 92.0936 85.4704 92.3661C85.1979 92.6387 84.8283 92.7917 84.4429 92.7917H74.271L85.896 81.1667Z" fill="#E6E7E8"/>
<path d="M66.9328 79.5392L63.8522 82.6198C63.4449 83.0247 62.9268 83.2998 62.3633 83.4105C61.7998 83.5212 61.2162 83.4624 60.686 83.2416C60.1559 83.0209 59.703 82.648 59.3846 82.1701C59.0662 81.6922 58.8965 81.1307 58.897 80.5564C58.8954 80.1762 58.969 79.7994 59.1136 79.4477C59.2583 79.0961 59.4711 78.7765 59.7398 78.5075L62.8204 75.4269L66.9328 79.5392Z" fill="#787680"/>
<path d="M73.0939 77.4758L72.0767 78.5075L66.9327 79.5392L62.8203 75.4269L63.852 70.2828L64.8838 69.2656L68.9816 73.378H68.9961L73.0939 77.4758Z" fill="#898890"/>
<path d="M85.896 51.2324L84.3993 49.7357L64.8838 69.2657L68.9816 73.3781H68.9961L85.896 56.4637L88.5116 53.8481L85.896 51.2324Z" fill="#00CCB3"/>
<path d="M91.7084 57.0449L88.5116 53.848L85.8959 56.4636L68.9961 73.378L73.0939 77.4758L85.8959 64.6738L91.7084 58.8613L92.6239 57.9604L91.7084 57.0449Z" fill="#00B39D"/>
<path d="M55.7871 48.7911C56.5284 49.8597 56.8899 51.1461 56.8138 52.4445C56.7376 53.7428 56.2283 54.9781 55.3672 55.9528C54.506 56.9274 53.3429 57.5851 52.0638 57.8206C50.7848 58.0562 49.4637 57.8559 48.3118 57.2519C47.16 56.6479 46.2441 55.6751 45.7105 54.489C45.1769 53.3029 45.0565 51.9722 45.3685 50.7096C45.6806 49.447 46.4071 48.3256 47.4318 47.5246C48.4565 46.7237 49.7202 46.2896 51.0208 46.2918C51.9577 46.2944 52.8801 46.523 53.7098 46.9581C54.5396 47.3932 55.2521 48.022 55.7871 48.7911Z" fill="#84F0D3"/>
<path d="M45.2085 33.2136H77.1772V37.573H45.2085V33.2136Z" fill="#1D7B62"/>
<path d="M75.201 25.948C74.1414 25.0135 72.7776 24.4969 71.3647 24.4949H67.0054V20.1355C67.0054 18.5939 66.393 17.1155 65.3029 16.0254C64.2129 14.9354 62.7344 14.323 61.1929 14.323C59.6513 14.323 58.1729 14.9354 57.0828 16.0254C55.9928 17.1155 55.3804 18.5939 55.3804 20.1355V24.4949H51.021C49.4805 24.4983 48.0041 25.1118 46.9148 26.2011C45.8254 27.2904 45.212 28.7669 45.2085 30.3074V33.2136H77.1772V30.3074C77.1777 29.4818 77.0016 28.6658 76.6607 27.9139C76.3199 27.162 75.8222 26.4917 75.201 25.948Z" fill="#05B384"/>
<path d="M51.9074 93.9252L50.1346 95.698L47.7951 98.0375L44.6854 95.698L43.8862 95.1022C43.5241 95.3207 43.1506 95.5195 42.7672 95.698C41.9079 96.1198 41.0069 96.4509 40.079 96.6861L39.8029 98.6042H36.4897C35.2321 98.6042 34.0084 98.1963 33.0022 97.4417L32.9005 96.6861C32.5808 96.5989 32.2466 96.5117 31.9415 96.41C31.1257 95.3801 30.6804 94.1056 30.6772 92.7917V69.3383C31.3931 69.01 32.1372 68.7474 32.9005 68.5536L33.5835 63.7292H36.4897V91.3386C36.4897 91.724 36.6428 92.0936 36.9154 92.3661C37.1879 92.6387 37.5575 92.7917 37.9429 92.7917H51.0501L51.9074 93.9252Z" fill="#8B5E3C"/>
<path d="M47.6497 83.3028C47.3093 84.642 46.7757 85.9245 46.0658 87.11L49.0012 91.0189L47.2283 92.7917L44.8888 95.1313L41.7791 92.7917L40.9799 92.196C40.6178 92.4144 40.2443 92.6133 39.861 92.7917C39.0016 93.2135 38.1007 93.5447 37.1727 93.7799L36.4897 98.6042H30.6772L29.9943 93.7799C28.6551 93.4394 27.3726 92.9058 26.1871 92.196L22.2782 95.1313L18.1658 91.0189L21.1012 87.11C20.3913 85.9245 19.8577 84.642 19.5172 83.3028L14.6929 82.6199V76.8074L19.5172 76.1244C19.8577 74.7852 20.3913 73.5027 21.1012 72.3172L18.1658 68.4083L22.2782 64.296L26.1871 67.2313C27.3726 66.5214 28.6551 65.9878 29.9943 65.6474L30.6772 60.823H36.4897L37.1727 65.6474C38.5119 65.9878 39.7944 66.5214 40.9799 67.2313L44.8888 64.296L49.0012 68.4083L46.0658 72.3172C46.7757 73.5027 47.3093 74.7852 47.6497 76.1244L52.4741 76.8074V82.6199L47.6497 83.3028Z" fill="#05B384"/>
<path d="M36.4895 73.0438C35.571 72.6507 34.5824 72.448 33.5833 72.448C32.5842 72.448 31.5955 72.6507 30.677 73.0438C29.3807 73.6116 28.278 74.5448 27.5036 75.7294C26.7293 76.9139 26.3169 78.2984 26.3169 79.7136C26.3169 81.1288 26.7293 82.5133 27.5036 83.6979C28.278 84.8824 29.3807 85.8157 30.677 86.3835C31.5955 86.7766 32.5842 86.9793 33.5833 86.9793C34.5824 86.9793 35.571 86.7766 36.4895 86.3835C37.7858 85.8157 38.8886 84.8824 39.6629 83.6979C40.4373 82.5133 40.8497 81.1288 40.8497 79.7136C40.8497 78.2984 40.4373 76.9139 39.6629 75.7294C38.8886 74.5448 37.7858 73.6116 36.4895 73.0438Z" fill="white"/>
<path fill-rule="evenodd" clip-rule="evenodd" d="M35.8779 76.215C35.8867 76.2069 35.8955 76.1987 35.904 76.1902C36.2586 75.84 36.2586 75.2722 35.904 74.922C35.5537 74.576 34.9883 74.5718 34.6329 74.9095L34.632 74.9086L31.4316 78.0625C31.0769 78.2894 30.7114 78.218 30.4346 78.075L32.0935 79.7135C32.3164 79.7011 32.6103 79.4515 32.7474 79.3071L35.8779 76.215ZM30.0974 77.8343L30.0978 77.8339L30.0635 77.8C30.074 77.8111 30.0853 77.8226 30.0974 77.8343Z" fill="url(#paint0_linear_731_5673)"/>
<path fill-rule="evenodd" clip-rule="evenodd" d="M37.3698 81.9882C37.3756 81.9942 37.3816 82.0002 37.3876 82.0062C37.7422 82.3564 38.317 82.3564 38.6716 82.0062C39.022 81.66 39.0261 81.1013 38.6838 80.7503L38.6844 80.7496L35.4914 77.5886C35.2616 77.2383 35.3339 76.8773 35.4787 76.6039L33.8198 78.2423C33.8323 78.4625 34.085 78.7528 34.2313 78.8882L37.3698 81.9882ZM35.7223 76.2708L35.7228 76.2712L35.7571 76.2373C35.7458 76.2477 35.7342 76.2589 35.7223 76.2708Z" fill="url(#paint1_linear_731_5673)"/>
<path fill-rule="evenodd" clip-rule="evenodd" d="M30.1043 77.747C30.0962 77.7382 30.0878 77.7296 30.0792 77.7212C29.7247 77.3709 29.1498 77.3709 28.7952 77.7212C28.4449 78.0672 28.4407 78.6257 28.7828 78.9768L28.7819 78.9777L31.9749 82.1387C32.2047 82.4891 32.1324 82.8501 31.9876 83.1235L33.6465 81.485C33.634 81.2648 33.3813 80.9745 33.235 80.8391L30.1043 77.747ZM31.744 83.4565L31.7435 83.4561L31.7092 83.49C31.7205 83.4797 31.7321 83.4685 31.744 83.4565Z" fill="url(#paint2_linear_731_5673)"/>
<path fill-rule="evenodd" clip-rule="evenodd" d="M31.6035 83.5017C31.5908 83.5129 31.5784 83.5245 31.5662 83.5366C31.2117 83.8868 31.2117 84.4546 31.5662 84.8048C31.9166 85.1509 32.4822 85.155 32.8376 84.817L32.839 84.8184L36.0394 81.6646C36.3941 81.4376 36.7596 81.509 37.0364 81.652L35.3776 80.0135C35.1546 80.0259 34.8607 80.2755 34.7236 80.42L31.6035 83.5017ZM37.3736 81.8927L37.3732 81.8931L37.4075 81.927C37.397 81.9159 37.3857 81.9044 37.3736 81.8927Z" fill="url(#paint3_linear_731_5673)"/>
<path d="M59.7397 18.6824H62.646V21.5886H59.7397V18.6824Z" fill="#05B384"/>
<path d="M32.1304 65.1824H35.0366V68.0886H32.1304V65.1824Z" fill="#84F0D3"/>
<path d="M22.2729 70.4617L24.328 68.4066L26.383 70.4617L24.328 72.5167L22.2729 70.4617Z" fill="#84F0D3"/>
<path d="M19.0522 78.2605H21.9585V81.1667H19.0522V78.2605Z" fill="#84F0D3"/>
<path d="M22.271 88.9551L24.326 86.9L26.3811 88.9551L24.326 91.0101L22.271 88.9551Z" fill="#84F0D3"/>
<path d="M32.1304 91.3386H35.0366V94.2449H32.1304V91.3386Z" fill="#84F0D3"/>
<path d="M40.7646 88.9569L42.8197 86.9019L44.8747 88.9569L42.8197 91.0119L40.7646 88.9569Z" fill="#84F0D3"/>
<path d="M45.2085 78.2605H48.1147V81.1667H45.2085V78.2605Z" fill="#84F0D3"/>
<path d="M40.7661 70.4635L42.8211 68.4085L44.8762 70.4635L42.8211 72.5185L40.7661 70.4635Z" fill="#84F0D3"/>
<path d="M49.9849 52.53L57.2493 45.2656L59.304 47.3203L52.0396 54.5847L49.9849 52.53Z" fill="#1D7B62"/>
<path d="M61.1929 47.7449H64.0991V50.6511H61.1929V47.7449Z" fill="#C6C5CA"/>
<path d="M67.0054 47.7449H72.8179V50.6511H67.0054V47.7449Z" fill="#C6C5CA"/>
<path d="M61.1929 53.5574H69.9116V56.4636H61.1929V53.5574Z" fill="#C6C5CA"/>
</g>
<defs>
<filter id="filter0_dddd_731_5673" x="13.6929" y="13.323" width="100.771" height="102.281" filterUnits="userSpaceOnUse" color-interpolation-filters="sRGB">
<feFlood flood-opacity="0" result="BackgroundImageFix"/>
<feColorMatrix in="SourceAlpha" type="matrix" values="0 0 0 0 0 0 0 0 0 0 0 0 0 0 0 0 0 0 127 0" result="hardAlpha"/>
<feOffset dx="1" dy="1"/>
<feGaussianBlur stdDeviation="1"/>
<feColorMatrix type="matrix" values="0 0 0 0 0 0 0 0 0 0 0 0 0 0 0 0 0 0 0.1 0"/>
<feBlend mode="normal" in2="BackgroundImageFix" result="effect1_dropShadow_731_5673"/>
<feColorMatrix in="SourceAlpha" type="matrix" values="0 0 0 0 0 0 0 0 0 0 0 0 0 0 0 0 0 0 127 0" result="hardAlpha"/>
<feOffset dx="2" dy="3"/>
<feGaussianBlur stdDeviation="1.5"/>
<feColorMatrix type="matrix" values="0 0 0 0 0 0 0 0 0 0 0 0 0 0 0 0 0 0 0.09 0"/>
<feBlend mode="normal" in2="effect1_dropShadow_731_5673" result="effect2_dropShadow_731_5673"/>
<feColorMatrix in="SourceAlpha" type="matrix" values="0 0 0 0 0 0 0 0 0 0 0 0 0 0 0 0 0 0 127 0" result="hardAlpha"/>
<feOffset dx="5" dy="6"/>
<feGaussianBlur stdDeviation="2.5"/>
<feColorMatrix type="matrix" values="0 0 0 0 0 0 0 0 0 0 0 0 0 0 0 0 0 0 0.05 0"/>
<feBlend mode="normal" in2="effect2_dropShadow_731_5673" result="effect3_dropShadow_731_5673"/>
<feColorMatrix in="SourceAlpha" type="matrix" values="0 0 0 0 0 0 0 0 0 0 0 0 0 0 0 0 0 0 127 0" result="hardAlpha"/>
<feOffset dx="9" dy="11"/>
<feGaussianBlur stdDeviation="3"/>
<feColorMatrix type="matrix" values="0 0 0 0 0 0 0 0 0 0 0 0 0 0 0 0 0 0 0.01 0"/>
<feBlend mode="normal" in2="effect3_dropShadow_731_5673" result="effect4_dropShadow_731_5673"/>
<feBlend mode="normal" in="SourceGraphic" in2="effect4_dropShadow_731_5673" result="shape"/>
</filter>
<linearGradient id="paint0_linear_731_5673" x1="35.4934" y1="74.5164" x2="31.1699" y2="78.8937" gradientUnits="userSpaceOnUse">
<stop stop-color="#78DBF8"/>
<stop offset="0.690625" stop-color="#50BEF2"/>
<stop offset="1" stop-color="#42B4F0"/>
</linearGradient>
<linearGradient id="paint1_linear_731_5673" x1="39.082" y1="81.6009" x2="34.7581" y2="77.2232" gradientUnits="userSpaceOnUse">
<stop stop-color="#FAE267"/>
<stop offset="0.651042" stop-color="#F7D14E"/>
<stop offset="1" stop-color="#F6C841"/>
</linearGradient>
<linearGradient id="paint2_linear_731_5673" x1="28.3846" y1="78.1267" x2="32.7082" y2="82.5042" gradientUnits="userSpaceOnUse">
<stop stop-color="#3FB3B7"/>
<stop offset="0.690625" stop-color="#309599"/>
<stop offset="1" stop-color="#278589"/>
</linearGradient>
<linearGradient id="paint3_linear_731_5673" x1="31.9771" y1="85.2107" x2="36.3009" y2="80.8331" gradientUnits="userSpaceOnUse">
<stop stop-color="#E95F45"/>
<stop offset="0.739583" stop-color="#D83F2E"/>
<stop offset="1" stop-color="#D23426"/>
</linearGradient>
</defs>
</svg>
