<svg width="114" height="114" viewBox="0 0 114 114" fill="none" xmlns="http://www.w3.org/2000/svg">
<path d="M32.6451 79.1929C39.3705 79.1929 44.8227 84.6448 44.8227 91.3704C45.5331 91.9532 46.2434 92.5361 46.9538 93.1188C46.2434 93.8031 45.5331 94.4874 44.8227 95.1717C37.4465 95.1717 30.0703 95.1717 22.6943 95.1717C22.5506 95.1708 21.6988 95.1512 21.0557 94.4525C20.4914 93.8395 20.4687 93.1171 20.4678 92.9452C20.4678 92.4203 20.4678 91.8954 20.4678 91.3704C20.4676 84.6448 25.9196 79.1929 32.6451 79.1929Z" fill="#43BB9B"/>
<path d="M57.0001 79.1924C58.9234 82.0323 60.8468 84.872 62.7701 87.712C60.8468 90.1984 58.9234 92.6851 57.0001 95.1717C52.9408 95.1717 48.8816 95.1717 44.8223 95.1717V91.3702C44.8223 84.6445 50.2744 79.1924 57.0001 79.1924Z" fill="#05B384"/>
<path d="M69.1778 91.3702C70.1075 91.9531 71.0371 92.5359 71.967 93.1188C71.0373 93.8031 70.1076 94.4874 69.1778 95.1717C65.1185 95.1717 61.0593 95.1717 57 95.1717V79.1924C63.7257 79.1924 69.1778 84.6445 69.1778 91.3702Z" fill="#147F62"/>
<path d="M81.3551 79.1929C88.0805 79.1929 93.5326 84.6448 93.5326 91.3704V92.945C93.5326 94.1747 92.5357 95.1716 91.3061 95.1716H69.1777V91.3702C69.1777 84.6448 74.6297 79.1929 81.3551 79.1929Z" fill="#0A663C"/>
<path d="M37.1322 77.3259C39.6145 74.8436 39.6145 70.819 37.1322 68.3367C34.6499 65.8544 30.6253 65.8544 28.143 68.3367C25.6607 70.819 25.6607 74.8436 28.143 77.3259C30.6253 79.8082 34.6499 79.8082 37.1322 77.3259Z" fill="#CECECE"/>
<path d="M57.0002 66.4786C58.0645 68.6717 59.1287 70.8647 60.1932 73.0575C59.1289 75.1024 58.0646 77.1473 57.0002 79.1923C53.5128 79.1925 50.6426 76.3232 50.6426 72.8362C50.6426 69.3242 53.4896 66.4786 57.0002 66.4786Z" fill="#CECECE"/>
<path d="M63.3576 72.8362C63.3571 76.3232 60.4874 79.1925 57 79.1923V66.4786C60.488 66.4783 63.358 69.3487 63.3576 72.8362Z" fill="#CECECE"/>
<path d="M85.8373 77.3313C88.3196 74.849 88.3196 70.8244 85.8373 68.3421C83.355 65.8598 79.3304 65.8598 76.8481 68.3421C74.3658 70.8244 74.3658 74.849 76.8481 77.3313C79.3304 79.8136 83.355 79.8136 85.8373 77.3313Z" fill="#CECECE"/>
<path d="M57.0002 41.3289C58.1313 44.5645 59.2623 47.8 60.3934 51.0357C59.2623 52.9879 58.1313 54.9403 57.0002 56.8926H39.1016C37.8725 56.8926 36.875 55.8951 36.875 54.666V41.3289C39.9313 39.6933 42.9878 38.0576 46.0441 36.422C49.6961 38.0576 53.3481 39.6933 57.0002 41.3289Z" fill="#338B73"/>
<path d="M77.1252 41.3288V54.6659C77.1252 55.895 76.1277 56.8925 74.8986 56.8925H57V41.3288C60.5236 39.9291 64.0471 38.5292 67.5707 37.1294C70.7554 38.5292 73.9403 39.9291 77.1252 41.3288Z" fill="#05B384"/>
<path d="M50.8237 19.1716C49.5932 19.1716 48.5972 20.1691 48.5972 21.3982V28.1105C49.3221 28.9271 50.0471 29.7436 50.7721 30.5602C51.5315 29.7436 52.2909 28.9271 53.0503 28.1105V23.6248H57.0002C57.7426 22.9131 58.4849 22.2015 59.2272 21.4899C58.4849 20.7172 57.7426 19.9444 57.0002 19.1716H50.8237Z" fill="#0A3A2D"/>
<path d="M65.403 21.3982V28.1105C64.677 28.8934 63.9509 29.6763 63.2249 30.4593C62.4665 29.6764 61.7083 28.8935 60.9499 28.1105C60.9499 26.6153 60.9499 25.12 60.9499 23.6248H57V19.1716H63.1765C64.407 19.1716 65.403 20.1691 65.403 21.3982Z" fill="#1C6041"/>
<path d="M57 41.3289C57.5253 42.422 58.0506 43.5151 58.576 44.6082C58.0506 45.7991 57.5253 46.9899 57 48.1808C56.8516 48.1808 56.0631 48.1657 55.4258 47.5284C54.7886 46.8913 54.7734 46.1027 54.7734 45.9543V41.3289C55.1554 40.9691 55.5373 40.6093 55.9192 40.2495C56.2795 40.6093 56.6397 40.9691 57 41.3289Z" fill="#FFDE46"/>
<path d="M59.2266 41.3289V45.9542C59.2266 47.1833 58.2291 48.1808 57 48.1808V41.3289C57.418 40.8008 57.8359 40.2726 58.2539 39.7445C58.578 40.2726 58.9024 40.8008 59.2266 41.3289Z" fill="#FFB64C"/>
<path d="M57.0002 28.1106C58.9572 30.1568 60.9143 32.203 62.8713 34.2491C60.9143 36.6091 58.9572 38.9689 57.0002 41.329C50.2918 41.329 43.5833 41.329 36.875 41.329V30.3372C36.875 29.1066 37.8725 28.1106 39.1016 28.1106H57.0002Z" fill="#05B384"/>
<path d="M77.1252 30.3372V41.329H57V28.1106H74.8986C76.1277 28.1106 77.1252 29.1066 77.1252 30.3372Z" fill="#338B73"/>
<path d="M86.5934 19.2665C86.5803 19.14 86.4197 19.14 86.4066 19.2665L86.2965 20.3271C86.1543 21.6967 85.2094 22.7765 84.0111 22.939L83.083 23.0649C82.9723 23.0799 82.9723 23.2634 83.083 23.2784L84.0111 23.4042C85.2094 23.5667 86.1543 24.6466 86.2965 26.0161L86.4066 27.0768C86.4197 27.2032 86.5803 27.2032 86.5934 27.0768L86.7035 26.0161C86.8457 24.6466 87.7906 23.5667 88.989 23.4042L89.917 23.2784C90.0277 23.2634 90.0277 23.0799 89.917 23.0649L88.989 22.939C87.7906 22.7765 86.8457 21.6967 86.7035 20.3271L86.5934 19.2665Z" fill="#05B384"/>
<path d="M19.6735 39.3376C19.6491 39.1163 19.3509 39.1163 19.3265 39.3376L19.122 41.1937C18.858 43.5905 17.1032 45.4802 14.8777 45.7646L13.1541 45.9848C12.9486 46.0111 12.9486 46.3322 13.1541 46.3584L14.8777 46.5787C17.1032 46.8631 18.858 48.7528 19.122 51.1495L19.3265 53.0057C19.3509 53.227 19.6491 53.227 19.6735 53.0057L19.878 51.1495C20.142 48.7528 21.8968 46.8631 24.1223 46.5787L25.8459 46.3584C26.0514 46.3322 26.0514 46.0111 25.8459 45.9848L24.1223 45.7646C21.8968 45.4802 20.142 43.5905 19.878 41.1937L19.6735 39.3376Z" fill="#146750"/>
</svg>
