<svg width="124" height="124" viewBox="0 0 124 124" fill="none" xmlns="http://www.w3.org/2000/svg">
<g filter="url(#filter0_d_731_3392)">
<g filter="url(#filter1_dddd_731_3392)">
<path d="M82.1804 33.7337V47.0511L51.7182 52.3126L21.2554 47.0511V32.1393C21.2554 28.2231 24.471 25.0467 28.4355 25.0467H75.0009C78.9667 25.0467 82.1804 29.8175 82.1804 33.7337Z" fill="#1EB38B"/>
<path d="M26.2052 47.0511V32.1393C26.2052 28.2231 29.4208 25.0467 33.3847 25.0467H28.4355C24.471 25.0467 21.2554 28.2231 21.2554 32.1393V47.0511L51.7182 52.3126L54.1931 51.885L26.2052 47.0511Z" fill="#088966"/>
<path d="M82.1804 47.0511V84.604C82.1804 88.5201 78.9667 91.6966 75.0009 91.6966H28.4355C24.471 91.6966 21.2554 88.5201 21.2554 84.604V47.0511H82.1804Z" fill="white"/>
<path d="M26.2052 84.604V47.0511H21.2554V84.604C21.2554 88.5201 24.471 91.6966 28.4355 91.6966H33.3847C29.4208 91.6966 26.2052 88.5201 26.2052 84.604Z" fill="#D5D4DA"/>
<path d="M36.5903 16.2423C34.0942 16.2423 32.0703 18.2415 32.0703 20.7072V27.7924C32.0703 30.2581 34.0942 32.2573 36.5903 32.2573C39.0859 32.2573 41.1098 30.2581 41.1098 27.7924V20.7072C41.1098 18.2415 39.0859 16.2423 36.5903 16.2423Z" fill="#A7FFD5"/>
<path d="M66.8462 16.2423C69.3424 16.2423 71.3656 18.2415 71.3656 20.7072V27.7924C71.3656 30.2581 69.3424 32.2573 66.8462 32.2573C64.35 32.2573 62.3262 30.2581 62.3262 27.7924V20.7072C62.3268 18.2415 64.35 16.2423 66.8462 16.2423Z" fill="#A7FFD5"/>
<path d="M45.4807 74.233V73.5366C45.4807 70.8224 43.7728 70.0524 41.3967 70.0524C40.3207 70.0524 39.9491 69.1359 39.9491 68.1824C39.9491 67.2653 40.3207 66.3118 41.3967 66.3118C43.2535 66.3118 44.8126 65.8718 44.8126 62.7182C44.8126 60.2976 43.5501 59.4905 41.5456 59.4905C39.1326 59.4905 38.2412 60.4811 38.2412 61.9476C38.2412 63.0482 37.7219 63.7817 35.9395 63.7817C33.7862 63.7817 33.4521 63.2682 33.4521 61.7276C33.4521 59.124 35.3083 55.3469 41.5825 55.3469C46.075 55.3469 49.4158 57.034 49.4158 61.9111C49.4158 64.8082 48.3398 67.1553 46.5205 67.9988C48.7107 68.8424 50.3067 70.4924 50.3067 73.5366V74.233C50.3067 80.1372 46.2978 82.3743 41.3967 82.3743C35.3083 82.3743 32.8584 78.6708 32.8584 75.7001C32.8584 74.233 33.4896 73.8295 35.16 73.8295C37.1276 73.8295 37.6474 74.343 37.6474 75.5166C37.6474 77.1666 39.1326 78.1937 41.5081 78.1937C44.2927 78.1937 45.4807 77.0201 45.4807 74.233Z" fill="#01231A"/>
<path d="M53.166 73.976V63.7447C53.166 57.6205 56.9528 55.3469 61.8532 55.3469C66.7536 55.3469 70.578 57.6205 70.578 63.7447V73.976C70.578 80.1008 66.7536 82.3743 61.8532 82.3743C56.9528 82.3743 53.166 80.1008 53.166 73.976ZM65.7514 63.7447C65.7514 60.8476 64.2668 59.5276 61.8532 59.5276C59.4034 59.5276 57.9926 60.8476 57.9926 63.7447V73.976C57.9926 76.8731 59.4034 78.1937 61.8532 78.1937C64.2668 78.1937 65.7514 76.8737 65.7514 73.976V63.7447Z" fill="#01231A"/>
<path d="M100.426 80.6763C100.426 88.3284 94.1443 94.5448 86.3787 94.5448C78.613 94.5448 72.3311 88.3284 72.3311 80.6763C72.3311 73.0243 78.613 66.8079 86.3787 66.8079C94.1443 66.8079 100.426 73.0243 100.426 80.6763Z" fill="#05B384" stroke="white" stroke-width="1.27257"/>
</g>
<path d="M85.9529 90.3462L81.4839 82.525V81.4822H82.0041C82.8396 81.4822 83.541 81.4032 84.1085 81.2452C84.6918 81.0871 85.1489 80.8264 85.48 80.463C85.811 80.0996 86.0081 79.6019 86.0711 78.9699H81.4839V77.4531H86.0475C85.9371 76.8684 85.7164 76.3944 85.3854 76.031C85.0544 75.6518 84.6051 75.3753 84.0376 75.2015C83.4859 75.0277 82.808 74.9408 82.0041 74.9408H81.4839V73.424H91.2731V74.9408H86.8041C87.1667 75.241 87.4662 75.5965 87.7026 76.0073C87.9391 76.4181 88.0889 76.9 88.1519 77.4531H91.2731V78.9699H88.1992C88.0889 80.1233 87.6475 81.0239 86.8751 81.6718C86.1184 82.3038 85.1095 82.7067 83.8484 82.8805L88.3647 90.3462H85.9529Z" fill="#FFFDF3"/>
</g>
<defs>
<filter id="filter0_d_731_3392" x="19.4738" y="14.4607" width="85.9155" height="85.0472" filterUnits="userSpaceOnUse" color-interpolation-filters="sRGB">
<feFlood flood-opacity="0" result="BackgroundImageFix"/>
<feColorMatrix in="SourceAlpha" type="matrix" values="0 0 0 0 0 0 0 0 0 0 0 0 0 0 0 0 0 0 127 0" result="hardAlpha"/>
<feOffset dx="1.27257" dy="1.27257"/>
<feGaussianBlur stdDeviation="1.52708"/>
<feComposite in2="hardAlpha" operator="out"/>
<feColorMatrix type="matrix" values="0 0 0 0 0.176471 0 0 0 0 0.686275 0 0 0 0 0.447059 0 0 0 0.21 0"/>
<feBlend mode="normal" in2="BackgroundImageFix" result="effect1_dropShadow_731_3392"/>
<feBlend mode="normal" in="SourceGraphic" in2="effect1_dropShadow_731_3392" result="shape"/>
</filter>
<filter id="filter1_dddd_731_3392" x="18.2554" y="14.2423" width="104.807" height="108.939" filterUnits="userSpaceOnUse" color-interpolation-filters="sRGB">
<feFlood flood-opacity="0" result="BackgroundImageFix"/>
<feColorMatrix in="SourceAlpha" type="matrix" values="0 0 0 0 0 0 0 0 0 0 0 0 0 0 0 0 0 0 127 0" result="hardAlpha"/>
<feOffset dx="1" dy="1"/>
<feGaussianBlur stdDeviation="1.5"/>
<feColorMatrix type="matrix" values="0 0 0 0 0 0 0 0 0 0 0 0 0 0 0 0 0 0 0.1 0"/>
<feBlend mode="normal" in2="BackgroundImageFix" result="effect1_dropShadow_731_3392"/>
<feColorMatrix in="SourceAlpha" type="matrix" values="0 0 0 0 0 0 0 0 0 0 0 0 0 0 0 0 0 0 127 0" result="hardAlpha"/>
<feOffset dx="3" dy="5"/>
<feGaussianBlur stdDeviation="3"/>
<feColorMatrix type="matrix" values="0 0 0 0 0 0 0 0 0 0 0 0 0 0 0 0 0 0 0.09 0"/>
<feBlend mode="normal" in2="effect1_dropShadow_731_3392" result="effect2_dropShadow_731_3392"/>
<feColorMatrix in="SourceAlpha" type="matrix" values="0 0 0 0 0 0 0 0 0 0 0 0 0 0 0 0 0 0 127 0" result="hardAlpha"/>
<feOffset dx="7" dy="11"/>
<feGaussianBlur stdDeviation="4"/>
<feColorMatrix type="matrix" values="0 0 0 0 0 0 0 0 0 0 0 0 0 0 0 0 0 0 0.05 0"/>
<feBlend mode="normal" in2="effect2_dropShadow_731_3392" result="effect3_dropShadow_731_3392"/>
<feColorMatrix in="SourceAlpha" type="matrix" values="0 0 0 0 0 0 0 0 0 0 0 0 0 0 0 0 0 0 127 0" result="hardAlpha"/>
<feOffset dx="13" dy="19"/>
<feGaussianBlur stdDeviation="4.5"/>
<feColorMatrix type="matrix" values="0 0 0 0 0 0 0 0 0 0 0 0 0 0 0 0 0 0 0.01 0"/>
<feBlend mode="normal" in2="effect3_dropShadow_731_3392" result="effect4_dropShadow_731_3392"/>
<feBlend mode="normal" in="SourceGraphic" in2="effect4_dropShadow_731_3392" result="shape"/>
</filter>
</defs>
</svg>
