<svg width="114" height="114" viewBox="0 0 114 114" fill="none" xmlns="http://www.w3.org/2000/svg">
<g filter="url(#filter0_dddd_731_5342)">
<path d="M86.4396 94.811H80.2187L77.6875 92.2798L77.7252 23.936L97.6549 27.4592C98.0665 27.532 98.4326 27.7646 98.6732 28.1064C98.9138 28.4482 99.0094 28.8713 98.9391 29.2833L87.9992 93.4948C87.9364 93.863 87.7454 94.1971 87.46 94.438C87.1746 94.6789 86.8131 94.811 86.4396 94.811Z" fill="#09785A"/>
<path d="M77.7252 23.936L77.6875 92.2798L80.2188 94.811H82.75V24.8243L77.7252 23.936Z" fill="#096048"/>
<path d="M78.6367 21.4049H27.3789C26.5052 21.4049 25.7969 22.1132 25.7969 22.9869V93.2291C25.7969 94.1029 26.5052 94.8112 27.3789 94.8112H78.6367C79.5104 94.8112 80.2187 94.1029 80.2187 93.2291V22.9869C80.2187 22.1132 79.5104 21.4049 78.6367 21.4049Z" fill="#0DAC81"/>
<path d="M41.6172 58.108H35.2891C33.5416 58.108 32.125 59.5246 32.125 61.272V67.6002C32.125 69.3476 33.5416 70.7642 35.2891 70.7642H41.6172C43.3646 70.7642 44.7812 69.3476 44.7812 67.6002V61.272C44.7812 59.5246 43.3646 58.108 41.6172 58.108Z" fill="#48DDB5"/>
<path d="M41.6172 77.0923H35.2891C33.5416 77.0923 32.125 78.5089 32.125 80.2564V86.5845C32.125 88.332 33.5416 89.7486 35.2891 89.7486H41.6172C43.3646 89.7486 44.7812 88.332 44.7812 86.5845V80.2564C44.7812 78.5089 43.3646 77.0923 41.6172 77.0923Z" fill="#48DDB5"/>
<path d="M39.7187 68.233C39.5525 68.233 39.3879 68.2003 39.2343 68.1367C39.0808 68.0731 38.9413 67.9799 38.8237 67.8623L35.0269 64.0655L36.8168 62.2755L39.6472 65.106L46.3515 57.2842L48.2734 58.9318L40.6796 67.7911C40.5661 67.9235 40.4265 68.031 40.2695 68.1069C40.1125 68.1828 39.9415 68.2254 39.7673 68.2321C39.7511 68.233 39.7345 68.233 39.7187 68.233Z" fill="#0B4938"/>
<path d="M39.7187 87.2174C39.5525 87.2174 39.3879 87.1847 39.2343 87.1211C39.0808 87.0575 38.9413 86.9643 38.8237 86.8468L35.0269 83.0499L36.8168 81.26L39.6472 84.0904L46.3515 76.2687L48.2734 77.9162L40.6796 86.7756C40.5661 86.908 40.4265 87.0155 40.2695 87.0913C40.1125 87.1672 39.9415 87.2098 39.7673 87.2165C39.7511 87.2174 39.7345 87.2174 39.7187 87.2174Z" fill="#0B4938"/>
<path d="M51.1094 75.8269H70.0937V78.3582H51.1094V75.8269Z" fill="#48DDB5"/>
<path d="M51.1094 82.155H57.4375V84.6862H51.1094V82.155Z" fill="#48DDB5"/>
<path d="M59.9688 82.1549H70.0938V84.6862H59.9688V82.1549Z" fill="#48DDB5"/>
<path d="M51.1094 56.8423H70.0937V59.3736H51.1094V56.8423Z" fill="#48DDB5"/>
<path d="M51.1094 63.1703H57.4375V65.7016H51.1094V63.1703Z" fill="#48DDB5"/>
<path d="M59.9688 63.1703H70.0938V65.7016H59.9688V63.1703Z" fill="#48DDB5"/>
<path d="M30.8594 25.2017H38.4531V27.733H30.8594V25.2017Z" fill="#48DDB5"/>
<path d="M30.8594 30.2643H35.9219V32.7955H30.8594V30.2643Z" fill="#48DDB5"/>
<path d="M68.8281 25.2018H71.3594V27.733H68.8281V25.2018Z" fill="#48DDB5"/>
<path d="M73.8906 25.2018H76.4219V27.733H73.8906V25.2018Z" fill="#48DDB5"/>
<path d="M67.5624 40.927C67.5624 41.4574 67.4345 41.9547 67.1788 42.4188C66.9325 42.883 66.5394 43.2571 65.9995 43.5413C65.4691 43.8254 64.7966 43.9675 63.982 43.9675H62.3197V47.7752H60.3306V37.8581H63.982C64.7492 37.8581 65.4028 37.9907 65.9427 38.2559C66.4826 38.5211 66.8851 38.8858 67.1504 39.3499C67.425 39.814 67.5624 40.3397 67.5624 40.927ZM63.8968 42.362C64.4461 42.362 64.8534 42.2389 65.1186 41.9926C65.3838 41.7369 65.5165 41.3817 65.5165 40.927C65.5165 39.9609 64.9766 39.4778 63.8968 39.4778H62.3197V42.362H63.8968Z" fill="#6AFFD7"/>
<path d="M56.3434 47.7752L54.1553 43.9107H53.2176V47.7752H51.2285V37.8581H54.951C55.7182 37.8581 56.3718 37.9954 56.9117 38.2701C57.4516 38.5353 57.8541 38.9 58.1194 39.3641C58.394 39.8188 58.5314 40.3303 58.5314 40.8986C58.5314 41.5521 58.3419 42.1441 57.9631 42.6746C57.5842 43.1955 57.0206 43.5555 56.2723 43.7544L58.645 47.7752H56.3434ZM53.2176 42.4188H54.8799C55.4198 42.4188 55.8224 42.291 56.0876 42.0352C56.3528 41.77 56.4854 41.4053 56.4854 40.9412C56.4854 40.4866 56.3528 40.1361 56.0876 39.8898C55.8224 39.6341 55.4198 39.5062 54.8799 39.5062H53.2176V42.4188Z" fill="#6AFFD7"/>
<path d="M49.2619 37.858V47.7752H47.2728V41.3248L44.6159 47.7752H43.1099L40.4388 41.3248V47.7752H38.4497V37.858H40.7088L43.8629 45.2319L47.0171 37.858H49.2619Z" fill="#6AFFD7"/>
</g>
<defs>
<filter id="filter0_dddd_731_5342" x="20.8245" y="16.4325" width="91.5794" height="92.7549" filterUnits="userSpaceOnUse" color-interpolation-filters="sRGB">
<feFlood flood-opacity="0" result="BackgroundImageFix"/>
<feColorMatrix in="SourceAlpha" type="matrix" values="0 0 0 0 0 0 0 0 0 0 0 0 0 0 0 0 0 0 127 0" result="hardAlpha"/>
<feOffset/>
<feGaussianBlur stdDeviation="0.587743"/>
<feColorMatrix type="matrix" values="0 0 0 0 0 0 0 0 0 0 0 0 0 0 0 0 0 0 0.1 0"/>
<feBlend mode="normal" in2="BackgroundImageFix" result="effect1_dropShadow_731_5342"/>
<feColorMatrix in="SourceAlpha" type="matrix" values="0 0 0 0 0 0 0 0 0 0 0 0 0 0 0 0 0 0 127 0" result="hardAlpha"/>
<feOffset dx="1.17549" dy="2.35097"/>
<feGaussianBlur stdDeviation="1.17549"/>
<feColorMatrix type="matrix" values="0 0 0 0 0 0 0 0 0 0 0 0 0 0 0 0 0 0 0.09 0"/>
<feBlend mode="normal" in2="effect1_dropShadow_731_5342" result="effect2_dropShadow_731_5342"/>
<feColorMatrix in="SourceAlpha" type="matrix" values="0 0 0 0 0 0 0 0 0 0 0 0 0 0 0 0 0 0 127 0" result="hardAlpha"/>
<feOffset dx="3.52646" dy="3.52646"/>
<feGaussianBlur stdDeviation="1.76323"/>
<feColorMatrix type="matrix" values="0 0 0 0 0 0 0 0 0 0 0 0 0 0 0 0 0 0 0.05 0"/>
<feBlend mode="normal" in2="effect2_dropShadow_731_5342" result="effect3_dropShadow_731_5342"/>
<feColorMatrix in="SourceAlpha" type="matrix" values="0 0 0 0 0 0 0 0 0 0 0 0 0 0 0 0 0 0 127 0" result="hardAlpha"/>
<feOffset dx="5.87743" dy="7.05291"/>
<feGaussianBlur stdDeviation="1.76323"/>
<feColorMatrix type="matrix" values="0 0 0 0 0 0 0 0 0 0 0 0 0 0 0 0 0 0 0.01 0"/>
<feBlend mode="normal" in2="effect3_dropShadow_731_5342" result="effect4_dropShadow_731_5342"/>
<feBlend mode="normal" in="SourceGraphic" in2="effect4_dropShadow_731_5342" result="shape"/>
</filter>
</defs>
</svg>
