<svg width="114" height="114" viewBox="0 0 114 114" fill="none" xmlns="http://www.w3.org/2000/svg">
<path d="M87.2378 56.8842C87.2378 60.7542 86.5376 64.4598 85.2592 67.8782C81.7872 77.1617 71.9366 79.1411 62.3404 81.767C61.9106 81.8851 63.0332 84.0086 62.5962 83.7639C60.4027 82.5355 58.675 80.5642 56.333 80.5642C42.9655 80.5642 31.579 79.4893 27.2716 67.5081C26.0789 64.192 25.4282 60.6154 25.4282 56.8842C25.4282 39.6733 39.2654 25.72 56.333 25.72C73.4007 25.72 87.2378 39.6733 87.2378 56.8842Z" fill="#135A47" fill-opacity="0.17"/>
<path d="M81.5493 65.7169H67.7119L69.3567 52.769L70.616 51.1451L69.7692 49.5214L70.1364 46.6322L71.2498 45.175L70.549 43.3847L71.0015 39.8209H78.2597L78.712 43.3847L77.9102 45.2583L79.1246 46.6322L79.4918 49.5214L78.5765 51.1451L79.9045 52.769L81.5493 65.7169Z" fill="#2DAF72"/>
<path d="M73.52 39.8209L73.3818 43.3847L73.2556 46.6322L73.1428 49.5214L73.0167 52.769L72.5135 65.7169H67.7119L69.3567 52.769L71.3309 51.2963L69.7692 49.5214L70.1364 46.6322L71.2498 45.175L70.549 43.3847L71.0015 39.8209H73.52Z" fill="#077154"/>
<path d="M79.1244 46.6322H70.1362L70.5488 43.3848H78.7118L79.1244 46.6322Z" fill="#F9F6F9"/>
<path d="M79.9047 52.769H69.3569L69.7695 49.5214H79.492L79.9047 52.769Z" fill="#F9F6F9"/>
<path d="M69.7695 49.5214H73.1431L73.0169 52.769H69.3569L69.7695 49.5214Z" fill="#DDDAEC"/>
<path d="M73.382 43.3848L73.2559 46.6322H70.1367L70.5493 43.3848H73.382Z" fill="#DDDAEC"/>
<path d="M93.6625 65.7168H74.4414L76.7261 47.731L78.4754 45.4755L77.2992 43.22L77.8093 39.2068L79.3558 37.1825L78.3824 34.6957L79.0108 29.7452H89.0931L89.7215 34.6957L88.6076 37.2982L90.2946 39.2068L90.8047 43.22L89.5331 45.4755L91.3778 47.731L93.6625 65.7168Z" fill="#2DAF72"/>
<path d="M82.5094 29.7452L82.3173 34.6957L82.1421 39.2068L81.9854 43.22L81.8103 47.731L81.1112 65.7168H74.4414L76.7261 47.731L79.4684 45.6854L77.2992 43.22L77.8093 39.2068L79.3558 37.1825L78.3824 34.6957L79.0108 29.7452H82.5094Z" fill="#077154"/>
<path d="M90.2944 39.2067H77.8091L78.3822 34.6957H89.7213L90.2944 39.2067Z" fill="#F9F6F9"/>
<path d="M91.3778 47.731H76.7261L77.2992 43.22H90.8047L91.3778 47.731Z" fill="#F9F6F9"/>
<path d="M77.2992 43.22H81.9854L81.8102 47.731H76.7261L77.2992 43.22Z" fill="#DDDAEC"/>
<path d="M82.3175 34.6957L82.1424 39.2067H77.8096L78.3827 34.6957H82.3175Z" fill="#DDDAEC"/>
<path d="M93.1479 65.7169V71.4372C88.7291 83.1542 78.8773 92.2086 66.664 95.5227C66.117 95.6717 65.5669 95.5473 65.0107 95.2385V65.7169H93.1479Z" fill="#2DAF72"/>
<path d="M92.7331 68.6159H64.3032V62.8176H92.733C94.3341 62.8176 95.6321 64.1156 95.6321 65.7168C95.6323 67.3179 94.3343 68.6159 92.7331 68.6159Z" fill="#F9F6F9"/>
<path d="M73.9406 68.6159H45.5107V62.8176H73.9405C75.5416 62.8176 76.8396 64.1156 76.8396 65.7168C76.8398 67.3179 75.5418 68.6159 73.9406 68.6159Z" fill="#DDDAEC"/>
<g filter="url(#filter0_dddd_731_5628)">
<path d="M66.6641 51.9347V93.2536C66.6641 95.2644 65.0339 96.8946 63.023 96.8946H56.3329C44.897 96.8946 34.6012 92.0148 27.4152 84.2219C26.544 83.2769 25.7174 82.2905 24.9415 81.2626C22.5938 78.159 20.6963 74.6958 19.3457 70.9699V67.4499L43.0056 51.9347V67.4499L66.6641 51.9347Z" fill="white"/>
</g>
<path d="M43.1958 53.4336L42.7175 58.3178L21.7382 71.2431C21.3571 71.4764 20.9294 71.5875 20.5049 71.5875L20.5034 66.9587L41.961 53.7793C42.3419 53.5446 42.771 53.4336 43.1958 53.4336Z" fill="#95F3DA"/>
<path d="M66.6646 52.7115V57.8662L44.2922 72.5386C43.8964 72.7983 43.449 72.922 43.0079 72.922H43.0063V67.7689L65.3772 53.0964C65.7744 52.8351 66.2218 52.7115 66.6646 52.7115Z" fill="#95F3DA"/>
<path d="M49.1503 84.5604C46.8147 84.5604 44.9146 82.6603 44.9146 80.3249V77.9493C44.9146 75.6138 46.8147 73.7136 49.1503 73.7136H56.9401C59.2757 73.7136 61.1758 75.6138 61.1758 77.9493V80.3249C61.1758 82.6603 59.2757 84.5604 56.9401 84.5604H49.1503Z" fill="#DDDAEC"/>
<path d="M49.1501 82.1323H56.94C57.938 82.1323 58.7473 81.3232 58.7473 80.3249V77.9494C58.7473 76.9513 57.9382 76.1421 56.94 76.1421H49.1501C48.152 76.1421 47.3428 76.9512 47.3428 77.9494V80.3249C47.3428 81.323 48.1519 82.1323 49.1501 82.1323Z" fill="#665E66"/>
<path d="M41.0958 77.9503V80.3256C41.0958 82.661 39.1967 84.5601 36.8613 84.5601H29.0715C28.4845 84.5601 27.9237 84.4403 27.4152 84.2221C26.544 83.2772 25.7174 82.2908 24.9415 81.2629C24.8723 80.9617 24.8354 80.6483 24.8354 80.3256V77.9503C24.8354 75.6133 26.7361 73.7142 29.0715 73.7142H36.8613C39.1967 73.7142 41.0958 75.6133 41.0958 77.9503Z" fill="#DDDAEC"/>
<path d="M29.071 82.1323H36.8609C37.8589 82.1323 38.6682 81.3232 38.6682 80.3249V77.9494C38.6682 76.9513 37.8591 76.1421 36.8609 76.1421H29.071C28.0729 76.1421 27.2637 76.9512 27.2637 77.9494V80.3249C27.2637 81.323 28.0728 82.1323 29.071 82.1323Z" fill="#665E66"/>
<path d="M20.7683 69.6639C20.034 69.6639 19.3143 69.301 18.8816 68.6324C18.199 67.5779 18.4894 66.1623 19.5302 65.4706L42.253 50.3715C43.2938 49.6798 44.6911 49.9741 45.3736 51.0286C46.0562 52.0831 45.7658 53.4987 44.725 54.1903L22.0021 69.2896C21.621 69.5428 21.1922 69.6639 20.7683 69.6639Z" fill="#2DAF72"/>
<path d="M43.0077 69.7968C42.2432 69.7968 41.4938 69.4239 41.0433 68.7368C40.3326 67.6531 40.6349 66.1984 41.7186 65.4876L65.3778 49.9711C66.4615 49.2603 67.9163 49.5627 68.6269 50.6463C69.3377 51.73 69.0353 53.1847 67.9517 53.8955L44.2925 69.4122C43.8956 69.6723 43.4491 69.7968 43.0077 69.7968Z" fill="#2DAF72"/>
<path d="M74.4549 84.5604C72.1194 84.5604 70.2192 82.6603 70.2192 80.3249V77.9493C70.2192 75.6138 72.1194 73.7136 74.4549 73.7136H82.2448C84.5804 73.7136 86.4805 75.6138 86.4805 77.9493V80.3249C86.4805 82.6603 84.5804 84.5604 82.2448 84.5604H74.4549Z" fill="#077154"/>
<path d="M74.4548 82.1322H82.2447C83.2427 82.1322 84.052 81.3231 84.052 80.3248V77.9493C84.052 76.9512 83.2429 76.142 82.2447 76.142H74.4548C73.4567 76.142 72.6475 76.9511 72.6475 77.9493V80.3248C72.6475 81.3229 73.4566 82.1322 74.4548 82.1322Z" fill="#665E66"/>
<g filter="url(#filter1_d_731_5628)">
<circle cx="53.0825" cy="35.9556" r="8.28217" transform="rotate(-21.8599 53.0825 35.9556)" fill="#05B384" stroke="white" stroke-width="1.06048"/>
<path d="M55.0326 41.5031L50.7741 38.0916L50.5382 37.5036L50.828 37.3874C51.2933 37.2007 51.6662 36.9994 51.9465 36.7835C52.2356 36.564 52.4313 36.3149 52.5335 36.036C52.6356 35.7571 52.6328 35.4324 52.5249 35.062L49.9699 36.087L49.6268 35.2317L52.1686 34.212C51.9749 33.907 51.7448 33.689 51.4782 33.5581C51.208 33.4182 50.8952 33.3627 50.5398 33.3915C50.1932 33.4168 49.796 33.5192 49.3482 33.6989L49.0585 33.8151L48.7153 32.9598L54.1678 30.7724L54.511 31.6277L52.0218 32.6263C52.2916 32.7146 52.5389 32.8481 52.7635 33.0269C52.9882 33.2057 53.1806 33.444 53.3408 33.7417L55.0793 33.0443L55.4224 33.8995L53.7103 34.5864C53.9097 35.2615 53.8676 35.8679 53.5839 36.4058C53.3055 36.9313 52.8347 37.3839 52.1716 37.7637L56.376 40.9642L55.0326 41.5031Z" fill="#FFFDF3"/>
</g>
<g filter="url(#filter2_d_731_5628)">
<circle cx="36.389" cy="36.7865" r="9.9386" transform="rotate(11.4575 36.389 36.7865)" fill="#05B384" stroke="white" stroke-width="1.27257"/>
<path d="M34.688 43.6351L32.6663 37.4073L32.8174 36.6622L33.1845 36.7366C33.7742 36.8561 34.2808 36.9 34.7042 36.8683C35.1388 36.8388 35.4992 36.7179 35.7855 36.5056C36.0718 36.2933 36.2829 35.9659 36.419 35.5233L33.1812 34.8671L33.4009 33.7832L36.6219 34.4361C36.6287 34.0026 36.5416 33.6323 36.3606 33.3253C36.1818 33.007 35.9048 32.7451 35.5294 32.5397C35.1652 32.3366 34.6993 32.1776 34.1319 32.0625L33.7647 31.9881L33.9844 30.9043L40.8938 32.3047L40.6741 33.3885L37.5198 32.7492C37.7323 33.0156 37.8922 33.3125 37.9996 33.6398C38.107 33.9672 38.1429 34.333 38.1073 34.7371L40.3103 35.1836L40.0906 36.2675L37.921 35.8277C37.6761 36.6361 37.2341 37.2165 36.5951 37.5689C35.9695 37.9122 35.1991 38.0558 34.2838 37.9996L36.3903 43.9801L34.688 43.6351Z" fill="#FFFDF3"/>
</g>
<defs>
<filter id="filter0_dddd_731_5628" x="19.3457" y="44.0458" width="61.9692" height="53.9757" filterUnits="userSpaceOnUse" color-interpolation-filters="sRGB">
<feFlood flood-opacity="0" result="BackgroundImageFix"/>
<feColorMatrix in="SourceAlpha" type="matrix" values="0 0 0 0 0 0 0 0 0 0 0 0 0 0 0 0 0 0 127 0" result="hardAlpha"/>
<feOffset dx="1.12699"/>
<feGaussianBlur stdDeviation="0.563493"/>
<feColorMatrix type="matrix" values="0 0 0 0 0.027451 0 0 0 0 0.443137 0 0 0 0 0.329412 0 0 0 0.1 0"/>
<feBlend mode="normal" in2="BackgroundImageFix" result="effect1_dropShadow_731_5628"/>
<feColorMatrix in="SourceAlpha" type="matrix" values="0 0 0 0 0 0 0 0 0 0 0 0 0 0 0 0 0 0 127 0" result="hardAlpha"/>
<feOffset dx="2.25397" dy="-1.12699"/>
<feGaussianBlur stdDeviation="1.12699"/>
<feColorMatrix type="matrix" values="0 0 0 0 0.027451 0 0 0 0 0.443137 0 0 0 0 0.329412 0 0 0 0.09 0"/>
<feBlend mode="normal" in2="effect1_dropShadow_731_5628" result="effect2_dropShadow_731_5628"/>
<feColorMatrix in="SourceAlpha" type="matrix" values="0 0 0 0 0 0 0 0 0 0 0 0 0 0 0 0 0 0 127 0" result="hardAlpha"/>
<feOffset dx="5.63493" dy="-2.25397"/>
<feGaussianBlur stdDeviation="1.69048"/>
<feColorMatrix type="matrix" values="0 0 0 0 0.027451 0 0 0 0 0.443137 0 0 0 0 0.329412 0 0 0 0.05 0"/>
<feBlend mode="normal" in2="effect2_dropShadow_731_5628" result="effect3_dropShadow_731_5628"/>
<feColorMatrix in="SourceAlpha" type="matrix" values="0 0 0 0 0 0 0 0 0 0 0 0 0 0 0 0 0 0 127 0" result="hardAlpha"/>
<feOffset dx="10.1429" dy="-3.38096"/>
<feGaussianBlur stdDeviation="2.25397"/>
<feColorMatrix type="matrix" values="0 0 0 0 0.027451 0 0 0 0 0.443137 0 0 0 0 0.329412 0 0 0 0.01 0"/>
<feBlend mode="normal" in2="effect3_dropShadow_731_5628" result="effect4_dropShadow_731_5628"/>
<feBlend mode="normal" in="SourceGraphic" in2="effect4_dropShadow_731_5628" result="shape"/>
</filter>
<filter id="filter1_d_731_5628" x="42.7829" y="25.6561" width="22.7202" height="22.7198" filterUnits="userSpaceOnUse" color-interpolation-filters="sRGB">
<feFlood flood-opacity="0" result="BackgroundImageFix"/>
<feColorMatrix in="SourceAlpha" type="matrix" values="0 0 0 0 0 0 0 0 0 0 0 0 0 0 0 0 0 0 127 0" result="hardAlpha"/>
<feOffset dx="1.06048" dy="1.06048"/>
<feGaussianBlur stdDeviation="1.27257"/>
<feComposite in2="hardAlpha" operator="out"/>
<feColorMatrix type="matrix" values="0 0 0 0 0.176471 0 0 0 0 0.686275 0 0 0 0 0.447059 0 0 0 0.21 0"/>
<feBlend mode="normal" in2="BackgroundImageFix" result="effect1_dropShadow_731_5628"/>
<feBlend mode="normal" in="SourceGraphic" in2="effect1_dropShadow_731_5628" result="shape"/>
</filter>
<filter id="filter2_d_731_5628" x="24.0304" y="24.428" width="27.2621" height="27.2623" filterUnits="userSpaceOnUse" color-interpolation-filters="sRGB">
<feFlood flood-opacity="0" result="BackgroundImageFix"/>
<feColorMatrix in="SourceAlpha" type="matrix" values="0 0 0 0 0 0 0 0 0 0 0 0 0 0 0 0 0 0 127 0" result="hardAlpha"/>
<feOffset dx="1.27257" dy="1.27257"/>
<feGaussianBlur stdDeviation="1.52708"/>
<feComposite in2="hardAlpha" operator="out"/>
<feColorMatrix type="matrix" values="0 0 0 0 0.176471 0 0 0 0 0.686275 0 0 0 0 0.447059 0 0 0 0.21 0"/>
<feBlend mode="normal" in2="BackgroundImageFix" result="effect1_dropShadow_731_5628"/>
<feBlend mode="normal" in="SourceGraphic" in2="effect1_dropShadow_731_5628" result="shape"/>
</filter>
</defs>
</svg>
