<svg width="114" height="114" viewBox="0 0 114 114" fill="none" xmlns="http://www.w3.org/2000/svg">
<path d="M57.0366 13.511V100.178C57.9026 100.178 58.6679 99.755 59.144 99.1069C59.1477 99.1069 83.5654 65.7941 83.5654 65.7941C87.5505 60.3541 89.9072 53.6434 89.9072 46.3816C89.9072 28.2276 75.1906 13.511 57.0366 13.511Z" fill="#18D3A0"/>
<path d="M57.0371 13.511C38.8831 13.511 24.1665 28.2276 24.1665 46.3816C24.1665 53.6434 26.5232 60.3541 30.511 65.7939C30.5082 65.7939 54.926 99.1067 54.926 99.1067C55.4058 99.755 56.1711 100.178 57.0371 100.178C57.7653 100.178 58.4088 99.7549 58.8091 99.1067C58.8121 99.1067 79.3439 65.7939 79.3439 65.7939C82.6946 60.3541 84.6763 53.6434 84.6763 46.3816C84.6763 28.2276 72.3018 13.511 57.0371 13.511Z" fill="#06A67A"/>
<path d="M57.0371 74.0207C72.3018 74.0207 84.6763 61.6462 84.6763 46.3815C84.6763 31.1168 72.3018 18.7423 57.0371 18.7423C41.7724 18.7423 29.3979 31.1168 29.3979 46.3815C29.3979 61.6462 41.7724 74.0207 57.0371 74.0207Z" fill="#E5F9FF"/>
<g clip-path="url(#clip0_731_5592)" filter="url(#filter0_d_731_5592)">
<path d="M37.4077 42.1297L41.8364 32.7703H71.4969L75.9255 42.1297L58.1654 47.3176" fill="#E9BB91"/>
<path d="M75.9255 42.1302H37.4077V71.289H75.9255V42.1302Z" fill="#CA936C"/>
<path d="M59.6978 42.1301V50.2244H53.6348V42.1301L54.332 32.7703H59.0006L59.6978 42.1301Z" fill="#764F43"/>
<path d="M53.6348 42.1297L54.3319 32.7703H59.0007L59.6979 42.1297" fill="#8E6459"/>
<path d="M68.07 53.4233H45.2629C44.6331 53.4233 44.1226 53.9339 44.1226 54.5637V60.2655C44.1226 60.8953 44.6331 61.4058 45.2629 61.4058H68.07C68.6997 61.4058 69.2103 60.8953 69.2103 60.2655V54.5637C69.2103 53.9339 68.6998 53.4233 68.07 53.4233Z" fill="#F5FFFF"/>
<g filter="url(#filter1_dd_731_5592)">
<path fill-rule="evenodd" clip-rule="evenodd" d="M49.0634 56.1515C49.0667 56.1484 49.0701 56.1453 49.0733 56.142C49.2088 56.0083 49.2088 55.7914 49.0733 55.6577C48.9396 55.5255 48.7236 55.524 48.5879 55.6529L48.5875 55.6526L47.3653 56.8571C47.2298 56.9438 47.0902 56.9165 46.9845 56.8619L47.618 57.4876C47.7032 57.4829 47.8154 57.3876 47.8678 57.3324L49.0634 56.1515ZM46.8557 56.77L46.8559 56.7698L46.8428 56.7568C46.8468 56.7611 46.8511 56.7655 46.8557 56.77Z" fill="url(#paint0_linear_731_5592)"/>
<path fill-rule="evenodd" clip-rule="evenodd" d="M49.6331 58.3563C49.6353 58.3587 49.6376 58.361 49.6399 58.3632C49.7753 58.497 49.9949 58.497 50.1303 58.3632C50.2641 58.231 50.2657 58.0177 50.135 57.8836L50.1352 57.8833L48.9157 56.6761C48.828 56.5423 48.8556 56.4045 48.9109 56.3L48.2773 56.9258C48.2821 57.0099 48.3786 57.1207 48.4345 57.1724L49.6331 58.3563ZM49.0039 56.1728L49.0041 56.173L49.0172 56.16C49.0129 56.164 49.0085 56.1683 49.0039 56.1728Z" fill="url(#paint1_linear_731_5592)"/>
<path fill-rule="evenodd" clip-rule="evenodd" d="M46.8584 56.7365C46.8552 56.7332 46.8521 56.7299 46.8488 56.7267C46.7134 56.5929 46.4938 56.5929 46.3584 56.7267C46.2246 56.8588 46.223 57.0721 46.3536 57.2062L46.3533 57.2065L47.5728 58.4138C47.6605 58.5476 47.6329 58.6854 47.5776 58.7899L48.2111 58.1641C48.2064 58.08 48.1099 57.9691 48.054 57.9175L46.8584 56.7365ZM47.4846 58.9171L47.4844 58.9169L47.4713 58.9299C47.4756 58.9259 47.48 58.9216 47.4846 58.9171Z" fill="url(#paint2_linear_731_5592)"/>
<path fill-rule="evenodd" clip-rule="evenodd" d="M47.4312 58.9343C47.4264 58.9386 47.4216 58.9431 47.417 58.9477C47.2816 59.0814 47.2816 59.2983 47.417 59.432C47.5508 59.5642 47.7668 59.5657 47.9026 59.4367L47.9031 59.4372L49.1253 58.2327C49.2608 58.146 49.4004 58.1733 49.5061 58.2279L48.8726 57.6022C48.7874 57.6069 48.6752 57.7022 48.6228 57.7574L47.4312 58.9343ZM49.6349 58.3198L49.6347 58.32L49.6479 58.333C49.6438 58.3287 49.6395 58.3243 49.6349 58.3198Z" fill="url(#paint3_linear_731_5592)"/>
<path d="M52.1128 56.5911H50.8073C50.7087 56.5911 50.6294 56.6719 50.6294 56.7697C50.6294 56.8675 50.7087 56.9462 50.8073 56.9462H51.281V58.3136C51.281 58.4114 51.3625 58.4901 51.4611 58.4901C51.5597 58.4901 51.639 58.4114 51.639 58.3136V56.9462H52.1128C52.2135 56.9462 52.2928 56.8675 52.2928 56.7697C52.2928 56.6719 52.2135 56.5911 52.1128 56.5911ZM53.6988 57.7883C53.911 57.6884 54.0589 57.4715 54.0589 57.2205C54.0589 56.8739 53.776 56.5911 53.4265 56.5911H52.6763C52.6141 56.5911 52.5606 56.623 52.5284 56.6698C52.5091 56.6974 52.4984 56.7314 52.4984 56.7697V58.3136C52.4984 58.4114 52.5777 58.4901 52.6763 58.4901C52.7749 58.4901 52.8542 58.4114 52.8542 58.3136V57.85H53.2937L53.7395 58.4221C53.7738 58.4667 53.8274 58.4901 53.881 58.4901C53.9196 58.4901 53.9581 58.4795 53.9903 58.454C54.0696 58.3944 54.0824 58.2817 54.0225 58.2051L53.6988 57.7883ZM52.8542 56.9462H53.4265C53.5787 56.9462 53.7009 57.0696 53.7009 57.2205C53.7009 57.3715 53.5787 57.4949 53.4265 57.4949C53.4223 57.4949 53.3837 57.4949 53.3815 57.4949C53.3794 57.4949 53.3794 57.4949 53.3794 57.4949H52.8542V56.9462ZM53.3815 57.4949C53.3794 57.4949 53.3794 57.4949 53.3794 57.4949C53.3837 57.4949 53.3858 57.4949 53.3815 57.4949ZM56.1821 58.2328L55.3933 56.691C55.3933 56.6931 55.3955 56.6953 55.3955 56.6974C55.3847 56.6698 55.3654 56.6464 55.3397 56.6272C55.3376 56.6251 55.3376 56.6251 55.3354 56.623C55.3312 56.6208 55.329 56.6187 55.3268 56.6187C55.3226 56.6166 55.3183 56.6145 55.3162 56.6123C55.314 56.6102 55.314 56.6102 55.314 56.6102C55.3076 56.6081 55.3033 56.606 55.2968 56.6038C55.2861 56.5996 55.2754 56.5953 55.2647 56.5932C55.2625 56.5932 55.2625 56.5932 55.2604 56.5932C55.2561 56.5932 55.2518 56.5932 55.2475 56.5911C55.2454 56.5911 55.2454 56.5911 55.2454 56.5911C55.2411 56.5911 55.2368 56.5911 55.2325 56.5911H55.2304C55.2283 56.5911 55.2261 56.5911 55.2261 56.5911C55.1768 56.5932 55.1361 56.6145 55.1061 56.6442C55.1039 56.6442 55.1039 56.6464 55.1039 56.6464C55.0997 56.6506 55.0953 56.6527 55.0932 56.657C55.0932 56.6591 55.0932 56.6591 55.0911 56.6591C55.0889 56.6634 55.0868 56.6676 55.0846 56.6698C55.0825 56.6719 55.0825 56.6719 55.0803 56.674C55.0782 56.6783 55.0761 56.6825 55.0739 56.6868V56.6889L54.2829 58.2328C54.2208 58.3519 54.3087 58.4901 54.4416 58.4901C54.5059 58.4901 54.5702 58.4561 54.6024 58.3944L54.7267 58.1499H55.7384L55.8649 58.3944C55.9078 58.4816 56.0171 58.5156 56.1049 58.471C56.1928 58.4284 56.2271 58.32 56.1821 58.2328ZM55.3997 56.7038C55.3997 56.7038 55.3976 56.7038 55.3976 56.7017C55.3976 56.7017 55.3976 56.6995 55.3976 56.6974C55.3976 56.6995 55.3976 56.7017 55.3997 56.7038ZM55.2325 57.161L55.5562 57.7947H54.9088L55.2325 57.161ZM58.0484 58.4221C58.0484 58.4199 58.0506 58.4178 58.0528 58.4157C58.0528 58.4135 58.0549 58.4135 58.0549 58.4114C58.057 58.4093 58.057 58.4072 58.0592 58.405C58.0592 58.4029 58.0613 58.4029 58.0613 58.4008C58.0656 58.3965 58.0678 58.3902 58.0699 58.3859C58.0699 58.3859 58.0699 58.3859 58.0699 58.3838C58.072 58.3816 58.072 58.3795 58.0742 58.3774C58.0742 58.3753 58.0742 58.3731 58.0763 58.3731C58.0763 58.371 58.0763 58.3668 58.0785 58.3646C58.0785 58.3646 58.0785 58.3625 58.0785 58.3604C58.0806 58.3583 58.0806 58.3561 58.0828 58.3519V58.3497C58.0828 58.3434 58.0849 58.3391 58.0849 58.3327C58.0849 58.3327 58.0849 58.3306 58.0871 58.3306C58.0871 58.3264 58.0871 58.3242 58.0871 58.3221C58.0871 58.32 58.0871 58.3179 58.0871 58.3179C58.0871 58.3157 58.0871 58.3136 58.0871 58.3115V58.3093C58.0871 58.3072 58.0871 58.3051 58.0871 58.3051C58.0871 58.3008 58.0871 58.2987 58.0871 58.2966V56.7676C58.0871 56.6698 58.0056 56.5911 57.907 56.5911C57.8084 56.5911 57.7291 56.6698 57.7291 56.7676V57.8287L56.7259 56.6549C56.6916 56.6145 56.6423 56.5911 56.5866 56.5911C56.4772 56.5911 56.4044 56.6825 56.4087 56.7782V58.3115C56.4087 58.4114 56.488 58.4901 56.5866 58.4901C56.6852 58.4901 56.7666 58.4114 56.7666 58.3115V57.2524L57.7698 58.4263C57.7698 58.4263 57.7698 58.4242 57.7676 58.4242C57.7698 58.4263 57.772 58.4284 57.7741 58.4306C57.7741 58.4327 57.7762 58.4327 57.7762 58.4327C57.7784 58.4348 57.7805 58.4369 57.7805 58.4391C57.7826 58.4391 57.7826 58.4391 57.7826 58.4391C57.7891 58.4454 57.7934 58.4497 57.7998 58.454L57.8019 58.4561C57.8041 58.4582 57.8063 58.4582 57.8084 58.4603C57.8105 58.4625 57.8127 58.4625 57.8148 58.4646C57.8169 58.4667 57.8213 58.4688 57.8234 58.471C57.8255 58.471 57.8255 58.471 57.8277 58.4731C57.8298 58.4731 57.8298 58.4731 57.8319 58.4731C57.8319 58.4752 57.8341 58.4752 57.8341 58.4752H57.8363C57.8341 58.4752 57.8341 58.4752 57.8341 58.4752C57.8341 58.4752 57.8341 58.4752 57.8319 58.4731C57.8384 58.4752 57.8427 58.4773 57.8469 58.4795C57.8491 58.4795 57.8513 58.4816 57.8513 58.4816C57.8555 58.4816 57.8598 58.4837 57.862 58.4837C57.8641 58.4858 57.8663 58.4858 57.8663 58.4858C57.8706 58.4858 57.8748 58.488 57.877 58.488C57.8791 58.488 57.8813 58.488 57.8813 58.488C57.8877 58.4901 57.892 58.4901 57.8963 58.4901H57.8984C57.9027 58.4901 57.907 58.4901 57.9113 58.4901C57.9134 58.4901 57.9134 58.4901 57.9156 58.4901C57.9177 58.4901 57.922 58.4901 57.9241 58.4901C57.9263 58.4901 57.9284 58.4901 57.9284 58.4901C57.9327 58.4901 57.937 58.488 57.9391 58.488C57.9413 58.488 57.9413 58.488 57.9413 58.488C57.9413 58.488 57.9413 58.488 57.9434 58.488C57.9477 58.488 57.952 58.4858 57.9563 58.4837H57.9584C57.9627 58.4816 57.9649 58.4816 57.967 58.4795C57.9691 58.4795 57.9713 58.4795 57.9734 58.4795C57.9756 58.4773 57.9777 58.4773 57.9799 58.4752C57.982 58.4752 57.9841 58.4731 57.9841 58.4731C57.9884 58.471 57.9906 58.4688 57.9949 58.4688C57.9949 58.4667 57.9949 58.4667 57.997 58.4667C57.997 58.4667 57.997 58.4667 57.9991 58.4667C58.0013 58.4646 58.0034 58.4625 58.0077 58.4603C58.0077 58.4582 58.0099 58.4582 58.012 58.4561C58.0142 58.4561 58.0163 58.454 58.0163 58.4518C58.0184 58.4518 58.0206 58.4497 58.0228 58.4497C58.0228 58.4476 58.0249 58.4454 58.027 58.4433C58.0292 58.4433 58.0292 58.4412 58.0313 58.4391C58.0334 58.4369 58.0356 58.4348 58.0399 58.4327C58.0399 58.4306 58.042 58.4284 58.0442 58.4263C58.0442 58.4242 58.0463 58.4242 58.0484 58.4221ZM59.7036 58.1371H58.8762L59.843 56.8782L59.8451 56.876C59.8472 56.8739 59.8472 56.8739 59.8494 56.8718C59.8494 56.8697 59.8515 56.8675 59.8515 56.8675C59.8537 56.8654 59.8537 56.8633 59.8537 56.8633C59.8558 56.8611 59.8558 56.8611 59.8558 56.859C59.858 56.8569 59.8601 56.8548 59.8601 56.8526C59.8622 56.8505 59.8622 56.8505 59.8622 56.8484C59.8644 56.8463 59.8644 56.8463 59.8644 56.8441C59.8665 56.842 59.8665 56.842 59.8665 56.8399C59.8665 56.8378 59.8687 56.8356 59.8687 56.8356C59.8687 56.8335 59.8708 56.8314 59.8708 56.8314V56.8292C59.8708 56.8271 59.873 56.825 59.873 56.825C59.873 56.8229 59.873 56.8207 59.8751 56.8186C59.8751 56.8165 59.8751 56.8144 59.8751 56.8144C59.8772 56.8122 59.8772 56.8101 59.8772 56.8101V56.808C59.8772 56.8059 59.8772 56.8037 59.8794 56.8016C59.8794 56.8016 59.8794 56.7995 59.8794 56.7973C59.8794 56.7952 59.8794 56.7931 59.8794 56.791C59.8794 56.7888 59.8815 56.7867 59.8815 56.7867C59.8815 56.7846 59.8815 56.7825 59.8815 56.7825C59.8815 56.7803 59.8815 56.7761 59.8815 56.774C59.8815 56.7718 59.8815 56.7697 59.8815 56.7697C59.8815 56.7676 59.8815 56.7655 59.8815 56.7633V56.7612C59.8815 56.7591 59.8815 56.7569 59.8815 56.7569C59.8815 56.7527 59.8815 56.7506 59.8794 56.7484C59.8794 56.7463 59.8794 56.7442 59.8794 56.7442C59.8794 56.7421 59.8794 56.7399 59.8794 56.7378C59.8794 56.7357 59.8772 56.7336 59.8772 56.7314C59.8772 56.7293 59.8772 56.7272 59.8772 56.725C59.8751 56.725 59.8751 56.7229 59.8751 56.7208C59.8751 56.7187 59.873 56.7165 59.873 56.7144C59.873 56.7123 59.8708 56.7102 59.8708 56.708C59.8708 56.7059 59.8687 56.7059 59.8687 56.7038C59.8687 56.7017 59.8665 56.6995 59.8665 56.6974C59.8665 56.6953 59.8644 56.6931 59.8644 56.691L59.8622 56.6889C59.8622 56.6868 59.8622 56.6868 59.8622 56.6868C59.8601 56.6846 59.8601 56.6846 59.8601 56.6825C59.858 56.6804 59.8558 56.6783 59.8558 56.6761C59.8537 56.674 59.8537 56.674 59.8515 56.6719C59.8515 56.6698 59.8515 56.6698 59.8494 56.6676C59.8494 56.6655 59.8472 56.6634 59.8451 56.6612C59.8451 56.6612 59.843 56.6591 59.843 56.657C59.8408 56.657 59.8408 56.6549 59.8387 56.6549C59.8387 56.6527 59.8365 56.6506 59.8344 56.6485C59.8322 56.6464 59.8322 56.6464 59.8301 56.6442L59.828 56.6421C59.8258 56.64 59.8237 56.6379 59.8215 56.6357L59.8194 56.6336C59.8172 56.6336 59.8172 56.6336 59.8172 56.6315H59.8151C59.8151 56.6293 59.813 56.6293 59.8108 56.6272C59.8087 56.6272 59.8087 56.6251 59.8065 56.623C59.8044 56.623 59.8022 56.6208 59.8022 56.6208C59.8001 56.6208 59.7979 56.6187 59.7979 56.6187C59.7958 56.6166 59.7958 56.6166 59.7937 56.6166C59.7915 56.6145 59.7893 56.6145 59.7893 56.6123C59.7872 56.6123 59.7872 56.6123 59.7872 56.6123C59.7851 56.6123 59.7851 56.6102 59.7829 56.6102C59.7808 56.6102 59.7808 56.6081 59.7787 56.6081C59.7765 56.6081 59.7765 56.606 59.7743 56.606C59.7722 56.606 59.7701 56.6038 59.7701 56.6038C59.7679 56.6038 59.7658 56.6017 59.7637 56.6017C59.7615 56.6017 59.7615 56.6017 59.7594 56.5996C59.7572 56.5996 59.7551 56.5996 59.7529 56.5975C59.7508 56.5975 59.7508 56.5975 59.7487 56.5975C59.7465 56.5975 59.7444 56.5953 59.7422 56.5953C59.7401 56.5953 59.7379 56.5953 59.7358 56.5953C59.7358 56.5953 59.7336 56.5932 59.7315 56.5932C59.7294 56.5932 59.7272 56.5932 59.725 56.5932C59.7229 56.5932 59.7208 56.5932 59.7208 56.5911C59.7186 56.5911 59.7165 56.5911 59.7165 56.5911C59.7144 56.5911 59.71 56.5911 59.7079 56.5911C59.7058 56.5911 59.7036 56.5911 59.7036 56.5911H58.514C58.4154 56.5911 58.3361 56.6719 58.3361 56.7697C58.3361 56.8675 58.4154 56.9462 58.514 56.9462H59.3414L58.3725 58.2051C58.3703 58.2073 58.3703 58.2094 58.3682 58.2094C58.3661 58.2115 58.3661 58.2136 58.3639 58.2158C58.3639 58.2179 58.3618 58.2179 58.3618 58.22C58.3618 58.2222 58.3597 58.2222 58.3597 58.2243C58.3575 58.2264 58.3575 58.2285 58.3553 58.2307C58.3553 58.2328 58.3553 58.2328 58.3532 58.2349C58.3532 58.237 58.3511 58.2392 58.3511 58.2413C58.3511 58.2413 58.3489 58.2434 58.3489 58.2455C58.3489 58.2477 58.3468 58.2477 58.3468 58.2498C58.3468 58.2519 58.3447 58.2541 58.3447 58.2562C58.3447 58.2562 58.3447 58.2583 58.3425 58.2604C58.3425 58.2604 58.3425 58.2604 58.3425 58.2626C58.3425 58.2626 58.3425 58.2647 58.3425 58.2668C58.3403 58.2668 58.3403 58.2689 58.3403 58.2711C58.3403 58.2732 58.3403 58.2732 58.3382 58.2753C58.3382 58.2774 58.3382 58.2796 58.3382 58.2817V58.2838C58.3382 58.286 58.3382 58.286 58.3361 58.286C58.3361 58.2881 58.3361 58.2902 58.3361 58.2923C58.3361 58.2945 58.3361 58.2966 58.3361 58.2966C58.3361 58.2987 58.3361 58.3008 58.3361 58.3008C58.3361 58.303 58.3361 58.3051 58.3361 58.3072C58.3361 58.3093 58.3361 58.3115 58.3361 58.3136C58.3361 58.3157 58.3361 58.3179 58.3361 58.32C58.3361 58.3242 58.3361 58.3285 58.3361 58.3306C58.3361 58.3327 58.3361 58.3327 58.3361 58.3327C58.3361 58.3349 58.3361 58.3349 58.3361 58.3349C58.3361 58.337 58.3361 58.337 58.3361 58.337C58.3382 58.3412 58.3382 58.3455 58.3382 58.3476C58.3382 58.3497 58.3382 58.3497 58.3382 58.3519H58.3403C58.3403 58.354 58.3403 58.354 58.3403 58.3561C58.3403 58.3583 58.3425 58.3604 58.3425 58.3646V58.3668C58.3447 58.3689 58.3447 58.3689 58.3447 58.3689C58.3447 58.371 58.3447 58.371 58.3447 58.371C58.3468 58.3753 58.3468 58.3774 58.3489 58.3816V58.3838L58.3511 58.3859C58.3511 58.3859 58.3511 58.3859 58.3511 58.388C58.3511 58.3902 58.3532 58.3923 58.3553 58.3944C58.3553 58.3944 58.3553 58.3944 58.3553 58.3965C58.3553 58.3965 58.3575 58.3987 58.3575 58.4008C58.3597 58.4008 58.3597 58.4029 58.3618 58.405C58.3618 58.4072 58.3639 58.4093 58.3639 58.4114C58.3661 58.4114 58.3661 58.4135 58.3661 58.4135C58.3682 58.4157 58.3703 58.4178 58.3703 58.4199C58.3725 58.4221 58.3725 58.4242 58.3747 58.4242C58.3747 58.4263 58.3768 58.4263 58.3768 58.4284C58.3789 58.4306 58.3811 58.4327 58.3832 58.4327C58.3832 58.4348 58.3853 58.4369 58.3853 58.4369C58.3875 58.4391 58.3875 58.4391 58.3897 58.4412C58.3918 58.4433 58.3918 58.4433 58.3939 58.4454C58.3961 58.4476 58.3961 58.4476 58.3982 58.4497C58.3982 58.4497 58.3982 58.4497 58.4004 58.4497V58.4518C58.4025 58.4518 58.4046 58.454 58.4046 58.454C58.4068 58.4561 58.409 58.4561 58.4111 58.4582C58.4111 58.4603 58.4132 58.4603 58.4154 58.4625C58.4175 58.4625 58.4175 58.4625 58.4175 58.4625C58.4196 58.4646 58.4196 58.4646 58.4218 58.4646C58.4218 58.4667 58.424 58.4667 58.424 58.4667C58.4261 58.4688 58.4282 58.4688 58.4304 58.471C58.4325 58.471 58.4346 58.4731 58.4368 58.4731C58.439 58.4752 58.4411 58.4752 58.4432 58.4773C58.4454 58.4773 58.4454 58.4773 58.4454 58.4773C58.4475 58.4773 58.4496 58.4795 58.4496 58.4795C58.4518 58.4795 58.454 58.4816 58.4582 58.4816C58.4582 58.4816 58.4582 58.4816 58.4604 58.4837C58.4604 58.4837 58.4625 58.4837 58.4647 58.4837C58.4668 58.4837 58.469 58.4858 58.4711 58.4858C58.4732 58.4858 58.4732 58.4858 58.4754 58.4858C58.4775 58.488 58.4797 58.488 58.4797 58.488C58.4818 58.488 58.484 58.488 58.4861 58.488C58.4883 58.4901 58.4904 58.4901 58.4925 58.4901C58.4947 58.4901 58.4947 58.4901 58.4968 58.4901C58.5033 58.4901 58.5075 58.4901 58.514 58.4901H59.7036C59.8022 58.4901 59.8815 58.4114 59.8815 58.3136C59.8815 58.2158 59.8022 58.1371 59.7036 58.1371ZM61.9596 58.2328L61.1708 56.691C61.1708 56.6931 61.1729 56.6953 61.1729 56.6974C61.1622 56.6698 61.1429 56.6464 61.1172 56.6272C61.1151 56.6251 61.1151 56.6251 61.1129 56.623C61.1086 56.6208 61.1065 56.6187 61.1043 56.6187C61.1 56.6166 61.0958 56.6145 61.0936 56.6123C61.0914 56.6102 61.0914 56.6102 61.0914 56.6102C61.085 56.6081 61.0808 56.606 61.0743 56.6038C61.0636 56.5996 61.0529 56.5953 61.0422 56.5932C61.04 56.5932 61.04 56.5932 61.0379 56.5932C61.0336 56.5932 61.0293 56.5932 61.025 56.5911C61.0229 56.5911 61.0229 56.5911 61.0229 56.5911C61.0186 56.5911 61.0143 56.5911 61.01 56.5911H61.0079C61.0057 56.5911 61.0036 56.5911 61.0036 56.5911C60.9543 56.5932 60.9136 56.6145 60.8835 56.6442C60.8814 56.6442 60.8814 56.6464 60.8814 56.6464C60.8771 56.6506 60.8728 56.6527 60.8707 56.657C60.8707 56.6591 60.8707 56.6591 60.8685 56.6591C60.8664 56.6634 60.8643 56.6676 60.8621 56.6698C60.8599 56.6719 60.8599 56.6719 60.8578 56.674C60.8557 56.6783 60.8535 56.6825 60.8514 56.6868V56.6889L60.0604 58.2328C59.9983 58.3519 60.0862 58.4901 60.219 58.4901C60.2833 58.4901 60.3476 58.4561 60.3798 58.3944L60.5041 58.1499H61.5159L61.6424 58.3944C61.6852 58.4816 61.7945 58.5156 61.8824 58.471C61.9703 58.4284 62.0046 58.32 61.9596 58.2328ZM61.1772 56.7038C61.1772 56.7038 61.1751 56.7038 61.1751 56.7017C61.1751 56.7017 61.1751 56.6995 61.1751 56.6974C61.1751 56.6995 61.1751 56.7017 61.1772 56.7038ZM61.01 57.161L61.3337 57.7947H60.6863L61.01 57.161ZM63.5556 57.9521C63.5127 57.9521 63.4677 57.9691 63.4334 58.001C63.3177 58.1094 63.1633 58.1711 63.0026 58.1711C62.6553 58.1711 62.3724 57.8904 62.3724 57.5459C62.3724 57.2014 62.6553 56.9207 63.0026 56.9207C63.1676 56.9207 63.322 56.9824 63.4399 57.0951C63.5106 57.1631 63.6242 57.161 63.6928 57.0908C63.7614 57.0206 63.7592 56.9079 63.6885 56.8399C63.502 56.6634 63.2598 56.5656 63.0026 56.5656C62.4581 56.5656 62.0165 57.0058 62.0165 57.5459C62.0165 58.0861 62.4581 58.5241 63.0026 58.5241C63.2555 58.5241 63.4956 58.4306 63.6778 58.2604C63.7978 58.1499 63.7185 57.9521 63.5556 57.9521ZM65.3884 56.5911H64.0829C63.9844 56.5911 63.9051 56.6719 63.9051 56.7697C63.9051 56.8675 63.9844 56.9462 64.0829 56.9462H64.5566V58.3136C64.5566 58.4114 64.6381 58.4901 64.7367 58.4901C64.8353 58.4901 64.9146 58.4114 64.9146 58.3136V56.9462H65.3884C65.4891 56.9462 65.5684 56.8675 65.5684 56.7697C65.5684 56.6719 65.4891 56.5911 65.3884 56.5911Z" fill="#272828"/>
</g>
<g filter="url(#filter2_f_731_5592)">
<path d="M80.6141 71.0987C80.6141 72.6732 68.6161 73.9496 53.8158 73.9496C39.0156 73.9496 27.0176 72.6732 27.0176 71.0987C27.0176 69.5242 39.0156 68.2478 53.8158 68.2478C68.6161 68.2478 80.6141 69.5242 80.6141 71.0987Z" fill="#3E588A" fill-opacity="0.38"/>
</g>
</g>
<path d="M26.4863 21.5088L22.0549 17.3593L21.0545 18.5703L25.4859 22.7198L26.4863 21.5088Z" fill="#ADF0D0"/>
<path d="M29.665 18.134L27.2888 12.6861L25.9328 13.3904L28.309 18.8383L29.665 18.134Z" fill="#ADF0D0"/>
<path d="M22.7368 26.5129L23.2197 24.9911L17.8413 23.1775L17.3584 24.6994L22.7368 26.5129Z" fill="#ADF0D0"/>
<path d="M26.4863 21.5088L22.0549 17.3593L21.0545 18.5703L25.4859 22.7198L26.4863 21.5088Z" fill="#B1D8A9"/>
<path d="M29.665 18.1342L27.2888 12.6862L25.9328 13.3905L28.309 18.8384L29.665 18.1342Z" fill="#B1D8A9"/>
<path d="M22.7368 26.5131L23.2197 24.9912L17.8413 23.1777L17.3584 24.6995L22.7368 26.5131Z" fill="#B1D8A9"/>
<path d="M89.0396 21.4984L93.1891 17.067L91.9781 16.0666L87.8285 20.498L89.0396 21.4984Z" fill="#B1D8A9"/>
<path d="M92.4141 24.6772L97.862 22.301L97.1577 20.945L91.7098 23.3213L92.4141 24.6772Z" fill="#B1D8A9"/>
<path d="M84.0352 17.7491L85.557 18.2321L87.3706 12.8536L85.8487 12.3707L84.0352 17.7491Z" fill="#B1D8A9"/>
<defs>
<filter id="filter0_d_731_5592" x="33.5554" y="32.7703" width="46.2223" height="48.3889" filterUnits="userSpaceOnUse" color-interpolation-filters="sRGB">
<feFlood flood-opacity="0" result="BackgroundImageFix"/>
<feColorMatrix in="SourceAlpha" type="matrix" values="0 0 0 0 0 0 0 0 0 0 0 0 0 0 0 0 0 0 127 0" result="hardAlpha"/>
<feOffset dy="6.01852"/>
<feGaussianBlur stdDeviation="1.92593"/>
<feComposite in2="hardAlpha" operator="out"/>
<feColorMatrix type="matrix" values="0 0 0 0 0 0 0 0 0 0 0 0 0 0 0 0 0 0 0.13 0"/>
<feBlend mode="normal" in2="BackgroundImageFix" result="effect1_dropShadow_731_5592"/>
<feBlend mode="normal" in="SourceGraphic" in2="effect1_dropShadow_731_5592" result="shape"/>
</filter>
<filter id="filter1_dd_731_5592" x="43.6732" y="53.7686" width="25.0428" height="9.14254" filterUnits="userSpaceOnUse" color-interpolation-filters="sRGB">
<feFlood flood-opacity="0" result="BackgroundImageFix"/>
<feColorMatrix in="SourceAlpha" type="matrix" values="0 0 0 0 0 0 0 0 0 0 0 0 0 0 0 0 0 0 127 0" result="hardAlpha"/>
<feOffset dy="0.795003"/>
<feGaussianBlur stdDeviation="0.795003"/>
<feColorMatrix type="matrix" values="0 0 0 0 0 0 0 0 0 0 0 0 0 0 0 0 0 0 0.08 0"/>
<feBlend mode="normal" in2="BackgroundImageFix" result="effect1_dropShadow_731_5592"/>
<feColorMatrix in="SourceAlpha" type="matrix" values="0 0 0 0 0 0 0 0 0 0 0 0 0 0 0 0 0 0 127 0" result="hardAlpha"/>
<feOffset/>
<feGaussianBlur stdDeviation="0.198751"/>
<feColorMatrix type="matrix" values="0 0 0 0 0 0 0 0 0 0 0 0 0 0 0 0 0 0 0.04 0"/>
<feBlend mode="normal" in2="effect1_dropShadow_731_5592" result="effect2_dropShadow_731_5592"/>
<feBlend mode="normal" in="SourceGraphic" in2="effect2_dropShadow_731_5592" result="shape"/>
</filter>
<filter id="filter2_f_731_5592" x="12.8671" y="54.0974" width="81.8976" height="34.0027" filterUnits="userSpaceOnUse" color-interpolation-filters="sRGB">
<feFlood flood-opacity="0" result="BackgroundImageFix"/>
<feBlend mode="normal" in="SourceGraphic" in2="BackgroundImageFix" result="shape"/>
<feGaussianBlur stdDeviation="7.07522" result="effect1_foregroundBlur_731_5592"/>
</filter>
<linearGradient id="paint0_linear_731_5592" x1="48.9165" y1="55.5028" x2="47.2653" y2="57.1745" gradientUnits="userSpaceOnUse">
<stop stop-color="#78DBF8"/>
<stop offset="0.690625" stop-color="#50BEF2"/>
<stop offset="1" stop-color="#42B4F0"/>
</linearGradient>
<linearGradient id="paint1_linear_731_5592" x1="50.287" y1="58.2084" x2="48.6357" y2="56.5365" gradientUnits="userSpaceOnUse">
<stop stop-color="#FAE267"/>
<stop offset="0.651042" stop-color="#F7D14E"/>
<stop offset="1" stop-color="#F6C841"/>
</linearGradient>
<linearGradient id="paint2_linear_731_5592" x1="46.2016" y1="56.8815" x2="47.8528" y2="58.5534" gradientUnits="userSpaceOnUse">
<stop stop-color="#3FB3B7"/>
<stop offset="0.690625" stop-color="#309599"/>
<stop offset="1" stop-color="#278589"/>
</linearGradient>
<linearGradient id="paint3_linear_731_5592" x1="47.5739" y1="59.587" x2="49.2252" y2="57.9152" gradientUnits="userSpaceOnUse">
<stop stop-color="#E95F45"/>
<stop offset="0.739583" stop-color="#D83F2E"/>
<stop offset="1" stop-color="#D23426"/>
</linearGradient>
<clipPath id="clip0_731_5592">
<rect width="38.5186" height="38.5186" fill="white" transform="translate(37.4072 32.7703)"/>
</clipPath>
</defs>
</svg>
