<svg width="114" height="115" viewBox="0 0 114 115" fill="none" xmlns="http://www.w3.org/2000/svg">
<g filter="url(#filter0_f_731_3706)">
<ellipse cx="57.6667" cy="95.8547" rx="35.5" ry="5.81967" fill="#3E588A" fill-opacity="0.26"/>
</g>
<g clip-path="url(#clip0_731_3706)">
<path d="M28.1677 56.8333L34.8364 42.7401H79.4982L86.1666 56.8333L59.424 64.645" fill="#E9BB91"/>
<path d="M86.1662 56.834H28.1674V100.74H86.1662V56.834Z" fill="#CA936C"/>
<path d="M61.7319 56.8337V69.0218H52.6024V56.8337L53.6523 42.74H60.6821L61.7319 56.8337Z" fill="#764F43"/>
<path d="M61.7311 88.5509H52.6016V100.739H61.7311V88.5509Z" fill="#764F43"/>
<path d="M52.6019 56.8333L53.6517 42.7401H60.6818L61.7316 56.8333" fill="#8E6459"/>
<path d="M33.4075 86.5517L34.8788 85.0805V92.1063C34.8788 92.5965 35.2762 92.994 35.7666 92.994C36.2569 92.994 36.6543 92.5965 36.6543 92.1063V85.0805L38.1255 86.5516C38.2989 86.725 38.526 86.8117 38.7533 86.8117C38.9804 86.8117 39.2076 86.725 39.3811 86.5516C39.7278 86.205 39.7278 85.6428 39.3811 85.2963L36.3945 82.3095C36.2279 82.143 36.0022 82.0494 35.7667 82.0494C35.5313 82.0494 35.3055 82.1429 35.1389 82.3095L32.1522 85.2963C31.8054 85.6429 31.8054 86.2051 32.1522 86.5516C32.4987 86.8984 33.0608 86.8985 33.4075 86.5517Z" fill="#764F43"/>
<path d="M42.2845 86.5517L43.7556 85.0806V92.1064C43.7556 92.5967 44.153 92.9941 44.6434 92.9941C45.1338 92.9941 45.5312 92.5967 45.5312 92.1064V85.0806L47.0023 86.5517C47.1757 86.7252 47.4029 86.8118 47.6301 86.8118C47.8572 86.8118 48.0845 86.7252 48.2579 86.5517C48.6047 86.2051 48.6047 85.6429 48.2579 85.2964L45.2713 82.3097C45.1048 82.1431 44.879 82.0496 44.6435 82.0496C44.408 82.0496 44.1823 82.143 44.0157 82.3097L41.0291 85.2964C40.6824 85.643 40.6824 86.2052 41.0291 86.5517C41.3757 86.8984 41.9377 86.8984 42.2845 86.5517Z" fill="#764F43"/>
<path d="M47.5727 94.2961H32.837C32.3466 94.2961 31.9492 94.6936 31.9492 95.1839C31.9492 95.6742 32.3466 96.0717 32.837 96.0717H47.5726C48.063 96.0717 48.4604 95.6742 48.4604 95.1839C48.4604 94.6936 48.0631 94.2961 47.5727 94.2961Z" fill="#764F43"/>
<path d="M81.7336 62.8695H65.9331V75.1203H81.7336V62.8695Z" fill="#F5FFFF"/>
<path d="M78.4202 67.7558H69.3658C68.8754 67.7558 68.478 67.3583 68.478 66.868C68.478 66.3777 68.8754 65.9802 69.3658 65.9802H78.4202C78.9106 65.9802 79.308 66.3777 79.308 66.868C79.308 67.3583 78.9106 67.7558 78.4202 67.7558Z" fill="#764F43"/>
<path d="M78.4203 72.0099H69.3659C68.8755 72.0099 68.4781 71.6124 68.4781 71.1221C68.4781 70.6319 68.8755 70.2344 69.3659 70.2344H78.4203C78.9107 70.2344 79.3081 70.6319 79.3081 71.1221C79.3081 71.6124 78.9107 72.0099 78.4203 72.0099Z" fill="#764F43"/>
<g filter="url(#filter1_f_731_3706)">
<ellipse cx="52.5531" cy="99.422" rx="40.2045" ry="5.27273" fill="#3E588A" fill-opacity="0.38"/>
</g>
</g>
<path d="M94.5619 33.0095L92.5909 31.0894L95.0494 28.5656C95.3271 28.2807 95.3211 27.8246 95.0361 27.547C94.7512 27.2694 94.2951 27.2753 94.0175 27.5603L91.0563 30.6C90.7786 30.885 90.7846 31.3411 91.0696 31.6187L93.5566 34.0415C93.8416 34.3191 94.2977 34.3131 94.5753 34.0282C94.8529 33.7432 94.8469 33.2871 94.5619 33.0095Z" fill="#265C76"/>
<path d="M102.708 30.9576C102.67 27.9831 101.475 25.2018 99.344 23.1261C97.2133 21.0503 94.4017 19.9287 91.4273 19.9676C88.694 20.0033 86.1242 21.0149 84.1148 22.832L82.9564 21.7035C82.7477 21.5002 82.4371 21.4426 82.1694 21.5577C81.9017 21.6727 81.7296 21.9376 81.7334 22.229L81.8048 27.6844C81.8073 27.8754 81.8855 28.0576 82.0224 28.1909C82.1592 28.3242 82.3434 28.3978 82.5344 28.3952L87.9899 28.3238C88.2812 28.32 88.5415 28.1411 88.6496 27.8705C88.7575 27.5999 88.6919 27.2909 88.4832 27.0876L87.369 26.0022C89.9345 23.8846 93.7488 23.9954 96.185 26.3687C97.4497 27.6007 98.1588 29.2513 98.1819 31.0167C98.205 32.782 97.5393 34.4507 96.3073 35.7153C93.7642 38.3259 89.5713 38.3808 86.9607 35.8376C86.1357 35.0339 85.5337 34.0277 85.2197 32.9297C85.2172 32.9193 85.2145 32.9085 85.2113 32.8973C85.1035 32.515 84.8968 32.1671 84.6134 31.8911C84.0355 31.3281 83.1945 31.1143 82.4186 31.3331C81.8366 31.4971 81.3534 31.878 81.058 32.4056C80.7717 32.9167 80.695 33.5062 80.8398 34.0717C80.8434 34.0897 80.8477 34.1077 80.8528 34.1257C81.3798 36.001 82.3995 37.7142 83.8018 39.0803C85.9325 41.156 88.7441 42.2778 91.7186 42.2389C94.693 42.2 97.4742 41.0051 99.55 38.8743C101.626 36.7435 102.747 33.9319 102.708 30.9576Z" fill="#7BCC9B"/>
<path d="M94.5627 33.0102L92.5916 31.09L95.0502 28.5663C95.3278 28.2813 95.3218 27.8252 95.0369 27.5476L91.0703 31.6193L93.5574 34.0421C93.8423 34.3197 94.2984 34.3138 94.576 34.0288C94.8536 33.7438 94.8476 33.2878 94.5627 33.0102Z" fill="#1D4659"/>
<path d="M102.708 30.9576C102.67 27.9831 101.475 25.2018 99.344 23.1261L96.185 26.3688C97.4497 27.6008 98.1588 29.2514 98.1819 31.0168C98.205 32.7821 97.5393 34.4508 96.3073 35.7154C93.7642 38.326 89.5713 38.3809 86.9607 35.8377L83.8018 39.0803C85.9325 41.1561 88.7441 42.2778 91.7186 42.2389C94.693 42.2 97.4742 41.0051 99.55 38.8743C101.626 36.7435 102.747 33.932 102.708 30.9576Z" fill="#47A66D"/>
<g clip-path="url(#clip1_731_3706)">
<path d="M14.0727 20.6919L13.6997 21.1634L10.6541 26.4136L6.2455 30.5854L5.81862 31.125C5.35836 31.7067 4.51366 31.8052 3.9319 31.345C3.35011 30.8847 3.25164 30.04 3.7119 29.4582L11.966 19.0252C12.4262 18.4434 13.2709 18.3449 13.8527 18.8052C14.4345 19.2654 14.533 20.1101 14.0727 20.6919Z" fill="#278C71"/>
<path d="M12.0199 18.957L11.2112 19.9792C11.6714 19.3975 12.5161 19.299 13.0979 19.7593C13.6797 20.2195 13.7782 21.0642 13.3179 21.646L14.1266 20.6237C14.5869 20.042 14.4884 19.1973 13.9066 18.737C13.3249 18.2767 12.4802 18.3752 12.0199 18.957Z" fill="#0A654D"/>
<path d="M14.9681 22.2777L13.6457 21.2315L6.24548 30.5853L7.56783 31.6315C9.61914 33.2544 12.4013 33.3237 14.4956 32.0053C14.7847 31.8233 15.157 31.8433 15.4248 32.0552C15.6927 32.2671 15.7978 32.6248 15.6872 32.948C14.8861 35.2894 15.5936 37.981 17.6449 39.6039L18.9672 40.6501L26.3675 31.2963L25.0451 30.2501C22.9938 28.6272 20.2117 28.5579 18.1173 29.8763C17.8283 30.0583 17.456 30.0383 17.1881 29.8264L17.242 29.7582C16.9742 29.5463 16.8152 29.2568 16.9258 28.9336C17.7269 26.5922 17.0194 23.9005 14.9681 22.2777Z" fill="#EFEDEF"/>
<path d="M6.24548 30.5853L6.91332 31.1137L13.0409 23.3685C13.3269 23.007 13.8518 22.9458 14.2133 23.2318C16.2582 24.8496 16.9677 27.5295 16.1784 29.8658C16.0807 30.1549 16.1367 30.4794 16.3465 30.701C16.6157 30.9852 17.0407 31.0329 17.3625 30.8304C19.4568 29.512 22.239 29.5813 24.2903 31.2042L25.6126 32.2503L26.4214 31.2281L25.0991 30.1819C23.0541 28.5641 20.2829 28.4902 18.1908 29.7959C17.932 29.9574 17.6033 29.9776 17.3394 29.8244C17.0008 29.6279 16.8566 29.2252 16.9797 28.8654C17.7808 26.524 17.0733 23.8324 15.022 22.2095L14.3675 21.6917L13.6997 21.1633L6.24548 30.5853Z" fill="#D7D0D6"/>
<path d="M28.9012 32.4234L20.6471 42.8565C20.1868 43.4383 19.3421 43.5368 18.7604 43.0765C18.1786 42.6162 18.0801 41.7715 18.5404 41.1898L18.9673 40.6501L22.0129 35.4L26.4215 31.2281L26.7945 30.7567C27.2548 30.1749 28.0995 30.0764 28.6812 30.5367C29.263 30.9969 29.3614 31.8417 28.9012 32.4234Z" fill="#278C71"/>
<path d="M26.8484 30.6886L26.0397 31.7108C26.4999 31.1291 27.3446 31.0306 27.9264 31.4908C28.5082 31.9511 28.6066 32.7958 28.1464 33.3775L28.9551 32.3553C29.4154 31.7735 29.3169 30.9288 28.7351 30.4686C28.1534 30.0083 27.3087 30.1068 26.8484 30.6886Z" fill="#0A654D"/>
<path d="M20.7935 30.7468L20.401 31.243C20.0063 31.742 19.2546 31.9502 18.6978 31.6424L17.3166 30.8789C16.6137 30.4903 16.4275 29.5636 16.9259 28.9337C17.4611 27.3695 17.322 25.6495 16.5599 24.1958L9.80079 32.7392C11.3908 33.1465 13.0967 32.8861 14.4957 32.0054C14.9941 31.3754 15.9387 31.3434 16.4787 31.9381L17.5395 33.1065C17.9672 33.5775 17.9913 34.2888 17.5966 34.7878L17.1501 35.3521C16.121 36.6528 16.324 38.5473 17.6191 39.5834C17.6278 39.5903 17.6364 39.5971 17.6451 39.604L18.9674 40.6502L26.3676 31.2963L25.0453 30.2502C25.0366 30.2433 25.0279 30.2365 25.0193 30.2297C23.7129 29.2077 21.8226 29.4461 20.7935 30.7468Z" fill="#6FD5BA"/>
<path d="M25.0731 30.1615C23.7668 29.1395 21.8765 29.3779 20.8474 30.6786L20.401 31.243C20.0062 31.742 19.3085 31.8821 18.7517 31.5743L17.3705 30.8107C16.6675 30.4221 16.4814 29.4954 16.9798 28.8655C17.515 27.3013 17.3759 25.5813 16.6137 24.1277L15.805 25.1499C16.5672 26.6036 16.7062 28.3236 16.1711 29.8878C15.6727 30.5177 15.8588 31.4444 16.5618 31.833L17.9429 32.5965C18.4997 32.9043 19.1975 32.7642 19.5922 32.2652L20.0387 31.7009C21.0678 30.4001 22.9581 30.1617 24.2644 31.1838C24.2731 31.1906 24.2818 31.1974 24.2904 31.2043L25.6128 32.2504L26.4215 31.2282L25.0992 30.182C25.0905 30.1752 25.0818 30.1684 25.0731 30.1615Z" fill="#2AA584"/>
</g>
<path d="M48.9668 11.74L53.1668 25.74L40.5668 11.74H48.9668Z" fill="#53AB81"/>
<path d="M65.7667 11.74L53.1667 25.74L57.3667 11.74H65.7667Z" fill="#4FB484"/>
<path d="M57.3668 11.74L53.1668 25.74L48.9668 11.74H57.3668Z" fill="#ADF0D0"/>
<path d="M61.5667 4.73999L65.7667 11.74H57.3667L61.5667 4.73999Z" fill="#388D64"/>
<path d="M53.1668 4.73999L57.3668 11.74H48.9668L53.1668 4.73999Z" fill="#3EC786"/>
<path d="M53.1667 4.73999L48.9667 11.74L44.7667 4.73999H53.1667Z" fill="#ADF0D0"/>
<path d="M61.5667 4.73999L57.3667 11.74L53.1667 4.73999H61.5667Z" fill="#ADF0D0"/>
<path d="M44.7668 4.73999L48.9668 11.74H40.5668L44.7668 4.73999Z" fill="#4CAF80"/>
<path d="M68.5668 11.04H74.1668V12.44H68.5668V11.04Z" fill="#ADF0D0"/>
<path d="M68.2881 6.8999L73.188 4.7992L73.7396 6.08593L68.8397 8.18663L68.2881 6.8999Z" fill="#ADF0D0"/>
<path d="M68.2922 16.5902L68.8439 15.3035L73.7438 17.4042L73.1921 18.6909L68.2922 16.5902Z" fill="#ADF0D0"/>
<path d="M32.1667 11.04H37.7667V12.44H32.1667V11.04Z" fill="#ADF0D0"/>
<path d="M32.5911 6.08423L33.1427 4.7975L38.0426 6.8982L37.4909 8.18493L32.5911 6.08423Z" fill="#ADF0D0"/>
<path d="M32.5896 17.3958L37.4895 15.295L38.0411 16.5818L33.1413 18.6825L32.5896 17.3958Z" fill="#ADF0D0"/>
<path d="M96.9476 47.2637C97.0304 47.2087 96.9721 47.0975 96.8798 47.1343L96.105 47.4432C95.1046 47.842 94.0136 47.5796 93.4658 46.8084L93.0417 46.2112C92.9911 46.14 92.864 46.2066 92.8938 46.2887L93.1436 46.9773C93.4662 47.8665 93.0612 48.9131 92.1641 49.5089L91.4694 49.9703C91.3865 50.0253 91.4448 50.1365 91.5372 50.0997L92.3119 49.7909C93.3123 49.3921 94.4034 49.6545 94.9511 50.4256L95.3753 51.0228C95.4259 51.094 95.5529 51.0274 95.5232 50.9453L95.2734 50.2567C94.9508 49.3676 95.3557 48.321 96.2528 47.7251L96.9476 47.2637Z" fill="#05B384"/>
<path d="M39.977 22.8142C39.9667 22.7153 39.8412 22.7153 39.8309 22.8142L39.7448 23.6437C39.6335 24.7149 38.8946 25.5595 37.9573 25.6866L37.2314 25.785C37.1449 25.7967 37.1449 25.9402 37.2314 25.952L37.9573 26.0504C38.8946 26.1775 39.6335 27.022 39.7448 28.0932L39.8309 28.9228C39.8412 29.0217 39.9667 29.0217 39.977 28.9228L40.0631 28.0932C40.1743 27.022 40.9133 26.1775 41.8506 26.0504L42.5765 25.952C42.663 25.9402 42.663 25.7967 42.5765 25.785L41.8506 25.6866C40.9133 25.5595 40.1743 24.7149 40.0631 23.6437L39.977 22.8142Z" fill="#05B384"/>
<path d="M12.771 49.3143C12.6695 49.269 12.601 49.3884 12.6914 49.4532L13.4495 49.9967C14.4285 50.6986 14.8453 51.8712 14.4576 52.833L14.1574 53.5779C14.1216 53.6667 14.2609 53.7465 14.3195 53.6708L14.8107 53.0355C15.4451 52.2151 16.6676 51.9826 17.7678 52.473L18.6198 52.8528C18.7214 52.8981 18.7899 52.7787 18.6995 52.7139L17.9414 52.1704C16.9624 51.4685 16.5456 50.2959 16.9333 49.3341L17.2335 48.5893C17.2692 48.5005 17.13 48.4206 17.0714 48.4963L16.5802 49.1316C15.9458 49.952 14.7233 50.1845 13.6231 49.6941L12.771 49.3143Z" fill="#05B384"/>
<path d="M71.3674 24.3292C71.3794 24.2555 71.2901 24.2315 71.2636 24.3014L71.041 24.8871C70.7536 25.6434 70.0639 26.1156 69.3728 26.0292L68.8376 25.9624C68.7737 25.9544 68.7458 26.0586 68.8051 26.0836L69.302 26.2933C69.9437 26.5641 70.3049 27.3179 70.1756 28.1166L70.0755 28.7351C70.0636 28.8088 70.1529 28.8328 70.1794 28.7629L70.402 28.1772C70.6894 27.4209 71.3791 26.9487 72.0702 27.0351L72.6054 27.1019C72.6692 27.1099 72.6971 27.0057 72.6379 26.9807L72.141 26.771C71.4993 26.5002 71.1381 25.7464 71.2673 24.9477L71.3674 24.3292Z" fill="#05B384"/>
<defs>
<filter id="filter0_f_731_3706" x="9.59626" y="77.4645" width="96.141" height="36.7804" filterUnits="userSpaceOnUse" color-interpolation-filters="sRGB">
<feFlood flood-opacity="0" result="BackgroundImageFix"/>
<feBlend mode="normal" in="SourceGraphic" in2="BackgroundImageFix" result="shape"/>
<feGaussianBlur stdDeviation="6.28525" result="effect1_foregroundBlur_731_3706"/>
</filter>
<filter id="filter1_f_731_3706" x="0.592772" y="82.3936" width="103.921" height="34.0569" filterUnits="userSpaceOnUse" color-interpolation-filters="sRGB">
<feFlood flood-opacity="0" result="BackgroundImageFix"/>
<feBlend mode="normal" in="SourceGraphic" in2="BackgroundImageFix" result="shape"/>
<feGaussianBlur stdDeviation="5.87787" result="effect1_foregroundBlur_731_3706"/>
</filter>
<clipPath id="clip0_731_3706">
<rect width="58" height="58" fill="white" transform="translate(28.1667 42.74)"/>
</clipPath>
<clipPath id="clip1_731_3706">
<rect width="21.5943" height="21.5943" fill="white" transform="translate(1.16675 32.6753) rotate(-51.6509)"/>
</clipPath>
</defs>
</svg>
