<svg width="101" height="102" viewBox="0 0 101 102" fill="none" xmlns="http://www.w3.org/2000/svg">
<g clip-path="url(#clip0_392_5426)">
<path d="M80.3226 18.3446H21.2716C16.9804 18.3446 13.5017 21.8233 13.5017 26.1145V79.7265C13.5017 84.0177 16.9804 87.4964 21.2716 87.4964H80.3226C84.6137 87.4964 88.0924 84.0177 88.0924 79.7265V26.1145C88.0924 21.8233 84.6137 18.3446 80.3226 18.3446Z" fill="#ADFFDA"/>
<path d="M80.9178 17.1285H72.4166C71.7989 17.1285 80.9178 24.542 80.9178 28.8431L80.9178 81.0706C80.9178 85.3717 71.7989 86.4398 72.4166 86.4398H80.9178C84.4769 86.4398 88.3818 82.9531 88.3818 78.652L87.4056 28.8431C87.4056 24.542 81.5356 17.1285 80.9178 17.1285Z" fill="#7AE9B6"/>
<path d="M80.3232 88.548H80.3235C82.6622 88.5454 84.9044 87.6152 86.5581 85.9615C88.2117 84.3078 89.142 82.0657 89.1446 79.727V79.7267V26.1146V26.1143C89.142 23.7756 88.2117 21.5335 86.5581 19.8798C84.9044 18.2261 82.6622 17.2959 80.3235 17.2933H80.3232L21.2722 17.2933L21.2719 17.2933C18.9332 17.2959 16.6911 18.2261 15.0374 19.8798C13.3837 21.5335 12.4535 23.7756 12.4508 26.1143V26.1146L12.4508 79.7267L12.4508 79.727C12.4535 82.0657 13.3837 84.3078 15.0374 85.9615C16.6911 87.6152 18.9332 88.5454 21.2719 88.548H21.2722H80.3232ZM16.5239 21.3663C17.7834 20.1067 19.4912 19.3982 21.2725 19.3962H80.3229C82.1042 19.3982 83.812 20.1067 85.0716 21.3663C86.3311 22.6258 87.0396 24.3336 87.0416 26.1149V79.7264C87.0396 81.5077 86.3311 83.2154 85.0715 84.475C83.812 85.7346 82.1042 86.4431 80.3229 86.4451H21.2725C19.4912 86.4431 17.7835 85.7346 16.5239 84.475C15.2644 83.2155 14.5559 81.5078 14.5538 79.7266V26.1147C14.5558 24.3335 15.2643 22.6258 16.5239 21.3663Z" fill="#0E412A" stroke="#0E412A" stroke-width="0.548986"/>
<path d="M21.2716 18.3446H80.3226C82.3833 18.3446 84.3596 19.1632 85.8167 20.6203C87.2738 22.0775 88.0924 24.0538 88.0924 26.1145V33.8843H13.5017V26.1145C13.5017 24.0538 14.3203 22.0775 15.7775 20.6203C17.2346 19.1632 19.2109 18.3446 21.2716 18.3446Z" fill="#EBFFF6"/>
<path d="M88.8701 34.936H89.1446V34.6615V26.1146V26.1143C89.142 23.7756 88.2117 21.5335 86.5581 19.8798C84.9044 18.2261 82.6622 17.2959 80.3235 17.2933H80.3232L21.2722 17.2933L21.2719 17.2933C18.9332 17.2959 16.6911 18.2261 15.0374 19.8798C13.3837 21.5335 12.4535 23.7756 12.4508 26.1143V26.1146V34.6615V34.936H12.7253H88.8701ZM87.0416 32.833H14.5538V26.1147C14.5558 24.3335 15.2643 22.6258 16.5239 21.3663C17.7834 20.1067 19.4911 19.3982 21.2723 19.3962H80.3231C82.1044 19.3982 83.8121 20.1067 85.0716 21.3663C86.3311 22.6258 87.0396 24.3336 87.0416 26.1149V32.833Z" fill="#0E412A" stroke="#0E412A" stroke-width="0.548986"/>
<path d="M71.7914 29.2703C74.3661 29.2703 76.4534 27.183 76.4534 24.6083C76.4534 22.0336 74.3661 19.9464 71.7914 19.9464C69.2167 19.9464 67.1295 22.0336 67.1295 24.6083C67.1295 27.183 69.2167 29.2703 71.7914 29.2703Z" fill="#EBFFF6"/>
<path d="M71.7917 30.0473C70.716 30.0473 69.6644 29.7283 68.77 29.1306C67.8756 28.533 67.1785 27.6836 66.7668 26.6897C66.3551 25.6959 66.2474 24.6023 66.4573 23.5473C66.6672 22.4922 67.1852 21.5231 67.9458 20.7625C68.7064 20.0018 69.6756 19.4838 70.7306 19.2739C71.7857 19.0641 72.8792 19.1718 73.8731 19.5834C74.8669 19.9951 75.7163 20.6922 76.314 21.5866C76.9116 22.4811 77.2306 23.5326 77.2306 24.6083C77.229 26.0503 76.6554 27.4328 75.6358 28.4524C74.6161 29.4721 73.2337 30.0456 71.7917 30.0473ZM71.7917 20.7234C71.0233 20.7234 70.2722 20.9513 69.6333 21.3781C68.9945 21.805 68.4965 22.4118 68.2025 23.1216C67.9084 23.8315 67.8315 24.6127 67.9814 25.3663C68.1313 26.1199 68.5013 26.8121 69.0446 27.3554C69.5879 27.8987 70.2802 28.2687 71.0338 28.4186C71.7874 28.5685 72.5685 28.4916 73.2784 28.1976C73.9883 27.9035 74.595 27.4056 75.0219 26.7667C75.4488 26.1278 75.6766 25.3767 75.6766 24.6083C75.6755 23.5783 75.2658 22.5909 74.5375 21.8626C73.8092 21.1342 72.8217 20.7246 71.7917 20.7234Z" fill="#0E412A"/>
<path d="M74.1224 15.474C74.1224 14.1867 73.0788 13.1431 71.7914 13.1431C70.5041 13.1431 69.4604 14.1867 69.4604 15.474V24.7979C69.4604 26.0852 70.5041 27.1288 71.7914 27.1288C73.0788 27.1288 74.1224 26.0852 74.1224 24.7979V15.474Z" fill="#72C7A0"/>
<path d="M71.7915 27.9058C70.9675 27.9049 70.1775 27.5772 69.5949 26.9945C69.0122 26.4119 68.6845 25.6219 68.6836 24.7979V15.474C68.6836 14.6498 69.011 13.8592 69.5939 13.2764C70.1767 12.6935 70.9673 12.3661 71.7915 12.3661C72.6158 12.3661 73.4063 12.6935 73.9892 13.2764C74.572 13.8592 74.8995 14.6498 74.8995 15.474V24.7979C74.8985 25.6219 74.5708 26.4118 73.9881 26.9945C73.4055 27.5771 72.6155 27.9049 71.7915 27.9058ZM71.7915 13.9201C71.3795 13.9205 70.9845 14.0844 70.6932 14.3757C70.4019 14.667 70.238 15.062 70.2376 15.474V24.7979C70.2376 25.21 70.4013 25.6053 70.6927 25.8967C70.9841 26.1881 71.3794 26.3519 71.7915 26.3519C72.2037 26.3519 72.5989 26.1881 72.8904 25.8967C73.1818 25.6053 73.3455 25.21 73.3455 24.7979V15.474C73.345 15.062 73.1811 14.6671 72.8898 14.3758C72.5985 14.0844 72.2035 13.9206 71.7915 13.9201Z" fill="#0E412A"/>
<path d="M57.7956 29.2703C60.3703 29.2703 62.4575 27.183 62.4575 24.6083C62.4575 22.0336 60.3703 19.9464 57.7956 19.9464C55.2209 19.9464 53.1337 22.0336 53.1337 24.6083C53.1337 27.183 55.2209 29.2703 57.7956 29.2703Z" fill="#EBFFF6"/>
<path d="M57.7956 30.0473C56.7199 30.0473 55.6683 29.7283 54.7739 29.1306C53.8795 28.533 53.1824 27.6836 52.7707 26.6897C52.359 25.6959 52.2513 24.6023 52.4612 23.5473C52.6711 22.4922 53.1891 21.5231 53.9497 20.7625C54.7104 20.0018 55.6795 19.4838 56.7345 19.2739C57.7896 19.0641 58.8831 19.1718 59.877 19.5834C60.8708 19.9951 61.7203 20.6922 62.3179 21.5866C62.9155 22.4811 63.2345 23.5326 63.2345 24.6083C63.2329 26.0503 62.6593 27.4328 61.6397 28.4524C60.62 29.4721 59.2376 30.0456 57.7956 30.0473ZM57.7956 20.7234C57.0272 20.7234 56.2761 20.9513 55.6372 21.3781C54.9984 21.805 54.5004 22.4118 54.2064 23.1216C53.9123 23.8315 53.8354 24.6127 53.9853 25.3663C54.1352 26.1199 54.5052 26.8121 55.0485 27.3554C55.5919 27.8987 56.2841 28.2687 57.0377 28.4186C57.7913 28.5685 58.5724 28.4916 59.2823 28.1976C59.9922 27.9035 60.5989 27.4056 61.0258 26.7667C61.4527 26.1278 61.6805 25.3767 61.6805 24.6083C61.6794 23.5783 61.2697 22.5909 60.5414 21.8626C59.8131 21.1342 58.8256 20.7246 57.7956 20.7234Z" fill="#0E412A"/>
<path d="M60.1265 15.474C60.1265 14.1867 59.0829 13.1431 57.7956 13.1431C56.5082 13.1431 55.4646 14.1867 55.4646 15.474V24.7979C55.4646 26.0852 56.5082 27.1288 57.7956 27.1288C59.0829 27.1288 60.1265 26.0852 60.1265 24.7979V15.474Z" fill="#72C7A0"/>
<path d="M57.7954 27.9058C56.9715 27.9049 56.1815 27.5771 55.5988 26.9945C55.0162 26.4118 54.6884 25.6219 54.6875 24.7979V15.474C54.6875 14.6498 55.0149 13.8592 55.5978 13.2764C56.1807 12.6935 56.9712 12.3661 57.7954 12.3661C58.6197 12.3661 59.4102 12.6935 59.9931 13.2764C60.576 13.8592 60.9034 14.6498 60.9034 15.474V24.7979C60.9025 25.6219 60.5748 26.4119 59.9921 26.9945C59.4094 27.5772 58.6194 27.9049 57.7954 27.9058ZM57.7954 13.9201C57.3835 13.9206 56.9885 14.0844 56.6972 14.3758C56.4059 14.6671 56.242 15.062 56.2415 15.474V24.7979C56.2415 25.21 56.4052 25.6053 56.6966 25.8967C56.9881 26.1881 57.3833 26.3519 57.7954 26.3519C58.2076 26.3519 58.6028 26.1881 58.8943 25.8967C59.1857 25.6053 59.3494 25.21 59.3494 24.7979V15.474C59.349 15.062 59.1851 14.667 58.8938 14.3757C58.6024 14.0844 58.2074 13.9205 57.7954 13.9201Z" fill="#0E412A"/>
<path d="M43.7994 29.2703C46.3741 29.2703 48.4613 27.183 48.4613 24.6083C48.4613 22.0336 46.3741 19.9464 43.7994 19.9464C41.2247 19.9464 39.1375 22.0336 39.1375 24.6083C39.1375 27.183 41.2247 29.2703 43.7994 29.2703Z" fill="#EBFFF6"/>
<path d="M43.7993 30.0473C42.7235 30.0473 41.672 29.7283 40.7776 29.1306C39.8831 28.533 39.186 27.6836 38.7744 26.6897C38.3627 25.6959 38.255 24.6023 38.4649 23.5473C38.6747 22.4922 39.1927 21.5231 39.9534 20.7625C40.714 20.0018 41.6831 19.4838 42.7382 19.2739C43.7932 19.0641 44.8868 19.1718 45.8806 19.5834C46.8745 19.9951 47.7239 20.6922 48.3215 21.5866C48.9192 22.4811 49.2382 23.5326 49.2382 24.6083C49.2365 26.0503 48.663 27.4328 47.6433 28.4524C46.6237 29.4721 45.2412 30.0456 43.7993 30.0473ZM43.7993 20.7234C43.0309 20.7234 42.2798 20.9513 41.6409 21.3781C41.002 21.805 40.5041 22.4118 40.2101 23.1216C39.916 23.8315 39.8391 24.6127 39.989 25.3663C40.1389 26.1199 40.5089 26.8121 41.0522 27.3554C41.5955 27.8987 42.2877 28.2687 43.0413 28.4186C43.795 28.5685 44.5761 28.4916 45.286 28.1976C45.9958 27.9035 46.6026 27.4056 47.0295 26.7667C47.4563 26.1278 47.6842 25.3767 47.6842 24.6083C47.683 23.5783 47.2734 22.5909 46.5451 21.8626C45.8167 21.1342 44.8293 20.7246 43.7993 20.7234Z" fill="#0E412A"/>
<path d="M46.1302 15.474C46.1302 14.1867 45.0866 13.1431 43.7992 13.1431C42.5119 13.1431 41.4683 14.1867 41.4683 15.474V24.7979C41.4683 26.0852 42.5119 27.1288 43.7992 27.1288C45.0866 27.1288 46.1302 26.0852 46.1302 24.7979V15.474Z" fill="#72C7A0"/>
<path d="M43.7992 27.9058C42.9752 27.9049 42.1853 27.5771 41.6026 26.9945C41.02 26.4118 40.6922 25.6219 40.6913 24.7979V15.474C40.6913 14.6498 41.0187 13.8592 41.6016 13.2764C42.1844 12.6935 42.975 12.3661 43.7992 12.3661C44.6235 12.3661 45.414 12.6935 45.9969 13.2764C46.5797 13.8592 46.9072 14.6498 46.9072 15.474V24.7979C46.9062 25.6219 46.5785 26.4118 45.9958 26.9945C45.4132 27.5771 44.6232 27.9049 43.7992 27.9058ZM43.7992 13.9201C43.3872 13.9205 42.9922 14.0844 42.7009 14.3757C42.4096 14.667 42.2457 15.062 42.2453 15.474V24.7979C42.2453 25.21 42.409 25.6053 42.7004 25.8967C42.9918 26.1881 43.3871 26.3519 43.7992 26.3519C44.2114 26.3519 44.6066 26.1881 44.8981 25.8967C45.1895 25.6053 45.3532 25.21 45.3532 24.7979V15.474C45.3528 15.062 45.1889 14.667 44.8976 14.3757C44.6062 14.0844 44.2112 13.9205 43.7992 13.9201Z" fill="#0E412A"/>
<path d="M29.8036 29.2703C32.3784 29.2703 34.4656 27.183 34.4656 24.6083C34.4656 22.0336 32.3784 19.9464 29.8036 19.9464C27.2289 19.9464 25.1417 22.0336 25.1417 24.6083C25.1417 27.183 27.2289 29.2703 29.8036 29.2703Z" fill="#EBFFF6"/>
<path d="M29.8033 30.0473C28.7276 30.0473 27.676 29.7283 26.7816 29.1306C25.8872 28.533 25.1901 27.6836 24.7784 26.6897C24.3667 25.6959 24.259 24.6023 24.4689 23.5473C24.6788 22.4922 25.1968 21.5231 25.9574 20.7625C26.718 20.0018 27.6872 19.4838 28.7422 19.2739C29.7973 19.0641 30.8908 19.1718 31.8847 19.5834C32.8785 19.9951 33.7279 20.6922 34.3256 21.5866C34.9232 22.4811 35.2422 23.5326 35.2422 24.6083C35.2406 26.0503 34.667 27.4328 33.6474 28.4524C32.6277 29.4721 31.2453 30.0456 29.8033 30.0473ZM29.8033 20.7234C29.0349 20.7234 28.2838 20.9513 27.6449 21.3781C27.0061 21.805 26.5081 22.4118 26.2141 23.1216C25.92 23.8315 25.8431 24.6127 25.993 25.3663C26.1429 26.1199 26.5129 26.8121 27.0562 27.3554C27.5995 27.8987 28.2918 28.2687 29.0454 28.4186C29.799 28.5685 30.5801 28.4916 31.29 28.1976C31.9999 27.9035 32.6066 27.4056 33.0335 26.7667C33.4604 26.1278 33.6882 25.3767 33.6882 24.6083C33.6871 23.5783 33.2774 22.5909 32.5491 21.8626C31.8208 21.1342 30.8333 20.7246 29.8033 20.7234Z" fill="#0E412A"/>
<path d="M32.1343 15.474C32.1343 14.1867 31.0907 13.1431 29.8034 13.1431C28.516 13.1431 27.4724 14.1867 27.4724 15.474V24.7979C27.4724 26.0852 28.516 27.1288 29.8034 27.1288C31.0907 27.1288 32.1343 26.0852 32.1343 24.7979V15.474Z" fill="#72C7A0"/>
<path d="M29.8034 27.9058C28.9794 27.9049 28.1894 27.5771 27.6068 26.9945C27.0241 26.4118 26.6964 25.6219 26.6954 24.7979V15.474C26.6954 14.6498 27.0229 13.8592 27.6057 13.2764C28.1886 12.6935 28.9791 12.3661 29.8034 12.3661C30.6277 12.3661 31.4182 12.6935 32.001 13.2764C32.5839 13.8592 32.9113 14.6498 32.9113 15.474V24.7979C32.9104 25.6219 32.5826 26.4118 32 26.9945C31.4173 27.5771 30.6274 27.9049 29.8034 27.9058ZM29.8034 13.9201C29.3914 13.9205 28.9964 14.0844 28.7051 14.3757C28.4137 14.667 28.2499 15.062 28.2494 15.474V24.7979C28.2494 25.21 28.4131 25.6053 28.7046 25.8967C28.996 26.1881 29.3912 26.3519 29.8034 26.3519C30.2155 26.3519 30.6108 26.1881 30.9022 25.8967C31.1936 25.6053 31.3574 25.21 31.3574 24.7979V15.474C31.3569 15.062 31.193 14.667 30.9017 14.3757C30.6104 14.0844 30.2154 13.9205 29.8034 13.9201Z" fill="#0E412A"/>
<path d="M45.8903 68.8349V63.4409L58.2417 45.7737H65.7073V63.0501H68.9124V68.8349H65.7073V73.9162H59.0234V68.8349H45.8903ZM59.4925 53.122L52.9259 63.0501H59.4925V53.122Z" fill="#0D3D28"/>
<path d="M30.7255 51.598V45.3832H41.5525V73.9166H34.5951V51.598H30.7255Z" fill="#0D3D28"/>
<g clip-path="url(#clip1_392_5426)" filter="url(#filter0_dddd_392_5426)">
<path d="M99.2815 76.9393L96.9038 80.0768L94.3381 83.4623L91.7699 86.8533L89.9058 89.3126C89.7735 89.4877 89.5583 89.5797 89.3403 89.5544C89.1223 89.5291 88.9339 89.3904 88.8451 89.1897C88.4047 88.0929 87.7169 87.1126 86.8353 86.3254C85.73 85.3908 84.4493 84.6863 83.0682 84.253C81.6045 83.7837 80.1142 83.4018 78.6051 83.1093C77.0975 82.812 75.6082 82.4282 74.1446 81.96C72.7635 81.5267 71.4828 80.8221 70.3775 79.8876L70.3801 79.882C69.2221 78.8413 68.3971 77.4819 68.0086 75.9742L70.5743 72.5887L73.1482 69.2002L75.7139 65.8148L78.2821 62.4237C78.6697 63.9328 79.4937 65.294 80.651 66.3371C81.7545 67.2706 83.0334 67.9743 84.4125 68.4069C85.8752 68.8781 87.3647 69.2619 88.873 69.5563C90.3824 69.8549 91.8735 70.2395 93.3391 70.7081C94.7182 71.1408 95.997 71.8445 97.1005 72.778C98.1811 73.7424 98.9707 74.9894 99.3807 76.3785C99.4406 76.5704 99.4036 76.7795 99.2815 76.9393Z" fill="#E6E7E8"/>
<path d="M78.083 69.7283C77.2221 70.8542 76.3695 71.977 75.5143 73.1055C74.358 72.0654 73.535 70.7067 73.1484 69.2003L75.7141 65.8149C76.1017 67.3239 76.9257 68.6852 78.083 69.7283Z" fill="#2C2F38"/>
<path d="M72.946 76.4967C72.774 76.7246 72.6045 76.947 72.4324 77.1749C71.7467 78.0811 71.0627 78.9835 70.3804 79.8821C69.2223 78.8415 68.3974 77.482 68.0089 75.9744L70.5745 72.5889C70.9606 74.0976 71.786 75.4577 72.946 76.4967Z" fill="#2C2F38"/>
<path d="M84.4125 68.4073C83.5573 69.5358 82.6995 70.6699 81.8443 71.7984C80.4651 71.3659 79.1862 70.6622 78.0828 69.7285C78.9324 68.5975 79.7959 67.4659 80.6511 66.3375C81.7546 67.2709 83.0334 67.9746 84.4125 68.4073Z" fill="#2C2F38"/>
<path d="M81.1735 79.7184C81.0014 79.9463 80.8319 80.1686 80.6598 80.3966C79.9741 81.3027 79.2909 82.2033 78.6052 83.1094C77.0976 82.8121 75.6083 82.4284 74.1447 81.9601C74.8304 81.054 75.5136 80.1534 76.1993 79.2473C76.3714 79.0193 76.5409 78.797 76.7129 78.569C78.1768 79.0363 79.6661 79.42 81.1735 79.7184Z" fill="#2C2F38"/>
<path d="M93.3393 70.7082L90.7736 74.0937C89.3078 73.624 87.8157 73.2413 86.3049 72.9474C87.1601 71.8189 88.0179 70.6848 88.8731 69.5564C90.3825 69.855 91.8737 70.2396 93.3393 70.7082Z" fill="#2C2F38"/>
<path d="M89.3987 82.9459C89.2292 83.1682 89.0571 83.3962 88.8876 83.6185C88.2045 84.519 87.5187 85.4252 86.8356 86.3257C85.7303 85.3912 84.4496 84.6866 83.0685 84.2533C83.7517 83.3528 84.4374 82.4466 85.1205 81.5461C85.2926 81.3182 85.4621 81.0958 85.6342 80.8679C87.0159 81.3006 88.2963 82.0073 89.3987 82.9459Z" fill="#2C2F38"/>
<path d="M94.3383 83.462L91.77 86.8531C91.3815 85.3454 90.5565 83.986 89.3985 82.9453C90.2537 81.8169 91.1098 80.6865 91.9668 79.5543C93.1248 80.5949 93.9498 81.9544 94.3383 83.462Z" fill="#2C2F38"/>
<path d="M99.2816 76.9397L96.9039 80.0772C96.5154 78.5696 95.6904 77.2101 94.5324 76.1695C95.3876 75.041 96.2437 73.9106 97.1007 72.7784C98.1812 73.7428 98.9709 74.9898 99.3808 76.3789C99.4407 76.5708 99.4037 76.7799 99.2816 76.9397Z" fill="#2C2F38"/>
<path d="M94.5322 76.1693L91.9665 79.5548C90.866 78.617 89.5875 77.9111 88.2077 77.4793L90.7734 74.0938C92.1532 74.5257 93.4317 75.2316 94.5322 76.1693Z" fill="#2C2F38"/>
<path d="M79.2785 75.1833L76.7128 78.5688C75.3293 78.1412 74.0475 77.436 72.9458 76.4964C73.801 75.3679 74.6588 74.2338 75.514 73.1053C76.6163 74.0441 77.8967 74.7509 79.2785 75.1833Z" fill="#2C2F38"/>
<path d="M86.3049 72.9475C85.4497 74.076 84.597 75.1988 83.7418 76.3273C82.2329 76.0343 80.7426 75.6524 79.2787 75.1836L81.8444 71.7982C83.3082 72.2659 84.7974 72.6496 86.3049 72.9475Z" fill="#2C2F38"/>
<path d="M88.2078 77.4791C87.3469 78.605 86.4891 79.7391 85.6339 80.8676C84.1703 80.3994 82.681 80.0156 81.1734 79.7183C82.0286 78.5898 82.8864 77.4557 83.7416 76.3272C85.251 76.6259 86.7422 77.0105 88.2078 77.4791Z" fill="#2C2F38"/>
<path d="M79.0052 62.4064C78.9513 62.5193 78.8864 62.6265 78.8114 62.7266L58.6805 89.2887C58.4086 89.6487 58.0043 89.8853 57.5572 89.9461C57.1102 90.0068 56.6574 89.8866 56.2993 89.6122L56.2507 89.5696C55.5436 88.9939 55.4185 87.962 55.9676 87.2341L76.1011 60.6664C76.6703 59.9213 77.7349 59.7766 78.4823 60.3429L78.4936 60.348C79.1202 60.8329 79.3319 61.6846 79.0052 62.4064Z" fill="#AF8066"/>
<path d="M79.0054 62.406C78.9515 62.5189 78.8866 62.6261 78.8116 62.7262L58.6807 89.2883C58.4088 89.6483 58.0045 89.8849 57.5574 89.9457C57.1104 90.0064 56.6576 89.8862 56.2995 89.6118L56.2509 89.5692L78.4938 60.3476C79.1204 60.8325 79.3321 61.6842 79.0054 62.406Z" fill="#7F5B53"/>
</g>
</g>
<defs>
<filter id="filter0_dddd_392_5426" x="27.7255" y="53.2474" width="76.6073" height="65.6073" filterUnits="userSpaceOnUse" color-interpolation-filters="sRGB">
<feFlood flood-opacity="0" result="BackgroundImageFix"/>
<feColorMatrix in="SourceAlpha" type="matrix" values="0 0 0 0 0 0 0 0 0 0 0 0 0 0 0 0 0 0 127 0" result="hardAlpha"/>
<feOffset dx="-1"/>
<feGaussianBlur stdDeviation="1.5"/>
<feColorMatrix type="matrix" values="0 0 0 0 0.0235294 0 0 0 0 0.196078 0 0 0 0 0.121569 0 0 0 0.1 0"/>
<feBlend mode="normal" in2="BackgroundImageFix" result="effect1_dropShadow_392_5426"/>
<feColorMatrix in="SourceAlpha" type="matrix" values="0 0 0 0 0 0 0 0 0 0 0 0 0 0 0 0 0 0 127 0" result="hardAlpha"/>
<feOffset dx="-5" dy="2"/>
<feGaussianBlur stdDeviation="2.5"/>
<feColorMatrix type="matrix" values="0 0 0 0 0.0235294 0 0 0 0 0.196078 0 0 0 0 0.121569 0 0 0 0.09 0"/>
<feBlend mode="normal" in2="effect1_dropShadow_392_5426" result="effect2_dropShadow_392_5426"/>
<feColorMatrix in="SourceAlpha" type="matrix" values="0 0 0 0 0 0 0 0 0 0 0 0 0 0 0 0 0 0 127 0" result="hardAlpha"/>
<feOffset dx="-11" dy="4"/>
<feGaussianBlur stdDeviation="3.5"/>
<feColorMatrix type="matrix" values="0 0 0 0 0.0235294 0 0 0 0 0.196078 0 0 0 0 0.121569 0 0 0 0.05 0"/>
<feBlend mode="normal" in2="effect2_dropShadow_392_5426" result="effect3_dropShadow_392_5426"/>
<feColorMatrix in="SourceAlpha" type="matrix" values="0 0 0 0 0 0 0 0 0 0 0 0 0 0 0 0 0 0 127 0" result="hardAlpha"/>
<feOffset dx="-19" dy="7"/>
<feGaussianBlur stdDeviation="4"/>
<feColorMatrix type="matrix" values="0 0 0 0 0.0235294 0 0 0 0 0.196078 0 0 0 0 0.121569 0 0 0 0.01 0"/>
<feBlend mode="normal" in2="effect3_dropShadow_392_5426" result="effect4_dropShadow_392_5426"/>
<feBlend mode="normal" in="SourceGraphic" in2="effect4_dropShadow_392_5426" result="shape"/>
</filter>
<clipPath id="clip0_392_5426">
<rect width="100.647" height="100.647" fill="white" transform="translate(0.225464 0.390015)"/>
</clipPath>
<clipPath id="clip1_392_5426">
<rect width="35.9349" height="35.9349" fill="white" transform="translate(69.6384 56.2474) rotate(24.5193)"/>
</clipPath>
</defs>
</svg>
