<svg width="114" height="114" viewBox="0 0 114 114" fill="none" xmlns="http://www.w3.org/2000/svg">
<g filter="url(#filter0_f_731_3764)">
<ellipse cx="59.3337" cy="88.4529" rx="29.5" ry="7.5" fill="#3E588A" fill-opacity="0.09"/>
</g>
<g clip-path="url(#clip0_731_3764)">
<path d="M73.24 80.7498H40.4275C39.294 80.7498 38.3767 79.8325 38.3767 78.699V53.9529C38.3767 43.7751 46.656 35.4958 56.8337 35.4958C67.044 35.4958 75.2908 43.7948 75.2908 53.9529V78.699C75.2908 79.8325 74.3735 80.7498 73.24 80.7498Z" fill="#EB8A78"/>
<path d="M73.24 80.7498C74.3735 80.7498 75.2908 79.8325 75.2908 78.699V53.9529C75.2908 43.7948 67.044 35.4958 56.8337 35.4958V80.7498H73.24Z" fill="#E55959"/>
<path d="M77.3416 86.9021H36.3259C35.1924 86.9021 34.2751 85.9849 34.2751 84.8513V78.699C34.2751 77.5654 35.1924 76.6482 36.3259 76.6482H77.3416C78.4751 76.6482 79.3923 77.5654 79.3923 78.699V84.8513C79.3923 85.9849 78.4751 86.9021 77.3416 86.9021Z" fill="#5B5B8C"/>
<path d="M77.3416 76.6482H56.8337V86.9021H77.3416C78.4751 86.9021 79.3923 85.9849 79.3923 84.8513V78.699C79.3923 77.5654 78.4751 76.6482 77.3416 76.6482Z" fill="#443D66"/>
<path d="M56.8337 68.3083C57.9664 68.3083 58.8845 67.3902 58.8845 66.2576C58.8845 65.125 57.9664 64.2068 56.8337 64.2068C55.7011 64.2068 54.783 65.125 54.783 66.2576C54.783 67.3902 55.7011 68.3083 56.8337 68.3083Z" fill="#FFDF40"/>
<path d="M56.8337 60.1052C55.7002 60.1052 54.783 59.188 54.783 58.0544V49.8513C54.783 48.7178 55.7002 47.8005 56.8337 47.8005C57.9673 47.8005 58.8845 48.7178 58.8845 49.8513V58.0544C58.8845 59.188 57.9673 60.1052 56.8337 60.1052Z" fill="#FFDF40"/>
<path d="M28.1228 56.0037H23.8845C22.751 56.0037 21.8337 55.0864 21.8337 53.9529C21.8337 52.8193 22.751 51.9021 23.8845 51.9021H28.1228C29.2563 51.9021 30.1736 52.8193 30.1736 53.9529C30.1736 55.0864 29.2563 56.0037 28.1228 56.0037Z" fill="#43BB9B"/>
<path d="M89.783 56.0037H85.5447C84.4111 56.0037 83.4939 55.0864 83.4939 53.9529C83.4939 52.8193 84.4111 51.9021 85.5447 51.9021H89.783C90.9165 51.9021 91.8337 52.8193 91.8337 53.9529C91.8337 55.0864 90.9165 56.0037 89.783 56.0037Z" fill="#43BB9B"/>
<path d="M56.8337 26.9529C55.7283 26.9529 54.8337 26.073 54.8337 24.9857V20.9201C54.8337 19.8327 55.7283 18.9529 56.8337 18.9529C57.9392 18.9529 58.8337 19.8327 58.8337 20.9201V24.9857C58.8337 26.073 57.9392 26.9529 56.8337 26.9529Z" fill="#43BB9B"/>
<path d="M35.0803 35.1012L32.1804 32.2013C31.3793 31.4002 31.3793 30.1024 32.1804 29.3013C32.9814 28.5003 34.2793 28.5003 35.0803 29.3013L37.9802 32.2013C38.7813 33.0023 38.7813 34.3002 37.9802 35.1012C37.1791 35.9023 35.8813 35.9024 35.0803 35.1012Z" fill="#43BB9B"/>
<path d="M75.6872 35.1012C74.8862 34.3002 74.8862 33.0023 75.6872 32.2013L78.5871 29.3013C79.3882 28.5003 80.686 28.5003 81.4871 29.3013C82.2881 30.1024 82.2881 31.4002 81.4871 32.2013L78.5871 35.1012C77.7861 35.9023 76.4884 35.9024 75.6872 35.1012Z" fill="#43BB9B"/>
<path d="M85.5447 88.9529H28.1228C26.9893 88.9529 26.072 88.0356 26.072 86.9021C26.072 85.7686 26.9893 84.8513 28.1228 84.8513H85.5447C86.6782 84.8513 87.5955 85.7686 87.5955 86.9021C87.5955 88.0356 86.6782 88.9529 85.5447 88.9529Z" fill="#443D66"/>
<path d="M85.5447 84.8513H56.8337V88.9529H85.5447C86.6782 88.9529 87.5955 88.0356 87.5955 86.9021C87.5955 85.7686 86.6782 84.8513 85.5447 84.8513Z" fill="#322D59"/>
<path d="M58.8845 66.2576C58.8845 65.1247 57.9663 64.2068 56.8337 64.2068V68.3083C57.9663 68.3083 58.8845 67.3901 58.8845 66.2576Z" fill="#FFD540"/>
<path d="M58.8845 58.0544V49.8513C58.8845 48.7178 57.9673 47.8005 56.8337 47.8005V60.1052C57.9673 60.1052 58.8845 59.188 58.8845 58.0544Z" fill="#FFD540"/>
</g>
<defs>
<filter id="filter0_f_731_3764" x="17.2632" y="68.3824" width="84.141" height="40.141" filterUnits="userSpaceOnUse" color-interpolation-filters="sRGB">
<feFlood flood-opacity="0" result="BackgroundImageFix"/>
<feBlend mode="normal" in="SourceGraphic" in2="BackgroundImageFix" result="shape"/>
<feGaussianBlur stdDeviation="6.28525" result="effect1_foregroundBlur_731_3764"/>
</filter>
<clipPath id="clip0_731_3764">
<rect width="70" height="70" fill="white" transform="translate(21.8337 18.9529)"/>
</clipPath>
</defs>
</svg>
