<svg width="106" height="90" viewBox="0 0 106 90" fill="none" xmlns="http://www.w3.org/2000/svg">
<path d="M93.5133 21.174H11.9739C9.26652 21.174 7.07178 23.1136 7.07178 25.5064V81.6317H98.4156V25.5064C98.4154 23.1136 96.2207 21.174 93.5133 21.174Z" fill="#181818"/>
<path d="M97.9334 89.0596H8.21108C3.95254 89.0596 0.500244 85.6075 0.500244 81.349V77.7948H105.644V81.349C105.644 85.6075 102.192 89.0596 97.9334 89.0596Z" fill="#585858"/>
<path d="M90.5299 23.8026H11.6719C10.5831 23.8026 9.70044 24.6853 9.70044 25.7741V75.7174H90.5299C91.6187 75.7174 92.5013 74.8348 92.5013 73.746V25.7741C92.5013 24.6853 91.6187 23.8026 90.5299 23.8026Z" fill="#E2FFF8"/>
<path d="M93.1584 23.8026C94.2472 23.8026 95.1299 24.6853 95.1299 25.7741V75.7174H59.7697C58.8838 75.7174 58.1067 75.1265 57.8699 74.2729L44.5651 26.301C44.2167 25.0449 45.1614 23.8026 46.4648 23.8026H93.1584Z" fill="#B5F4E3"/>
<path d="M60.3689 83.4274H45.7761C43.4956 83.4274 41.6467 81.5785 41.6467 79.298V77.7948H64.4983V79.298C64.4983 81.5785 62.6494 83.4274 60.3689 83.4274Z" fill="#F2F2F2"/>
<g clip-path="url(#clip0_731_3669)" filter="url(#filter0_dddd_731_3669)">
<path d="M53.3906 19.7318L64.7412 25.5733L76.1394 31.3674L64.7412 37.2089L53.3906 43.0505L42.04 37.2089L30.6418 31.3674L42.04 25.5733L53.3906 19.7318Z" fill="#D9AC80"/>
<path d="M67.5912 41.0561V35.7844L61.8921 38.6814V43.9531L65.0266 40.1062L67.5912 41.0561Z" fill="#D7BAA4"/>
<path d="M53.3906 43.0505V66.3692L76.1394 54.7336V31.3674L67.5908 35.7842L67.4008 35.8792V41.0083L65.0262 40.106L61.8917 43.9529V38.6812L53.3906 43.0505Z" fill="#A67E4F"/>
<path d="M53.3907 66.3692V43.0505L42.0401 37.209L30.642 31.3674V54.7336L53.3907 66.3692Z" fill="#926E43"/>
<path d="M39.1901 26.9983L61.8913 38.6814L67.4004 35.8794L67.5904 35.7844L44.8891 24.1013L42.0396 25.5736L39.1901 26.9983Z" fill="#F2D3BA"/>
<rect width="7.29395" height="8.10434" rx="3.64697" transform="matrix(0.988634 -0.150343 -0.0142985 -0.999898 62.3881 53.3741)" fill="#775834"/>
<path fill-rule="evenodd" clip-rule="evenodd" d="M67.1972 50.7053C67.2024 50.7093 67.2074 50.7133 67.2124 50.7175C67.4189 50.8899 67.4236 51.2195 67.2229 51.4538C67.0248 51.6852 66.7004 51.737 66.4936 51.5722C66.4934 51.5721 66.4932 51.5721 66.493 51.5723C66.4929 51.5725 66.4927 51.5725 66.4925 51.5724L64.6362 50.0265C64.6316 50.0227 64.6251 50.0187 64.6197 50.0162C64.5308 49.975 64.3996 49.7004 64.472 49.6158L64.9362 49.0738C64.974 49.0296 65.0274 48.9996 65.0779 49.0118C65.1894 49.0387 65.3107 49.126 65.3744 49.1833L67.1972 50.7053ZM63.8652 50.2699C63.8653 50.2698 63.8654 50.2698 63.8654 50.2699C63.8655 50.2699 63.8655 50.27 63.8654 50.2701L63.8461 50.2927C63.852 50.2853 63.8584 50.2777 63.8652 50.2699Z" fill="url(#paint0_linear_731_3669)"/>
<path fill-rule="evenodd" clip-rule="evenodd" d="M68.0057 47.2227C68.009 47.2187 68.0124 47.2147 68.0158 47.2107C68.2164 46.9764 68.5464 46.9262 68.7529 47.0986C68.9569 47.269 68.9639 47.5929 68.7705 47.8266C68.7704 47.8267 68.7704 47.8268 68.7705 47.8269C68.7706 47.827 68.7706 47.8272 68.7705 47.8273L66.9705 49.9334C66.9661 49.9386 66.9611 49.9459 66.9579 49.9518C66.9044 50.0483 66.6162 50.223 66.5419 50.161L66.0615 49.7598C66.0217 49.7266 65.9984 49.6744 66.0186 49.6196C66.0615 49.5029 66.1643 49.3688 66.2297 49.2966L68.0057 47.2227ZM67.1075 50.6863C67.1075 50.6862 67.1075 50.6861 67.1075 50.686C67.1076 50.6859 67.1077 50.6859 67.1078 50.686L67.1277 50.7026C67.1211 50.6976 67.1144 50.6921 67.1075 50.6863Z" fill="url(#paint1_linear_731_3669)"/>
<path fill-rule="evenodd" clip-rule="evenodd" d="M63.8701 50.3199C63.8655 50.3257 63.8607 50.3314 63.8559 50.3371C63.6552 50.5714 63.3252 50.6215 63.1187 50.4492C62.9148 50.2789 62.9077 49.9552 63.1009 49.7215C63.101 49.7213 63.101 49.7211 63.1009 49.721C63.1008 49.7208 63.1008 49.7206 63.1009 49.7205L64.9008 47.6144C64.9052 47.6092 64.9102 47.6019 64.9135 47.596C64.967 47.4995 65.2551 47.3248 65.3294 47.3868L65.8099 47.788C65.8497 47.8212 65.8729 47.8734 65.8528 47.9282C65.8099 48.0449 65.7071 48.179 65.6416 48.2512L63.8701 50.3199ZM64.7638 46.8616C64.7639 46.8616 64.7639 46.8617 64.7638 46.8618C64.7637 46.8619 64.7636 46.8619 64.7636 46.8618L64.7437 46.8452C64.7502 46.8503 64.7569 46.8557 64.7638 46.8616Z" fill="url(#paint2_linear_731_3669)"/>
<path fill-rule="evenodd" clip-rule="evenodd" d="M64.6826 46.8474C64.6752 46.842 64.668 46.8363 64.6609 46.8304C64.4544 46.658 64.4497 46.3284 64.6504 46.0941C64.8485 45.8627 65.1729 45.8109 65.3797 45.9757C65.38 45.9758 65.3803 45.9758 65.3805 45.9755C65.3808 45.9753 65.3811 45.9752 65.3813 45.9754L67.2375 47.5212C67.2421 47.5249 67.2487 47.529 67.2541 47.5315C67.3429 47.5727 67.4742 47.8472 67.4017 47.9319L66.9375 48.4739C66.8997 48.518 66.8464 48.5481 66.7958 48.5359C66.6844 48.509 66.563 48.4216 66.4994 48.3643L64.6826 46.8474ZM68.0085 47.2778C68.0085 47.2778 68.0084 47.2779 68.0083 47.2778C68.0082 47.2777 68.0082 47.2776 68.0083 47.2776L68.0276 47.255C68.0217 47.2624 68.0153 47.27 68.0085 47.2778Z" fill="url(#paint3_linear_731_3669)"/>
</g>
<g clip-path="url(#clip1_731_3669)">
<path d="M53.2568 25.2696L41.379 31.8864C40.7826 32.2186 40.804 32.7458 41.4268 33.0639L50.4476 37.6722C51.0703 37.9903 52.0586 37.9789 52.655 37.6467L64.5327 31.0299C65.1291 30.6977 65.1077 30.1704 64.4849 29.8523L55.4642 25.2441C54.8414 24.9259 53.8531 24.9373 53.2568 25.2696Z" fill="#E0EAF0"/>
<path d="M55.4642 25.2441L57.7194 26.3961L43.682 34.216L41.4268 33.0639C41.1277 32.9112 40.9547 32.7013 40.9457 32.4804C40.9368 32.2596 41.0926 32.0459 41.379 31.8864L53.2568 25.2696C53.5432 25.11 53.9366 25.0177 54.3506 25.0129C54.7645 25.0081 55.1651 25.0913 55.4642 25.2441Z" fill="#64737A"/>
<path d="M50.7008 30.3059C52.4898 29.3093 52.4256 27.7276 50.5574 26.7732C48.6891 25.8188 45.7243 25.8531 43.9352 26.8497C42.1461 27.8464 42.2103 29.428 44.0786 30.3824C45.9469 31.3368 48.9117 31.3025 50.7008 30.3059Z" fill="#44FFA5"/>
<path d="M65.0968 31.3178L53.219 37.9347C52.7894 38.174 52.1993 38.3125 51.5783 38.3196C50.9574 38.3268 50.3565 38.2021 49.9079 37.9729L40.8872 33.3647C40.4386 33.1355 40.179 32.8207 40.1656 32.4894C40.1521 32.1582 40.3859 31.8376 40.8155 31.5983L43.0128 30.3742C42.2005 29.8221 41.7888 29.1322 41.8534 28.4312C41.918 27.7302 42.4545 27.0651 43.3645 26.5582C44.2745 26.0513 45.4967 25.7365 46.8068 25.6718C48.1169 25.607 49.4267 25.7965 50.4959 26.2056L52.6932 24.9815C53.1228 24.7422 53.713 24.6037 54.3339 24.5966C54.9549 24.5894 55.5558 24.7141 56.0043 24.9433L65.0251 29.5515C65.4737 29.7807 65.7333 30.0955 65.7467 30.4268C65.7602 30.758 65.5264 31.0785 65.0968 31.3178ZM44.7859 34.2032L50.9877 37.3714C51.1373 37.4478 51.3375 37.4894 51.5445 37.487C51.7515 37.4846 51.9482 37.4384 52.0914 37.3586L63.9692 30.7418C64.1124 30.6621 64.1903 30.5552 64.1858 30.4448C64.1814 30.3344 64.0948 30.2294 63.9453 30.153L57.7435 26.9849L44.7859 34.2032ZM52.7773 28.5473L56.6159 26.4088L54.9245 25.5448C54.775 25.4684 54.5747 25.4268 54.3677 25.4292C54.1608 25.4316 53.964 25.4778 53.8208 25.5575L51.6235 26.7816C52.3652 27.2854 52.7712 27.9067 52.7773 28.5473ZM44.4992 27.1379C43.9653 27.4353 43.6087 27.8105 43.4745 28.216C43.3403 28.6216 43.4346 29.0392 43.7454 29.4162C44.0561 29.7932 44.5695 30.1125 45.2205 30.3338C45.8715 30.5551 46.6309 30.6685 47.4026 30.6596C48.1744 30.6507 48.9239 30.5199 49.5563 30.2837C50.1888 30.0476 50.6757 29.7167 50.9556 29.3329C51.2355 28.9491 51.2958 28.5297 51.1288 28.1276C50.9619 27.7255 50.5752 27.3589 50.0176 27.0741C49.27 26.6922 48.2686 26.4843 47.2337 26.4963C46.1987 26.5082 45.2151 26.739 44.4992 27.1379ZM43.6583 33.6272L47.497 31.4888C46.3018 31.5072 45.1288 31.3136 44.162 30.9382L41.9431 32.1744C41.7999 32.2541 41.7219 32.361 41.7264 32.4714C41.7309 32.5818 41.8174 32.6868 41.967 32.7631L43.6583 33.6272ZM60.6342 30.1913L60.0943 30.4921C59.9511 30.5718 59.7544 30.618 59.5474 30.6204C59.3404 30.6228 59.1402 30.5812 58.9906 30.5048C58.8411 30.4284 58.7546 30.3235 58.7501 30.213C58.7456 30.1026 58.8235 29.9958 58.9667 29.916L59.5066 29.6153C59.6498 29.5355 59.8465 29.4893 60.0535 29.4869C60.2605 29.4845 60.4608 29.5261 60.6103 29.6025C60.7598 29.6789 60.8464 29.7838 60.8509 29.8943C60.8553 30.0047 60.7774 30.1115 60.6342 30.1913ZM58.4746 31.3943L57.9347 31.6951C57.7915 31.7749 57.5948 31.821 57.3878 31.8234C57.1808 31.8258 56.9806 31.7842 56.831 31.7079C56.6815 31.6315 56.595 31.5265 56.5905 31.4161C56.586 31.3057 56.6639 31.1988 56.8071 31.1191L57.347 30.8183C57.4902 30.7385 57.6869 30.6924 57.8939 30.69C58.1009 30.6876 58.3012 30.7292 58.4507 30.8056C58.6003 30.882 58.6868 30.9869 58.6913 31.0973C58.6957 31.2077 58.6178 31.3146 58.4746 31.3943ZM54.1554 33.8005L50.916 35.6051C50.7728 35.6848 50.5761 35.731 50.3691 35.7334C50.1621 35.7358 49.9619 35.6942 49.8123 35.6178C49.6628 35.5414 49.5763 35.4365 49.5718 35.3261C49.5673 35.2156 49.6452 35.1088 49.7884 35.029L53.0278 33.2244C53.171 33.1447 53.3677 33.0985 53.5747 33.0961C53.7817 33.0937 53.982 33.1353 54.1315 33.2117C54.2811 33.2881 54.3676 33.393 54.3721 33.5034C54.3765 33.6139 54.2986 33.7207 54.1554 33.8005ZM48.5 29.5392C48.4294 29.579 48.3447 29.6109 48.2509 29.6333C48.1571 29.6556 48.0559 29.6678 47.9532 29.6692L45.9997 29.6918C45.7918 29.6942 45.5907 29.6524 45.4406 29.5757C45.2904 29.499 45.2036 29.3936 45.1991 29.2828C45.1946 29.1719 45.2728 29.0646 45.4166 28.9845C45.5604 28.9044 45.7579 28.8581 45.9657 28.8557L47.1356 28.8422L47.0855 27.6057C47.0828 27.5508 47.1006 27.4961 47.1377 27.4448C47.1749 27.3935 47.2307 27.3467 47.302 27.307C47.3733 27.2673 47.4586 27.2355 47.553 27.2135C47.6474 27.1914 47.7491 27.1796 47.8521 27.1786C48.0583 27.1766 48.2576 27.2181 48.4066 27.2942C48.5555 27.3703 48.642 27.4748 48.6471 27.5847L48.7145 29.2451C48.7181 29.3543 48.641 29.4599 48.5 29.5392Z" fill="#032617"/>
</g>
<path d="M51.272 1.11975C51.248 0.897259 50.9545 0.897259 50.9304 1.11975L50.7291 2.98622C50.4691 5.39634 48.7417 7.29654 46.5507 7.58251L44.8539 7.80397C44.6516 7.83039 44.6516 8.15324 44.8539 8.17966L46.5507 8.40112C48.7417 8.68709 50.4691 10.5873 50.7291 12.9974L50.9304 14.8639C50.9545 15.0864 51.248 15.0864 51.272 14.8639L51.4733 12.9974C51.7333 10.5873 53.4607 8.68709 55.6518 8.40112L57.3485 8.17966C57.5508 8.15324 57.5508 7.83039 57.3485 7.80397L55.6518 7.58251C53.4607 7.29654 51.7333 5.39634 51.4733 2.98622L51.272 1.11975Z" fill="#05B384"/>
<path d="M39.0936 7.04771C39.0805 6.92127 38.92 6.92127 38.9068 7.04771L38.7967 8.10836C38.6545 9.47796 37.7097 10.5578 36.5113 10.7203L35.5832 10.8461C35.4726 10.8612 35.4726 11.0446 35.5832 11.0596L36.5113 11.1855C37.7097 11.348 38.6545 12.4278 38.7967 13.7974L38.9068 14.858C38.92 14.9845 39.0805 14.9845 39.0936 14.858L39.2038 13.7974C39.346 12.4278 40.2908 11.348 41.4892 11.1855L42.4173 11.0596C42.5279 11.0446 42.5279 10.8612 42.4173 10.8461L41.4892 10.7203C40.2908 10.5578 39.346 9.47796 39.2038 8.10836L39.0936 7.04771Z" fill="#05B384"/>
<path d="M63.0936 7.04771C63.0805 6.92127 62.92 6.92127 62.9068 7.04771L62.7967 8.10836C62.6545 9.47796 61.7097 10.5578 60.5113 10.7203L59.5832 10.8461C59.4726 10.8612 59.4726 11.0446 59.5832 11.0596L60.5113 11.1855C61.7097 11.348 62.6545 12.4278 62.7967 13.7974L62.9068 14.858C62.92 14.9845 63.0805 14.9845 63.0936 14.858L63.2038 13.7974C63.346 12.4278 64.2908 11.348 65.4892 11.1855L66.4173 11.0596C66.5279 11.0446 66.5279 10.8612 66.4173 10.8461L65.4892 10.7203C64.2908 10.5578 63.346 9.47796 63.2038 8.10836L63.0936 7.04771Z" fill="#05B384"/>
<defs>
<filter id="filter0_dddd_731_3669" x="26.7862" y="13.9453" width="53.2291" height="55.8578" filterUnits="userSpaceOnUse" color-interpolation-filters="sRGB">
<feFlood flood-opacity="0" result="BackgroundImageFix"/>
<feColorMatrix in="SourceAlpha" type="matrix" values="0 0 0 0 0 0 0 0 0 0 0 0 0 0 0 0 0 0 127 0" result="hardAlpha"/>
<feOffset/>
<feGaussianBlur stdDeviation="0.65715"/>
<feColorMatrix type="matrix" values="0 0 0 0 0 0 0 0 0 0 0 0 0 0 0 0 0 0 0.1 0"/>
<feBlend mode="normal" in2="BackgroundImageFix" result="effect1_dropShadow_731_3669"/>
<feColorMatrix in="SourceAlpha" type="matrix" values="0 0 0 0 0 0 0 0 0 0 0 0 0 0 0 0 0 0 127 0" result="hardAlpha"/>
<feOffset/>
<feGaussianBlur stdDeviation="0.985725"/>
<feColorMatrix type="matrix" values="0 0 0 0 0 0 0 0 0 0 0 0 0 0 0 0 0 0 0.09 0"/>
<feBlend mode="normal" in2="effect1_dropShadow_731_3669" result="effect2_dropShadow_731_3669"/>
<feColorMatrix in="SourceAlpha" type="matrix" values="0 0 0 0 0 0 0 0 0 0 0 0 0 0 0 0 0 0 127 0" result="hardAlpha"/>
<feOffset/>
<feGaussianBlur stdDeviation="1.3143"/>
<feColorMatrix type="matrix" values="0 0 0 0 0 0 0 0 0 0 0 0 0 0 0 0 0 0 0.05 0"/>
<feBlend mode="normal" in2="effect2_dropShadow_731_3669" result="effect3_dropShadow_731_3669"/>
<feColorMatrix in="SourceAlpha" type="matrix" values="0 0 0 0 0 0 0 0 0 0 0 0 0 0 0 0 0 0 127 0" result="hardAlpha"/>
<feOffset/>
<feGaussianBlur stdDeviation="1.64287"/>
<feColorMatrix type="matrix" values="0 0 0 0 0 0 0 0 0 0 0 0 0 0 0 0 0 0 0.01 0"/>
<feBlend mode="normal" in2="effect3_dropShadow_731_3669" result="effect4_dropShadow_731_3669"/>
<feBlend mode="normal" in="SourceGraphic" in2="effect4_dropShadow_731_3669" result="shape"/>
</filter>
<linearGradient id="paint0_linear_731_3669" x1="66.9906" y1="51.7252" x2="64.4685" y2="49.5653" gradientUnits="userSpaceOnUse">
<stop stop-color="#78DBF8"/>
<stop offset="0.690625" stop-color="#50BEF2"/>
<stop offset="1" stop-color="#42B4F0"/>
</linearGradient>
<linearGradient id="paint1_linear_731_3669" x1="68.9918" y1="47.2981" x2="66.5509" y2="50.2215" gradientUnits="userSpaceOnUse">
<stop stop-color="#FAE267"/>
<stop offset="0.651042" stop-color="#F7D14E"/>
<stop offset="1" stop-color="#F6C841"/>
</linearGradient>
<linearGradient id="paint2_linear_731_3669" x1="62.8796" y1="50.2495" x2="65.3204" y2="47.3263" gradientUnits="userSpaceOnUse">
<stop stop-color="#3FB3B7"/>
<stop offset="0.690625" stop-color="#309599"/>
<stop offset="1" stop-color="#278589"/>
</linearGradient>
<linearGradient id="paint3_linear_731_3669" x1="64.8829" y1="45.8225" x2="67.4051" y2="47.9825" gradientUnits="userSpaceOnUse">
<stop stop-color="#E95F45"/>
<stop offset="0.739583" stop-color="#D83F2E"/>
<stop offset="1" stop-color="#D23426"/>
</linearGradient>
<clipPath id="clip0_731_3669">
<rect width="46.6576" height="49.2862" fill="white" transform="translate(30.0719 17.2311)"/>
</clipPath>
<clipPath id="clip1_731_3669">
<rect width="19.7767" height="20.2593" fill="white" transform="matrix(0.873593 -0.486657 0.890529 0.454926 33.6053 30.7988)"/>
</clipPath>
</defs>
</svg>
