<svg width="114" height="114" viewBox="0 0 114 114" fill="none" xmlns="http://www.w3.org/2000/svg">
<path d="M53.5437 89.2531H30.5564C30.1307 89.2531 29.7224 89.4222 29.4213 89.7232C29.1203 90.0243 28.9512 90.4326 28.9512 90.8583C28.9512 91.284 29.1203 91.6924 29.4213 91.9934C29.7224 92.2944 30.1307 92.4636 30.5564 92.4636H53.5437C53.9694 92.4636 54.3777 92.2944 54.6788 91.9934C54.9798 91.6924 55.1489 91.284 55.1489 90.8583C55.1489 90.4326 54.9798 90.0243 54.6788 89.7232C54.3777 89.4222 53.9694 89.2531 53.5437 89.2531Z" fill="white"/>
<path d="M104.061 89.2531H94.4295C94.0037 89.2531 93.5954 89.4222 93.2944 89.7232C92.9933 90.0243 92.8242 90.4326 92.8242 90.8583C92.8242 91.284 92.9933 91.6924 93.2944 91.9934C93.5954 92.2944 94.0037 92.4636 94.4295 92.4636H104.061C104.487 92.4636 104.895 92.2944 105.196 91.9934C105.497 91.6924 105.666 91.284 105.666 90.8583C105.666 90.4326 105.497 90.0243 105.196 89.7232C104.895 89.4222 104.487 89.2531 104.061 89.2531Z" fill="white"/>
<path d="M85.4563 89.2531H62.469C62.0433 89.2531 61.635 89.4222 61.3339 89.7232C61.0329 90.0243 60.8638 90.4326 60.8638 90.8583C60.8638 91.284 61.0329 91.6924 61.3339 91.9934C61.635 92.2944 62.0433 92.4636 62.469 92.4636H85.4563C85.882 92.4636 86.2903 92.2944 86.5914 91.9934C86.8924 91.6924 87.0615 91.284 87.0615 90.8583C87.0615 90.4326 86.8924 90.0243 86.5914 89.7232C86.2903 89.4222 85.882 89.2531 85.4563 89.2531Z" fill="white"/>
<path d="M21.599 89.2531H13.2356C12.8099 89.2531 12.4016 89.4222 12.1005 89.7232C11.7995 90.0243 11.6304 90.4326 11.6304 90.8583C11.6304 91.284 11.7995 91.6924 12.1005 91.9934C12.4016 92.2944 12.8099 92.4636 13.2356 92.4636H21.599C22.0248 92.4636 22.4331 92.2944 22.7341 91.9934C23.0351 91.6924 23.2043 91.284 23.2043 90.8583C23.2043 90.4326 23.0351 90.0243 22.7341 89.7232C22.4331 89.4222 22.0248 89.2531 21.599 89.2531Z" fill="white"/>
<path d="M34.9063 67.9675C34.5737 67.705 34.1507 67.5847 33.7297 67.6328C33.3087 67.6809 32.9239 67.8936 32.659 68.2243L25.7724 76.8606L22.7546 73.8267C22.6053 73.6762 22.4278 73.5568 22.2322 73.4753C22.0366 73.3938 21.8267 73.3518 21.6148 73.3518C21.4029 73.3518 21.1931 73.3938 20.9975 73.4753C20.8019 73.5568 20.6243 73.6762 20.4751 73.8267C20.1761 74.1274 20.0083 74.5343 20.0083 74.9584C20.0083 75.3825 20.1761 75.7893 20.4751 76.0901L24.7772 80.3922C24.9272 80.5409 25.1051 80.6586 25.3006 80.7385C25.4962 80.8184 25.7057 80.8589 25.9169 80.8577H25.9972C26.2233 80.8469 26.4447 80.7884 26.6466 80.6861C26.8486 80.5837 27.0266 80.4398 27.169 80.2637L35.1953 70.2309C35.326 70.0637 35.4222 69.8723 35.4785 69.6677C35.5347 69.4631 35.5499 69.2494 35.523 69.0389C35.4961 68.8284 35.4278 68.6254 35.3219 68.4415C35.2161 68.2575 35.0748 68.0965 34.9063 67.9675Z" fill="#003E2D"/>
<path d="M67.4291 67.9674C67.2639 67.8349 67.0741 67.7364 66.8707 67.6776C66.6673 67.6188 66.4543 67.6009 66.2439 67.6247C66.0335 67.6486 65.8299 67.7139 65.6449 67.8167C65.4598 67.9196 65.297 68.0581 65.1657 68.2242L58.2952 76.8605L55.2612 73.8265C54.9541 73.5636 54.5591 73.4261 54.1551 73.4417C53.7511 73.4573 53.3679 73.6248 53.082 73.9107C52.7961 74.1966 52.6286 74.5798 52.613 74.9838C52.5974 75.3878 52.7348 75.7829 52.9978 76.0899L57.2999 80.392C57.5989 80.6886 58.0025 80.8558 58.4236 80.8576H58.5199C58.7461 80.8468 58.9674 80.7883 59.1694 80.686C59.3713 80.5836 59.5493 80.4397 59.6917 80.2636L67.718 70.2308C67.8487 70.0636 67.945 69.8722 68.0012 69.6676C68.0574 69.463 68.0726 69.2493 68.0457 69.0388C68.0188 68.8283 67.9505 68.6252 67.8447 68.4413C67.7388 68.2574 67.5976 68.0963 67.4291 67.9674Z" fill="#003E2D"/>
<path d="M30.5563 84.8224H21.615C20.7285 84.8224 20.0098 85.5411 20.0098 86.4276V95.3689C20.0098 96.2555 20.7285 96.9742 21.615 96.9742H30.5563C31.4429 96.9742 32.1616 96.2555 32.1616 95.3689V86.4276C32.1616 85.5411 31.4429 84.8224 30.5563 84.8224Z" fill="#098C69"/>
<path d="M62.4689 84.8224H53.5276C52.6411 84.8224 51.9224 85.5411 51.9224 86.4276V95.3689C51.9224 96.2555 52.6411 96.9742 53.5276 96.9742H62.4689C63.3555 96.9742 64.0742 96.2555 64.0742 95.3689V86.4276C64.0742 85.5411 63.3555 84.8224 62.4689 84.8224Z" fill="#098C69"/>
<path d="M94.3971 84.8224H85.4558C84.5693 84.8224 83.8506 85.5411 83.8506 86.4276V95.3689C83.8506 96.2555 84.5693 96.9742 85.4558 96.9742H94.3971C95.2837 96.9742 96.0024 96.2555 96.0024 95.3689V86.4276C96.0024 85.5411 95.2837 84.8224 94.3971 84.8224Z" fill="#098C69"/>
<path d="M59.7557 37.1302V36.9858V36.8574L59.6273 36.6487L59.531 36.5363V36.4079C59.4346 36.3098 59.3268 36.2236 59.21 36.151L37.2982 23.63C37.1325 23.5427 36.9535 23.483 36.7685 23.4535H36.624C36.4429 23.4296 36.2594 23.4296 36.0782 23.4535C35.9492 23.4848 35.825 23.5334 35.709 23.5979L35.6127 23.6782L35.5003 23.7745C35.3481 23.8896 35.2177 24.031 35.1151 24.1919C35.0277 24.3576 34.9681 24.5366 34.9385 24.7216C34.9385 24.7216 34.9385 24.8179 34.9385 24.8661C34.9385 24.9142 34.9385 24.9464 34.9385 24.9945V50.0847C34.9374 50.3675 35.011 50.6457 35.152 50.8909C35.2929 51.1362 35.4961 51.3398 35.7411 51.4812L57.4442 64.0183C57.4442 64.0183 57.5244 64.0183 57.5565 64.0183H57.701C57.8734 64.0925 58.0591 64.1308 58.2468 64.1308C58.4345 64.1308 58.6202 64.0925 58.7926 64.0183H58.9371H59.0494C59.1663 63.9457 59.274 63.8595 59.3705 63.7614C59.4953 63.6287 59.5983 63.477 59.6755 63.312V63.1835C59.7463 63.0045 59.7844 62.8142 59.7878 62.6217V37.5476C59.8046 37.4144 59.8046 37.2795 59.7878 37.1463L59.7557 37.1302Z" fill="#1CAD86"/>
<path d="M81.4754 24.8983C81.4754 24.8983 81.4754 24.8019 81.4754 24.7538C81.4458 24.5688 81.3861 24.3898 81.2988 24.2241C81.1962 24.0631 81.0657 23.9218 80.9135 23.8067L80.8011 23.7104L80.7048 23.6301C80.5865 23.5474 80.4567 23.4825 80.3196 23.4375C80.1384 23.4136 79.9549 23.4136 79.7738 23.4375H79.6293C79.4443 23.467 79.2653 23.5267 79.0996 23.6141L67.4294 30.3561H67.2849L57.4126 36.0708C57.2987 36.1475 57.1913 36.2334 57.0915 36.3277C57.0591 36.3667 57.0321 36.4099 57.0113 36.4561L56.9149 36.5685L56.7865 36.7772V36.9216V37.05C56.7697 37.1833 56.7697 37.3181 56.7865 37.4514V62.6218C56.79 62.8143 56.828 63.0046 56.8989 63.1836V63.312C56.9761 63.4771 57.079 63.6288 57.2039 63.7615C57.3093 63.8559 57.422 63.9418 57.541 64.0183H57.6534H57.7978C57.9712 64.0894 58.1563 64.1275 58.3436 64.1307C58.5307 64.1254 58.7154 64.0873 58.8894 64.0183H59.0339C59.0339 64.0183 59.1141 64.0183 59.1462 64.0183L80.8332 51.4813C81.0782 51.3399 81.2815 51.1362 81.4224 50.891C81.5634 50.6457 81.637 50.3676 81.6359 50.0847V25.0427C81.6359 25.0427 81.4754 24.9464 81.4754 24.8983Z" fill="#088966"/>
<path d="M81.4913 25.0427C81.5081 25.176 81.5081 25.3108 81.4913 25.444C81.4373 25.6164 81.356 25.779 81.2505 25.9256L81.1542 26.038C81.0433 26.1939 80.9011 26.3251 80.7368 26.4232L69.7408 32.764L68.9382 33.2295H68.7937L66.4821 34.6743L59.0016 39.0085C58.757 39.1471 58.4802 39.2191 58.199 39.2171C57.9178 39.2191 57.641 39.1471 57.3964 39.0085L35.6933 26.4232C35.529 26.3251 35.3869 26.1939 35.276 26.038L35.1796 25.9256C35.0741 25.779 34.9928 25.6164 34.9389 25.444C34.9221 25.3108 34.9221 25.176 34.9389 25.0427C34.9389 25.0427 34.9389 24.9625 34.9389 24.9143C34.9389 24.8661 34.9389 24.818 34.9389 24.7698C34.9684 24.5848 35.0281 24.4059 35.1154 24.2401C35.2077 24.0765 35.3335 23.9343 35.4846 23.8227L35.597 23.7264L35.6933 23.6462L45.678 17.8672L47.1228 17.0325H47.2672L48.7441 16.1817L57.3964 11.1733C57.6404 11.0324 57.9172 10.9583 58.199 10.9583C58.4808 10.9583 58.7576 11.0324 59.0016 11.1733L80.6887 23.7104L80.785 23.7906L80.9134 23.8869C81.0567 24.0068 81.1812 24.1475 81.2826 24.3043C81.37 24.4701 81.4296 24.649 81.4592 24.834C81.4592 24.834 81.4592 24.9304 81.4592 24.9785C81.4592 25.0267 81.4913 25.0427 81.4913 25.0427Z" fill="#40DAB0"/>
<path d="M69.6926 31.849V40.3729C69.6926 40.7986 69.5235 41.2069 69.2224 41.508C68.9214 41.809 68.5131 41.9782 68.0874 41.9782C67.6616 41.9782 67.2533 41.809 66.9523 41.508C66.6512 41.2069 66.4821 40.7986 66.4821 40.3729V32.6998L45.6138 17.8512L47.0585 17.0164H47.203L48.6798 16.1656L68.89 30.6129C68.991 30.6748 69.0828 30.7504 69.1629 30.8377C69.4574 31.0985 69.6459 31.4584 69.6926 31.849Z" fill="white" fill-opacity="0.54"/>
</svg>
