<svg width="101" height="102" viewBox="0 0 101 102" fill="none" xmlns="http://www.w3.org/2000/svg">
<g clip-path="url(#clip0_392_5508)">
<path d="M20.6125 35.8455L20.6143 49.9165C20.6149 54.4984 24.3294 58.2124 28.9112 58.2124H45.8933C50.4758 58.2124 54.1906 54.4973 54.1903 49.9148L54.1892 35.843C54.1887 26.5714 46.6724 19.0557 37.4009 19.0557C28.1284 19.0557 20.6118 26.5729 20.6125 35.8455Z" fill="#44A47A"/>
<path d="M47.5861 61.3427C45.6217 60.8035 44.2594 59.0186 44.2577 56.9815L44.2495 47.4313L30.5714 47.4431L30.5796 56.9933C30.5813 59.0303 29.2233 60.8174 27.2599 61.36C25.2734 61.909 22.6327 62.6388 20.0115 63.3633C20.0115 69.447 29.9795 75.9373 37.3952 75.9373C44.8274 75.9373 54.8024 68.8066 54.8024 63.3238L47.5861 61.3427Z" fill="#FFE8D3"/>
<path d="M37.691 60.2024C37.6927 62.2394 39.055 64.0244 41.0194 64.5636C43.3024 65.1904 49.4061 66.8659 51.7492 67.5091C52.1455 67.6179 52.5289 67.7533 52.899 67.9109C54.0877 66.3759 54.8024 64.7908 54.8024 63.3237L47.5861 61.3426C45.6217 60.8034 44.2594 59.0184 44.2577 56.9814L44.2495 47.4312L37.6846 47.4368L37.691 60.2024Z" fill="#F3CDA9"/>
<path d="M42.6777 34.1273H54.1906V43.403H42.6777V34.1273Z" fill="#BFFCE1"/>
<path d="M20.6125 34.1273H31.097V43.403H20.6125V34.1273Z" fill="#BFFCE1"/>
<path d="M25.228 34.1285L25.2744 42.4524C25.2813 50.5171 33.7511 55.0137 37.4165 55.0889C41.0816 55.0073 49.5436 50.4962 49.5367 42.4315L49.5623 26.853L31.7574 26.8684L31.7581 27.5874C31.7611 31.1968 28.8376 34.1253 25.228 34.1285Z" fill="#FFE8D3"/>
<path d="M43.2636 26.8584L43.238 42.4315C43.2433 48.6348 38.2383 52.735 34.2595 54.3347C35.4597 54.8162 36.567 55.0714 37.4162 55.0889C41.0813 55.0073 49.5433 50.4962 49.5364 42.4315L49.562 26.853L43.2636 26.8584Z" fill="#F3CDA9"/>
<path d="M37.4007 19.0557C35.2198 19.0557 33.1362 19.4718 31.2247 20.2285C30.8265 20.8626 30.5957 21.6126 30.5964 22.4166C30.6018 28.6034 35.6214 33.6145 41.8084 34.1376L54.1025 34.128C53.2429 25.662 46.0933 19.0557 37.4007 19.0557Z" fill="#2F6D51"/>
<path d="M20.6137 43.403L20.6128 35.8455C20.6123 31.2011 22.485 26.8444 25.874 23.6382C28.8729 20.8007 32.8402 19.1658 36.9675 19.0612C46.4215 18.8215 54.1889 26.4423 54.1896 35.843L54.1902 43.403C56.4203 43.403 58.2281 41.5951 58.2278 39.365L58.2275 35.759C58.2267 24.2762 48.884 14.934 37.4009 14.934C31.8378 14.934 26.6077 17.1006 22.6739 21.0346C18.7402 24.9687 16.5742 30.1991 16.5747 35.7623L16.5752 39.365C16.5755 41.5953 18.3834 43.403 20.6137 43.403Z" fill="#BFFCE1"/>
<path d="M64.9608 72.9949C64.9573 68.9282 62.2378 65.3649 58.3163 64.2883L54.8026 63.3237C51.3179 69.3171 44.8277 73.347 37.3954 73.347C29.9796 73.347 23.5019 69.3347 20.0117 63.3632C18.8276 63.6904 17.6474 64.0166 16.5336 64.3245C12.6139 65.4078 9.90133 68.9757 9.90479 73.0424L9.91941 90.1885C9.92083 91.7474 11.1856 93.0101 12.7444 93.0087L62.1553 92.9661C63.7141 92.9646 64.9768 91.6999 64.9754 90.141L64.9608 72.9949Z" fill="#EBFFF6"/>
<path d="M64.9607 72.9949C64.9573 68.9282 62.2377 65.3649 58.3162 64.2883L54.8025 63.3237C53.9189 64.8434 52.8415 66.236 51.605 67.4695C51.6536 67.4829 51.7034 67.4966 51.7492 67.5092C55.6707 68.5857 58.3902 72.149 58.3937 76.2157L58.4082 92.9692L62.1552 92.9661C63.714 92.9647 64.9767 91.6999 64.9753 90.141L64.9607 72.9949Z" fill="#BFFCE1"/>
<path d="M73.978 91.5621H38.5015V70.9887C38.5015 69.7835 39.4785 68.8066 40.6835 68.8066H71.7958C73.001 68.8066 73.9779 69.7836 73.9779 70.9887V91.5621H73.978Z" fill="#4ACB92"/>
<path d="M71.7953 68.8066H65.4197C66.6249 68.8066 67.6017 69.7836 67.6017 70.9887V91.5621H73.9773V70.9887C73.9775 69.7835 73.0005 68.8066 71.7953 68.8066Z" fill="#248A5D"/>
<path d="M74.8194 93.0087H37.6593C36.4263 93.0087 35.4268 92.0092 35.4268 90.7762C35.4268 89.5432 36.4263 88.5437 37.6593 88.5437H74.8194C76.0524 88.5437 77.0519 89.5432 77.0519 90.7762C77.0519 92.0091 76.0524 93.0087 74.8194 93.0087Z" fill="#BFFCE1"/>
<path d="M32.6135 51.3147H27.8969C26.6764 51.3147 25.687 50.3253 25.687 49.1049C25.687 47.8844 26.6764 46.895 27.8969 46.895H32.6135C33.8339 46.895 34.8234 47.8844 34.8234 49.1049C34.8232 50.3253 33.8339 51.3147 32.6135 51.3147Z" fill="#BFFCE1"/>
<path d="M75.1571 87.3824V70.9901C75.1571 69.1366 73.6492 67.6287 71.7956 67.6287H64.6064C63.2542 65.449 61.1126 63.8343 58.6286 63.1525C56.2893 62.5103 50.1832 60.8341 47.8988 60.207C47.3406 60.0538 46.8484 59.7615 46.4526 59.3755C51.4217 59.0882 55.3702 54.9747 55.3699 49.9163L55.3694 44.4494C56.3123 44.2325 57.1781 43.7569 57.8791 43.0558C58.8646 42.0702 59.4073 40.7599 59.4072 39.3664L59.4068 35.7606C59.4064 23.627 49.5346 13.756 37.4011 13.756C25.2383 13.756 15.3943 23.5998 15.3956 35.7639C15.3962 49.5175 15.3961 46.6872 15.3961 47.0832C15.3961 48.8037 16.7959 50.2037 18.5166 50.2037H19.4428C19.5903 55.1265 23.5081 59.118 28.4018 59.3791C28.005 59.7714 27.5095 60.0691 26.9462 60.2246C24.759 60.8291 18.0796 62.6752 16.2198 63.1893C11.8033 64.4097 8.72166 68.4626 8.72559 73.0447L8.74021 90.1909C8.7421 92.3964 10.5371 94.1897 12.7426 94.1895H12.7457C55.6779 94.1892 -38.1747 94.1779 74.8196 94.1895C76.701 94.1895 78.2315 92.659 78.2315 90.7776C78.2315 89.0101 76.8805 87.5525 75.1571 87.3824ZM61.6483 67.6287H53.0844C53.921 66.7188 54.6789 65.7415 55.3469 64.6975L58.0043 65.4271C59.4059 65.8118 60.6653 66.5834 61.6483 67.6287ZM21.7939 47.8449L21.7934 44.5838H24.2816C24.4418 45.4926 24.706 46.3798 25.0713 47.24C24.946 47.4292 24.8402 47.6319 24.7543 47.8451H21.7939V47.8449ZM50.7284 35.3115L53.0001 35.3097C53.0194 35.8821 53.0062 35.6272 53.0108 42.2251H50.7171L50.7284 35.3115ZM41.8594 32.9596C36.206 32.4573 31.7811 27.8356 31.7764 22.417C31.7761 21.9847 31.8718 21.5612 32.0532 21.1734C33.7444 20.5581 35.5481 20.2365 37.4013 20.2365C45.0192 20.2365 51.3791 25.7226 52.74 32.9511C50.0326 32.9533 42.838 32.9588 41.8594 32.9596ZM29.4178 22.4258C29.4203 24.2477 29.8211 26.0237 30.5777 27.655C30.545 30.5648 28.181 32.9252 25.2682 32.9494C25.268 32.9494 25.268 32.9494 25.2679 32.9494H22.0599C22.9104 28.3916 25.7233 24.6325 29.4178 22.4258ZM21.7931 42.2251L21.7923 35.8468C21.7923 35.6665 21.7964 35.4871 21.8024 35.308H24.0556L24.0943 42.2249H21.7931V42.2251ZM27.8975 48.0759H32.6141C33.1822 48.0759 33.6445 48.5381 33.6445 49.1063C33.6445 49.6744 33.1824 50.1367 32.6141 50.1367H27.8975C27.3293 50.1367 26.8671 49.6746 26.8671 49.1063C26.867 48.5381 27.3293 48.0759 27.8975 48.0759ZM36.0032 49.1063C36.0032 47.2375 34.4829 45.7172 32.6139 45.7172H27.8973C27.604 45.7172 27.3208 45.7585 27.0492 45.8288C26.6552 44.7458 26.4555 43.6138 26.4543 42.4473L26.4139 35.2173C29.1261 34.7952 31.3732 32.9546 32.3752 30.4816C32.5867 30.7351 32.8058 30.9837 33.0382 31.2234C35.3262 33.582 38.4057 35.0347 41.7094 35.3141C41.7424 35.317 41.7756 35.3182 41.8088 35.3182H41.8096L48.3695 35.3132L48.3577 42.4339C48.361 46.2988 46.1774 49.2696 43.6494 51.2197C43.6316 51.2304 40.3193 53.8271 37.4161 53.9105C36.3537 53.8812 34.7349 53.3791 33.0772 52.4597C34.7272 52.2329 36.0032 50.8175 36.0032 49.1063ZM45.8937 57.0344H45.4399C45.4396 57.0168 45.4377 56.9995 45.4377 56.9819L45.4341 52.8015C48.0547 50.6725 49.9381 47.8652 50.5263 44.5838H53.0108L53.0112 49.9164C53.0116 53.8502 49.8281 57.0344 45.8937 57.0344ZM37.4011 16.1148C48.2341 16.1148 57.0476 24.9278 57.0482 35.7607L57.0485 39.3667C57.0485 40.1301 56.7512 40.848 56.2115 41.388C55.9643 41.6352 55.6786 41.8288 55.3696 41.9691L55.3691 35.8446C55.3691 35.2284 55.3378 34.6194 55.2769 34.0192C55.2761 34.0115 55.2754 34.0039 55.2746 33.9962C54.3458 24.9544 46.6844 17.8779 37.4015 17.8779C27.4707 17.8779 19.4329 25.9149 19.4338 35.8472L19.4346 41.9673C18.4458 41.517 17.7552 40.5219 17.755 39.3662L17.7545 35.7636C17.7531 24.9047 26.5408 16.1148 37.4011 16.1148ZM17.7547 47.0832V43.7274C18.2606 44.0602 18.8273 44.3068 19.4346 44.4478L19.4351 47.8451H18.5164C18.0964 47.8449 17.7547 47.5032 17.7547 47.0832ZM28.9117 57.0344C25.0836 57.0344 21.9527 53.9957 21.8014 50.2039H24.6942C25.1517 51.5349 26.4132 52.4955 27.8975 52.4955H29.0103C29.1374 52.6045 29.2662 52.7122 29.3972 52.8177L29.4008 56.9959C29.4008 57.0088 29.3994 57.0215 29.3992 57.0344H28.9117ZM27.5745 62.4983C30.0408 61.8168 31.7618 59.5531 31.7596 56.9937L31.7574 54.4244C33.7041 55.5374 35.7602 56.2359 37.393 56.2694C37.4011 56.2696 37.4092 56.2697 37.4172 56.2697C37.426 56.2697 37.4346 56.2696 37.4434 56.2694C38.8501 56.2381 40.9355 55.6445 43.0767 54.4189L43.0789 56.984C43.0811 59.5431 44.8063 61.8039 47.2745 62.4815L52.9476 64.0389C52.0226 65.3675 50.931 66.5688 49.6901 67.6287H40.6835C38.8299 67.6287 37.322 69.1366 37.322 70.9901V72.1678C31.1631 72.1434 25.3808 69.082 21.8703 64.0748L27.5745 62.4983ZM12.7439 91.8307C12.7434 91.8307 12.7431 91.8307 12.7426 91.8307C11.8371 91.8307 11.0999 91.0943 11.0992 90.1888L11.0844 73.0427C11.0812 69.5185 13.4513 66.4016 16.848 65.4628L19.4711 64.7379C21.2825 67.5522 23.7438 69.9175 26.635 71.6133C29.8647 73.5077 33.5587 74.5138 37.3219 74.5267V77.4321C37.3219 78.0836 37.8499 78.6115 38.5013 78.6115C39.1526 78.6115 39.6807 78.0836 39.6807 77.4321V70.9902C39.6807 70.4374 40.1304 69.9876 40.6833 69.9876H71.7956C72.3485 69.9876 72.7983 70.4374 72.7983 70.9902V87.3659H39.6808V82.9397C39.6808 82.2882 39.1528 81.7603 38.5014 81.7603C37.8501 81.7603 37.322 82.2882 37.322 82.9397V87.3827C35.5986 87.5528 34.2476 89.0104 34.2476 90.7778C34.2476 91.1382 34.3042 91.4857 34.4083 91.8122L20.4126 91.8243V85.2313C20.4126 84.5798 19.8845 84.0519 19.2332 84.0519C18.5818 84.0519 18.0538 84.5798 18.0538 85.2313V91.8262L12.7439 91.8307ZM74.8196 91.8307H37.6595C37.6235 91.8307 37.588 91.8288 37.5529 91.8254C37.5312 91.8219 37.5098 91.8177 37.4876 91.8155C36.9885 91.7331 36.6062 91.2997 36.6062 90.7776C36.6062 90.1969 37.0786 89.7245 37.6594 89.7245H74.8194C75.4002 89.7245 75.8726 90.1969 75.8726 90.7776C75.8726 91.3583 75.4003 91.8307 74.8196 91.8307Z" fill="#0E412A"/>
<g filter="url(#filter0_dddd_392_5508)">
<circle cx="72.2256" cy="51.2148" r="13.5" fill="white"/>
<circle cx="72.2256" cy="51.2148" r="13" stroke="#D6D6D6"/>
</g>
<g clip-path="url(#clip1_392_5508)">
<path d="M85.7547 37.317L86.7647 36.9189L86.373 35.9249L85.2926 36.3508C84.8164 35.5643 84.1441 34.9149 83.3415 34.4664L83.7778 33.462L84.7577 33.8877L85.1834 32.9078L82.2438 31.6307L81.8181 32.6105L82.798 33.0363L82.3616 34.0407C81.486 33.7601 80.5525 33.7118 79.6527 33.9004L79.2267 32.82L78.2328 33.2121L78.631 34.222C77.6715 34.6323 76.8532 35.3146 76.2771 36.1847C75.7011 37.0549 75.3925 38.0747 75.3895 39.1182C75.3864 40.1617 75.6891 41.1833 76.2602 42.0567C76.8312 42.9301 77.6455 43.6172 78.6026 44.033C79.5597 44.4489 80.6177 44.5753 81.6458 44.3966C82.6739 44.2179 83.6272 43.7421 84.3879 43.0277C85.1487 42.3134 85.6835 41.3919 85.9264 40.377C86.1693 39.3622 86.1096 38.2984 85.7547 37.317ZM79.0306 43.0479C78.2554 42.7111 77.5975 42.152 77.1401 41.4413C76.6826 40.7306 76.4462 39.9002 76.4607 39.0551C76.4752 38.21 76.74 37.3882 77.2215 36.6936C77.7031 35.999 78.3798 35.4628 79.1661 35.1528C79.9525 34.8428 80.813 34.7729 81.6391 34.952C82.4651 35.1311 83.2194 35.5511 83.8068 36.1589C84.3941 36.7668 84.7879 37.5351 84.9386 38.3668C85.0892 39.1984 84.9899 40.0561 84.6531 40.8313C84.2004 41.87 83.3542 42.6867 82.3002 43.1022C81.2461 43.5178 80.0703 43.4983 79.0306 43.0479Z" fill="#1F6C49"/>
<path d="M82.0107 36.1888L80.7335 39.1284L77.7939 37.8513C77.5413 38.4327 77.4667 39.0759 77.5797 39.6997C77.6927 40.3234 77.9881 40.8997 78.4286 41.3556C78.8691 41.8114 79.4349 42.1264 80.0544 42.2608C80.6739 42.3951 81.3193 42.3427 81.9091 42.1102C82.4988 41.8777 83.0063 41.4755 83.3675 40.9546C83.7287 40.4336 83.9273 39.8173 83.9381 39.1834C83.949 38.5496 83.7717 37.9268 83.4286 37.3938C83.0855 36.8607 82.5921 36.4414 82.0107 36.1888Z" fill="#1F6C49"/>
</g>
<path d="M66.408 48.1823V46.5628H69.4336V55.7148H67.6258V48.1823H66.408ZM71.0444 51.0195C71.0444 49.5716 71.3038 48.4375 71.8227 47.6173C72.35 46.7971 73.2204 46.387 74.434 46.387C75.6476 46.387 76.5138 46.7971 77.0328 47.6173C77.56 48.4375 77.8237 49.5716 77.8237 51.0195C77.8237 52.4758 77.56 53.6183 77.0328 54.4469C76.5138 55.2754 75.6476 55.6897 74.434 55.6897C73.2204 55.6897 72.35 55.2754 71.8227 54.4469C71.3038 53.6183 71.0444 52.4758 71.0444 51.0195ZM76.0912 51.0195C76.0912 50.4002 76.0493 49.8813 75.9656 49.4628C75.8903 49.036 75.7313 48.6886 75.4886 48.4208C75.2542 48.153 74.9027 48.0191 74.434 48.0191C73.9653 48.0191 73.6096 48.153 73.3669 48.4208C73.1326 48.6886 72.9735 49.036 72.8898 49.4628C72.8145 49.8813 72.7768 50.4002 72.7768 51.0195C72.7768 51.6556 72.8145 52.1913 72.8898 52.6265C72.9652 53.0533 73.1242 53.4007 73.3669 53.6685C73.6096 53.928 73.9653 54.0577 74.434 54.0577C74.9027 54.0577 75.2584 53.928 75.5011 53.6685C75.7438 53.4007 75.9029 53.0533 75.9782 52.6265C76.0535 52.1913 76.0912 51.6556 76.0912 51.0195Z" fill="#1F6C49"/>
</g>
<defs>
<filter id="filter0_dddd_392_5508" x="52.7256" y="36.7148" width="34" height="37" filterUnits="userSpaceOnUse" color-interpolation-filters="sRGB">
<feFlood flood-opacity="0" result="BackgroundImageFix"/>
<feColorMatrix in="SourceAlpha" type="matrix" values="0 0 0 0 0 0 0 0 0 0 0 0 0 0 0 0 0 0 127 0" result="hardAlpha"/>
<feOffset/>
<feGaussianBlur stdDeviation="0.5"/>
<feColorMatrix type="matrix" values="0 0 0 0 0.286275 0 0 0 0 0.517647 0 0 0 0 0.635294 0 0 0 0.1 0"/>
<feBlend mode="normal" in2="BackgroundImageFix" result="effect1_dropShadow_392_5508"/>
<feColorMatrix in="SourceAlpha" type="matrix" values="0 0 0 0 0 0 0 0 0 0 0 0 0 0 0 0 0 0 127 0" result="hardAlpha"/>
<feOffset dx="-1" dy="1"/>
<feGaussianBlur stdDeviation="1"/>
<feColorMatrix type="matrix" values="0 0 0 0 0.286275 0 0 0 0 0.517647 0 0 0 0 0.635294 0 0 0 0.09 0"/>
<feBlend mode="normal" in2="effect1_dropShadow_392_5508" result="effect2_dropShadow_392_5508"/>
<feColorMatrix in="SourceAlpha" type="matrix" values="0 0 0 0 0 0 0 0 0 0 0 0 0 0 0 0 0 0 127 0" result="hardAlpha"/>
<feOffset dx="-2" dy="3"/>
<feGaussianBlur stdDeviation="1"/>
<feColorMatrix type="matrix" values="0 0 0 0 0.286275 0 0 0 0 0.517647 0 0 0 0 0.635294 0 0 0 0.05 0"/>
<feBlend mode="normal" in2="effect2_dropShadow_392_5508" result="effect3_dropShadow_392_5508"/>
<feColorMatrix in="SourceAlpha" type="matrix" values="0 0 0 0 0 0 0 0 0 0 0 0 0 0 0 0 0 0 127 0" result="hardAlpha"/>
<feOffset dx="-3" dy="6"/>
<feGaussianBlur stdDeviation="1.5"/>
<feColorMatrix type="matrix" values="0 0 0 0 0.286275 0 0 0 0 0.517647 0 0 0 0 0.635294 0 0 0 0.01 0"/>
<feBlend mode="normal" in2="effect3_dropShadow_392_5508" result="effect4_dropShadow_392_5508"/>
<feBlend mode="normal" in="SourceGraphic" in2="effect4_dropShadow_392_5508" result="shape"/>
</filter>
<clipPath id="clip0_392_5508">
<rect width="80.5131" height="80.5131" fill="white" transform="translate(8.72559 13.7148)"/>
</clipPath>
<clipPath id="clip1_392_5508">
<rect width="12.8204" height="12.8204" fill="white" transform="translate(77.8342 29.7148) rotate(23.4834)"/>
</clipPath>
</defs>
</svg>
